<svg xmlns="http://www.w3.org/2000/svg" id="svg-logo-light" viewBox="0 0 424.56 198.69"><defs><style>.cls-1{fill:#beeddc;}.cls-2{fill:#fff;}</style></defs><path id="svg-logo-gp" class="cls-1" d="M2,91.54A28.3,28.3,0,0,1,5.44,91c1.14-.1,2.24-.16,3.3-.16s2.09.06,3.25.16a26.49,26.49,0,0,1,3.42.56v40.91a33.46,33.46,0,0,1-3.73.52c-1.12.08-2.1.11-2.94.11-1,0-2,0-3-.11A33.68,33.68,0,0,1,2,132.45Zm24.07,0a25.62,25.62,0,0,1,3.5-.48c1.38-.1,2.59-.16,3.65-.16,1.38,0,2.77.06,4.17.16a21.33,21.33,0,0,1,3.38.48L30.9,110.6l11,21.85a26.85,26.85,0,0,1-3.57.48c-1.43.1-2.68.15-3.74.15-1.37,0-2.74-.05-4.09-.15a19.55,19.55,0,0,1-3.22-.48L16.72,111.16ZM82.69,130.7c-.9.32-2,.64-3.22,1s-2.57.63-4,.92-2.85.51-4.33.67a39.86,39.86,0,0,1-4.37.24A46.05,46.05,0,0,1,59,132.9a16,16,0,0,1-6.55-2.59A13.21,13.21,0,0,1,48,124.62a24.34,24.34,0,0,1-1.66-9.88V91.54a28,28,0,0,1,3.4-.54c1.14-.1,2.24-.16,3.3-.16s2.09.06,3.26.16a26.07,26.07,0,0,1,3.41.56v22.08q0,4.77,1.59,6.52a6.27,6.27,0,0,0,4.85,1.74,17.65,17.65,0,0,0,2.06-.08,8.31,8.31,0,0,0,1-.15V91.54A28.77,28.77,0,0,1,72.66,91c1.14-.1,2.24-.16,3.3-.16s2.09.06,3.25.16a26.49,26.49,0,0,1,3.42.56Zm8.9-39c2.49-.32,5.07-.58,7.74-.8s5.2-.31,7.59-.31q9.6,0,14.42,3.61a12,12,0,0,1,4.8,10.13,15.17,15.17,0,0,1-.55,4.29,14.34,14.34,0,0,1-1.36,3.14,9.6,9.6,0,0,1-1.66,2.1l-1.43,1.27,9,17.32a35.2,35.2,0,0,1-3.53.48q-2,.15-3.78.15-2.22,0-4.29-.15a24.34,24.34,0,0,1-3.41-.48l-8.82-18.75,1.11-.63a10,10,0,0,0,3.82-3.38,7.63,7.63,0,0,0,1-3.85,4.74,4.74,0,0,0-1.23-3.38,5.19,5.19,0,0,0-3.93-1.31,11.92,11.92,0,0,0-2.31.16v31.22a33.46,33.46,0,0,1-3.73.52c-1.11.07-2.09.11-2.94.11a28.89,28.89,0,0,1-2.94-.11,34.48,34.48,0,0,1-3.65-.52Zm79.59,39c-.9.32-2,.64-3.22,1s-2.57.63-4,.92-2.84.51-4.33.67a39.86,39.86,0,0,1-4.37.24,46.05,46.05,0,0,1-7.78-.63,16.21,16.21,0,0,1-6.55-2.59,13.19,13.19,0,0,1-4.49-5.64,24.35,24.35,0,0,1-1.67-9.88V91.54a27.1,27.1,0,0,1,3.46-.56c1.13-.1,2.23-.16,3.29-.16s2.09.06,3.26.16a26.07,26.07,0,0,1,3.41.56v22.08q0,4.77,1.59,6.52a6.27,6.27,0,0,0,4.85,1.74,17.65,17.65,0,0,0,2.06-.08,8.31,8.31,0,0,0,1-.15V91.54a28.83,28.83,0,0,1,3.45-.56c1.14-.1,2.24-.16,3.3-.16s2.09.06,3.26.16a26.07,26.07,0,0,1,3.41.56ZM196.6,90.75a40.79,40.79,0,0,1,6.43.51,16.93,16.93,0,0,1,5.88,2.11,28.09,28.09,0,0,1,4.85-1.83,22.85,22.85,0,0,1,6.27-.79,35.2,35.2,0,0,1,6.4.59,14.66,14.66,0,0,1,6,2.5,13.82,13.82,0,0,1,4.36,5.48,22.08,22.08,0,0,1,1.71,9.46v23.75a33.46,33.46,0,0,1-3.73.52c-1.11.07-2.09.11-2.94.11-1,0-2,0-3-.11a33.46,33.46,0,0,1-3.73-.52V110.21q0-4.21-1.43-6c-.95-1.22-2.52-1.83-4.69-1.83a10,10,0,0,0-2.18.24,10.64,10.64,0,0,0-1.47.4,25.61,25.61,0,0,1,.71,6.35v23.2a33.46,33.46,0,0,1-3.73.52c-1.11.07-2.09.11-2.94.11-1,0-2,0-3-.11a33.46,33.46,0,0,1-3.73-.52V110.21q0-4.21-1.35-6t-4.61-1.83a13,13,0,0,0-1.87.16,4.06,4.06,0,0,0-1.23.32v29.71a33.46,33.46,0,0,1-3.73.52c-1.11.07-2.09.11-2.94.11-1,0-2,0-3-.11a33.46,33.46,0,0,1-3.73-.52v-39c2.19-.73,4.42-1.36,6.67-1.87A43.7,43.7,0,0,1,196.6,90.75Zm63.79,30.66h15a19.68,19.68,0,0,1,.52,2.94c.08.9.12,1.77.12,2.62a22.45,22.45,0,0,1-.64,5.66H247V91.56a29.32,29.32,0,0,1,3.5-.56c1.14-.1,2.23-.16,3.29-.16s2.1.06,3.26.16a26.49,26.49,0,0,1,3.42.56Zm19.22-2.23a11.46,11.46,0,0,1,1.67-6.43,12.36,12.36,0,0,1,4.29-4,18.21,18.21,0,0,1,5.8-2.11,34.7,34.7,0,0,1,6.19-.59h4.85a4.28,4.28,0,0,0-.8-2.39,4.82,4.82,0,0,0-1.82-1.47,9.31,9.31,0,0,0-2.47-.71,19.88,19.88,0,0,0-2.78-.2,26.51,26.51,0,0,0-4.44.44,31.72,31.72,0,0,0-5.25,1.39q-.71-1.35-1.23-2.46a12.21,12.21,0,0,1-.79-2.27,17.39,17.39,0,0,1-.4-2.38q-.12-1.23-.12-2.82a50.79,50.79,0,0,1,7.59-1.91,40.64,40.64,0,0,1,6.79-.63,26.18,26.18,0,0,1,7.47,1,15.08,15.08,0,0,1,5.68,3.06,13.62,13.62,0,0,1,3.61,5.28,20.88,20.88,0,0,1,1.27,7.67v23.24c-2,.58-4.45,1.17-7.31,1.75a45.31,45.31,0,0,1-9,.87,35.86,35.86,0,0,1-7.59-.75,16.78,16.78,0,0,1-5.92-2.43,11.59,11.59,0,0,1-3.85-4.4,14.71,14.71,0,0,1-1.44-6.75Zm18.75,4.45a17.69,17.69,0,0,0,2.06-.16,15.14,15.14,0,0,0,2-.32v-8.73h-4.53a8.68,8.68,0,0,0-4.69,1.19,3.72,3.72,0,0,0-1.9,3.33,4,4,0,0,0,.71,2.51,4.66,4.66,0,0,0,1.78,1.39,8.36,8.36,0,0,0,2.3.63,17.2,17.2,0,0,0,2.27.16ZM323.22,91.7c2.49-.32,5.07-.58,7.75-.8s5.2-.31,7.58-.31q9.61,0,14.42,3.61a12,12,0,0,1,4.81,10.13,14.79,14.79,0,0,1-.56,4.29,13.85,13.85,0,0,1-1.35,3.14,10,10,0,0,1-1.67,2.1c-.58.53-1.06,1-1.43,1.27l9.06,17.32a30.11,30.11,0,0,1-3.54.48c-1.3.1-2.55.15-3.77.15q-2.24,0-4.29-.15a24.69,24.69,0,0,1-3.42-.48L338,113.7l1.11-.63a10,10,0,0,0,3.81-3.38,7.53,7.53,0,0,0,1-3.85,4.74,4.74,0,0,0-1.23-3.38,5.19,5.19,0,0,0-3.93-1.31,11.81,11.81,0,0,0-2.3.16v31.22a33.63,33.63,0,0,1-3.74.52c-1.11.07-2.09.11-2.94.11a28.89,28.89,0,0,1-2.94-.11,34.48,34.48,0,0,1-3.65-.52Z" transform="translate(0 0.01)"></path><path id="svg-logo-gp-2" data-name="svg-logo-gp" class="cls-2" d="M368.44,62.13l15.75-23.62,9,6L377.47,68.15Zm21.82,26.51,27.19-12.86,4.64,9.82L394.9,98.46Zm6,44.54,1.57-10.74,26.73,3.92L423,137.1ZM333.8,50.55l2.35-26.34,10.81,1-2.35,26.35ZM27.6,43c-1,.1-2.21.29-3.53.55V55.22H22.64q-4.45,0-6.75-2.5t-2.31-7.83a13.16,13.16,0,0,1,.52-3.69,8.5,8.5,0,0,1,1.63-3.14,7.63,7.63,0,0,1,2.94-2.14,11.06,11.06,0,0,1,4.44-.8,18.58,18.58,0,0,1,4,.52,31.4,31.4,0,0,1,5,1.63c.48-1.17.89-2.21,1.23-3.14s.64-1.8.88-2.62.43-1.63.59-2.42a18.13,18.13,0,0,0,.32-2.55,39.76,39.76,0,0,0-7.31-2.22,33.1,33.1,0,0,0-6.12-.64,24.59,24.59,0,0,0-9.37,1.67,19.6,19.6,0,0,0-6.79,4.53,18.74,18.74,0,0,0-4.13,6.75A24.23,24.23,0,0,0,0,44.89a30.57,30.57,0,0,0,1.15,8.5A18.12,18.12,0,0,0,4.86,60.3,17.65,17.65,0,0,0,11.42,65a24.71,24.71,0,0,0,9.73,1.71,40.34,40.34,0,0,0,9.61-1,62.43,62.43,0,0,0,6.43-1.91V43.54a37.43,37.43,0,0,0-6.59-.71A27.42,27.42,0,0,0,27.6,43ZM51.29,23.92c-1.06,0-2.15.06-3.29.16a27.1,27.1,0,0,0-3.46.56v41c1.33.21,2.54.37,3.66.47s2.11.16,3,.16a20,20,0,0,0,3-.16c1.09-.16,2.36-.26,3.74-.47v-41a23.22,23.22,0,0,0-3.42-.56C53.41,24,52.29,23.92,51.29,23.92ZM80.15,65.63V34.41a11.81,11.81,0,0,1,2.3-.16,5.19,5.19,0,0,1,3.93,1.31,4.73,4.73,0,0,1,1.24,3.38,7.53,7.53,0,0,1-1,3.85,9.83,9.83,0,0,1-3.81,3.37l-1.11.64,8.82,18.75a22.93,22.93,0,0,0,3.41.47c1.38.11,2.81.16,4.29.16,1.22,0,2.48-.05,3.77-.16a30.09,30.09,0,0,0,3.54-.47L96.47,48.23c.37-.32.85-.74,1.43-1.27a9.19,9.19,0,0,0,1.67-2.11,13.58,13.58,0,0,0,1.35-3.13,14.79,14.79,0,0,0,.56-4.29A11.94,11.94,0,0,0,96.67,27.3q-4.8-3.61-14.42-3.62-3.57,0-7.58.32c-2.67.21-5.26.48-7.75.8V65.63a32.21,32.21,0,0,0,3.66.51q1.59.12,2.94.12t2.94-.12A32.73,32.73,0,0,0,80.15,65.63Zm40,.47c1.12-.1,2.36-.26,3.74-.47v-41a23.22,23.22,0,0,0-3.42-.56c-1.16-.1-2.25-.16-3.25-.16s-2.16.06-3.3.16a27.1,27.1,0,0,0-3.46.56v41c1.33.21,2.54.37,3.66.47s2.11.16,3,.16,1.95-.05,3.06-.16Zm43.11-13.74a13.94,13.94,0,0,0-.8-5,10.25,10.25,0,0,0-2.2-3.52A11.27,11.27,0,0,0,157,41.5a26,26,0,0,0-4.38-1.5l-5.16-1.35a9.83,9.83,0,0,1-2-.8,1.48,1.48,0,0,1-.87-1.35c0-1.37,1.24-2.06,3.73-2.06a24.27,24.27,0,0,1,5.56.71,35.9,35.9,0,0,1,5.17,1.59,32.53,32.53,0,0,0,2-5.12,23.93,23.93,0,0,0,1-5.44A46.37,46.37,0,0,0,155,24.3a38.53,38.53,0,0,0-6.6-.64,23.7,23.7,0,0,0-7,1A16.65,16.65,0,0,0,136,27.4a12.28,12.28,0,0,0-4.84,10,10.66,10.66,0,0,0,2.78,7.78,15.29,15.29,0,0,0,7,4l5.4,1.51a14.29,14.29,0,0,1,2.38.92,1.64,1.64,0,0,1,1,1.54,1.66,1.66,0,0,1-.51,1.28,4,4,0,0,1-1.31.75,7.15,7.15,0,0,1-1.83.36c-.69,0-1.35.08-2,.08a26,26,0,0,1-5.56-.6,24.32,24.32,0,0,1-5.32-1.79,32.12,32.12,0,0,0-2.94,11,39.28,39.28,0,0,0,6.91,1.9,41.22,41.22,0,0,0,5.65.53L138,74.21l1.59,1.58a18.25,18.25,0,0,1,2.93-.75,14.72,14.72,0,0,1,1.74-.2,3.94,3.94,0,0,1,2.39.6,1.86,1.86,0,0,1,.79,1.55,2.22,2.22,0,0,1-.79,1.66,4.32,4.32,0,0,1-2.86.72,16.76,16.76,0,0,1-2.74-.2,18.72,18.72,0,0,1-2.75-.68A8.85,8.85,0,0,0,137,81.35a11.46,11.46,0,0,0-.39,2.47,14.25,14.25,0,0,0,3.53.87,29.7,29.7,0,0,0,3.77.24q5.88,0,9.34-2.11a6.83,6.83,0,0,0,3.45-6.23,5.84,5.84,0,0,0-2.46-4.89,11.85,11.85,0,0,0-6.83-2l2.26-3.51a21.23,21.23,0,0,0,2.62-.62,18.29,18.29,0,0,0,6-3A12.59,12.59,0,0,0,162,58a13.12,13.12,0,0,0,1.29-5.64ZM176.9,23.92c-1.06,0-2.16.06-3.3.16a27,27,0,0,0-3.45.56v41c1.32.21,2.54.37,3.65.47s2.12.16,3,.16a20,20,0,0,0,3-.16c1.09-.16,2.36-.26,3.73-.47v-41a23.09,23.09,0,0,0-3.41-.56C179,24,177.91,23.92,176.9,23.92Zm70.22,42.22a33.43,33.43,0,0,0,3.73-.51V41.84a22.18,22.18,0,0,0-1.7-9.45,14,14,0,0,0-4.37-5.48,14.66,14.66,0,0,0-6-2.5,36.1,36.1,0,0,0-6.39-.6,22.6,22.6,0,0,0-6.28.8,28.9,28.9,0,0,0-4.85,1.82,16.86,16.86,0,0,0-5.87-2.1,39.68,39.68,0,0,0-6.44-.52,44,44,0,0,0-9.85.92c-2.59.61-4.82,1.23-6.67,1.86v39a33.43,33.43,0,0,0,3.73.51c1.11.08,2.12.12,3,.12a24.09,24.09,0,0,0,2.94-.12,33.43,33.43,0,0,0,3.73-.51V35.92a4.06,4.06,0,0,1,1.23-.32,11.7,11.7,0,0,1,1.87-.16c2.17,0,3.7.61,4.61,1.83s1.36,3.22,1.35,6V65.6a33.43,33.43,0,0,0,3.73.51c1.11.08,2.12.12,3,.12a24.09,24.09,0,0,0,2.94-.12,33.43,33.43,0,0,0,3.73-.51V42.4a25.61,25.61,0,0,0-.71-6.35,10.64,10.64,0,0,1,1.47-.4,10,10,0,0,1,2.18-.24c2.17,0,3.74.61,4.69,1.83s1.43,3.23,1.43,6V65.57a33.43,33.43,0,0,0,3.73.51q1.68.12,3,.12C245,66.2,246,66.22,247.12,66.14Zm43.05-7.78A19.46,19.46,0,0,0,288,53.55a31,31,0,0,1-4,1.27,17.35,17.35,0,0,1-4,.4,11.9,11.9,0,0,1-3.46-.48,7.1,7.1,0,0,1-2.86-1.59,7.92,7.92,0,0,1-2-3,13.57,13.57,0,0,1-.76-4.89c0-3.71.84-6.31,2.5-7.82a9.06,9.06,0,0,1,6.32-2.27h1.94a16.7,16.7,0,0,1,1.87.2c.64.11,1.31.25,2,.44s1.52.43,2.42.75a22.46,22.46,0,0,0,2-5.2,18.23,18.23,0,0,0,.47-5.36c-1.27-.48-2.42-.88-3.45-1.19a21.84,21.84,0,0,0-3-.72c-1-.16-2-.26-3-.32s-2.07-.08-3.18-.08a22.72,22.72,0,0,0-8.74,1.59,18.16,18.16,0,0,0-6.43,4.41,18.61,18.61,0,0,0-4,6.79,29.36,29.36,0,0,0,0,17.6,18.23,18.23,0,0,0,4,6.75,17.57,17.57,0,0,0,6.55,4.33,24.86,24.86,0,0,0,9,1.51,44.57,44.57,0,0,0,6-.4,28.56,28.56,0,0,0,6.67-1.83,21.12,21.12,0,0,0-.69-6.08Zm13.35-34.44c-1.06,0-2.16.06-3.3.16a27,27,0,0,0-3.45.56v41c1.32.21,2.54.37,3.65.47s2.12.16,3,.16a20,20,0,0,0,3-.16c1.09-.16,2.35-.26,3.73-.47v-41a23.09,23.09,0,0,0-3.41-.56C305.61,24,304.53,23.92,303.52,23.92ZM30.34,158.84a17.71,17.71,0,0,0-6.27-2.46,38.14,38.14,0,0,0-7.15-.67q-3.57,0-7.43.27c-2.57.18-5.08.46-7.51.84v40.83a33.92,33.92,0,0,0,3.62.52c1,.07,2,.11,2.9.11a28,28,0,0,0,2.9-.11,35.22,35.22,0,0,0,3.69-.52v-9.81a7.92,7.92,0,0,0,1.19.16c.64.05,1.41.08,2.31.08a25.86,25.86,0,0,0,6.55-.84,16.46,16.46,0,0,0,5.76-2.74,13.79,13.79,0,0,0,4.09-5,19.92,19.92,0,0,0-.16-15.77A13.26,13.26,0,0,0,30.34,158.84Zm-8.7,17.8A7.3,7.3,0,0,1,17.08,178h-1a8.27,8.27,0,0,1-1-.12V166a10.16,10.16,0,0,1,1.23-.08h1a6.48,6.48,0,0,1,4.4,1.55,5.45,5.45,0,0,1,1.79,4.41c-.05,2.22-.64,3.8-1.84,4.73Zm49.77,9.89h-15l.08-29.87a23.22,23.22,0,0,0-3.42-.56c-1.16-.1-2.25-.16-3.26-.16s-2.15.06-3.29.16a27.1,27.1,0,0,0-3.46.56L43,197.73H71.42a17.93,17.93,0,0,0,.52-3c.08-.93.12-1.81.12-2.66a20.91,20.91,0,0,0-.65-5.54Zm34.44-26.77a15.08,15.08,0,0,0-5.68-3.06,26.18,26.18,0,0,0-7.47-1,40.64,40.64,0,0,0-6.79.63,50.79,50.79,0,0,0-7.59,1.91q0,1.59.12,2.82a17.39,17.39,0,0,0,.4,2.38,12.21,12.21,0,0,0,.79,2.27q.53,1.11,1.23,2.46a31.72,31.72,0,0,1,5.25-1.39,26.51,26.51,0,0,1,4.44-.44,19.88,19.88,0,0,1,2.78.2,9.31,9.31,0,0,1,2.47.71,4.82,4.82,0,0,1,1.82,1.47,4.28,4.28,0,0,1,.8,2.39H93.57a34.7,34.7,0,0,0-6.19.59,18.21,18.21,0,0,0-5.8,2.11,12.36,12.36,0,0,0-4.29,4,11.46,11.46,0,0,0-1.67,6.43A14.73,14.73,0,0,0,77,191a11.59,11.59,0,0,0,3.85,4.4,16.78,16.78,0,0,0,5.92,2.43,35.86,35.86,0,0,0,7.59.75,45.31,45.31,0,0,0,9-.87c2.86-.58,5.3-1.17,7.31-1.75V172.71A20.88,20.88,0,0,0,109.4,165,13.38,13.38,0,0,0,105.85,159.76Zm-7.43,28.51a15.14,15.14,0,0,1-2,.32,17.69,17.69,0,0,1-2.06.16,17.2,17.2,0,0,1-2.27-.16,8.36,8.36,0,0,1-2.3-.63A4.7,4.7,0,0,1,88,186.57a4,4,0,0,1-.71-2.51,3.72,3.72,0,0,1,1.9-3.33,8.68,8.68,0,0,1,4.69-1.19h4.53Zm55.13-31.61H116.61a18.28,18.28,0,0,0-.52,2.94c-.08.9-.12,1.77-.12,2.62a19.66,19.66,0,0,0,.12,2.66,17.93,17.93,0,0,0,.52,3h11.76v29.79c1.32.21,2.54.37,3.65.48s2.12.15,3,.15,1.91-.05,3-.15,2.35-.27,3.73-.48V167.84h11.76a19,19,0,0,0,.51-3c.08-.93.12-1.81.12-2.66a19.08,19.08,0,0,0-.12-2.62,18.85,18.85,0,0,0-.47-2.9Zm36.62,0H159.82v40.91a23.88,23.88,0,0,0,3.46.52c1.14.08,2.23.11,3.29.11s2.1,0,3.26-.11a21.9,21.9,0,0,0,3.42-.52V185.42h13.66a20.46,20.46,0,0,0,.52-3c.08-.93.12-1.82.12-2.66a21.75,21.75,0,0,0-.64-5.57H173.29v-6.35h16.92a19,19,0,0,0,.51-3c.08-.93.12-1.81.12-2.66a19.69,19.69,0,0,0-.67-5.52Zm40,5a17.24,17.24,0,0,0-6.39-4.4,26.06,26.06,0,0,0-17.72,0,17.24,17.24,0,0,0-6.39,4.4,18.84,18.84,0,0,0-3.89,6.87,28.36,28.36,0,0,0-1.31,8.86,27.05,27.05,0,0,0,1.31,8.7,18.49,18.49,0,0,0,3.89,6.75,16.84,16.84,0,0,0,6.39,4.33,26.79,26.79,0,0,0,17.72,0,16.84,16.84,0,0,0,6.39-4.33,18.66,18.66,0,0,0,3.9-6.75,27.61,27.61,0,0,0,1.31-8.7,28.65,28.65,0,0,0-1.31-8.86,18.89,18.89,0,0,0-3.91-6.87Zm-10.1,23.44a5.72,5.72,0,0,1-5.2,2.7,5.62,5.62,0,0,1-5.16-2.7q-1.67-2.7-1.67-7.71a15.11,15.11,0,0,1,1.67-7.78,5.62,5.62,0,0,1,5.16-2.7,5.72,5.72,0,0,1,5.2,2.7q1.71,2.7,1.71,7.78T220.07,185.1Zm53.22-6.1a9.6,9.6,0,0,0,1.66-2.1,14.28,14.28,0,0,0,1.34-3.14,15.17,15.17,0,0,0,.55-4.29,12,12,0,0,0-4.8-10.13q-4.82-3.61-14.42-3.61c-2.39,0-4.91.1-7.59.31s-5.26.48-7.74.8v40.83a34.48,34.48,0,0,0,3.65.52c1.06.07,2,.11,2.94.11a26.27,26.27,0,0,0,2.94-.11,33.46,33.46,0,0,0,3.73-.52V166.43a11.92,11.92,0,0,1,2.31-.16,5.19,5.19,0,0,1,3.93,1.31A4.71,4.71,0,0,1,263,171a7.63,7.63,0,0,1-1,3.85,10,10,0,0,1-3.82,3.38l-1.11.63,8.82,18.75a24.34,24.34,0,0,0,3.41.48q2.07.15,4.29.15,1.83,0,3.78-.15a35.2,35.2,0,0,0,3.53-.48l-9-17.32Zm64.91-20a14.66,14.66,0,0,0-6-2.5,36.12,36.12,0,0,0-6.4-.6,22.48,22.48,0,0,0-6.27.8,28.09,28.09,0,0,0-4.85,1.83,16.93,16.93,0,0,0-5.88-2.11,40.8,40.8,0,0,0-6.43-.52,44,44,0,0,0-9.85.92c-2.25.51-4.48,1.14-6.67,1.87v39a33.46,33.46,0,0,0,3.73.52c1.11.07,2.12.11,3,.11a28.89,28.89,0,0,0,2.94-.11,33.46,33.46,0,0,0,3.73-.52V167.94a4.06,4.06,0,0,1,1.23-.32,13,13,0,0,1,1.87-.16c2.17,0,3.7.61,4.61,1.83s1.36,3.22,1.35,6v22.32a33.46,33.46,0,0,0,3.73.52c1.11.07,2.12.11,3,.11a28.89,28.89,0,0,0,2.94-.11,33.46,33.46,0,0,0,3.73-.52v-23.2a25.61,25.61,0,0,0-.71-6.35,10.64,10.64,0,0,1,1.47-.4,10,10,0,0,1,2.18-.24q3.25,0,4.69,1.83t1.43,6v22.32a33.46,33.46,0,0,0,3.73.52c1.11.07,2.12.11,3,.11a28.89,28.89,0,0,0,2.94-.11,33.46,33.46,0,0,0,3.73-.52V173.9a22.08,22.08,0,0,0-1.71-9.46A13.84,13.84,0,0,0,338.2,159Zm43.88-3c-1.06,0-2.15.06-3.29.16a27.1,27.1,0,0,0-3.46.56v30.11a8.31,8.31,0,0,1-1,.15,17.91,17.91,0,0,1-2.07.08,6.25,6.25,0,0,1-4.84-1.74c-1.06-1.17-1.59-3.35-1.59-6.52V156.66a23.22,23.22,0,0,0-3.42-.56c-1.16-.1-2.25-.16-3.25-.16s-2.16.06-3.3.16a27.1,27.1,0,0,0-3.46.56v23.18a24.2,24.2,0,0,0,1.67,9.89,13.19,13.19,0,0,0,4.49,5.64,16.21,16.21,0,0,0,6.55,2.59,46.17,46.17,0,0,0,7.79.63,39.86,39.86,0,0,0,4.37-.24c1.48-.16,2.92-.38,4.33-.67s2.72-.6,4-.92,2.31-.63,3.22-.95V156.66a24.88,24.88,0,0,0-3.42-.56c-1.23-.1-2.31-.16-3.32-.16ZM51.65,15.11a7.56,7.56,0,1,0-7.56-7.56h0a7.55,7.55,0,0,0,7.54,7.56h0Zm65.47,0a7.56,7.56,0,1,0-7.55-7.57h0a7.55,7.55,0,0,0,7.54,7.56h0Zm59,0a7.56,7.56,0,1,0-7.55-7.57h0a7.55,7.55,0,0,0,7.55,7.57h0Zm126.49,0a7.56,7.56,0,1,0-7.55-7.57h0a7.55,7.55,0,0,0,7.55,7.57h0Z" transform="translate(0 0.01)"></path></svg>