<svg version="1.1" id="Layer_1" xmlns="http://www.w3.org/2000/svg" xmlns:xlink="http://www.w3.org/1999/xlink" x="0px" y="0px" viewBox="0 0 455.1 129.9" style="enable-background:new 0 0 455.1 129.9;" xml:space="preserve">
 <style type="text/css">
  .st0{fill:#1C1C1C;}
	.st1{fill:#FF9662;}
 </style>
 <g>
  <polygon class="st0" points="434.2,58.3 420,58.3 399.8,86.7 379.6,58.3 365.3,58.3 392.9,97.3 392.9,129.1 405.9,129.1 
		405.9,97.9 406.2,97.9 	">
  </polygon>
  <g>
   <path class="st0" d="M50.1,92l-1-0.7l0.8-0.8c3.4-3.6,5.2-8.1,5.2-12.6c0-10.8-10-19.6-22.2-19.6H0v70.2h34.9
			c12.9,0,23.4-9.3,23.4-20.7C58.3,101.8,55.3,96,50.1,92 M12.3,68.5H33c5.7,0,10.4,4.1,10.4,9.3c0,5.1-4.6,9.3-10.4,9.3H12.3V68.5z
			 M34.9,118.2H12.3V97.4h22.6c6.4,0,11.8,4.6,11.8,10.4C46.6,113.5,41.3,118.2,34.9,118.2">
   </path>
   <polygon class="st0" points="263.4,105 243,58.3 229.5,58.3 260.5,128.4 266.1,128.4 297.2,58.3 283.6,58.3 		">
   </polygon>
   <path class="st0" d="M107.2,56.9c-20.2,0-36.5,16.3-36.5,36.5s16.4,36.5,36.5,36.5c20.2,0,36.5-16.3,36.5-36.5
			S127.5,56.9,107.2,56.9 M107.2,117.9c-13.5,0-24.5-10.9-24.5-24.5s10.9-24.5,24.5-24.5s24.5,10.9,24.5,24.5
			C131.8,106.8,120.8,117.9,107.2,117.9">
   </path>
   <polygon class="st0" points="204.5,103.5 164.5,58.3 158.5,58.3 158.5,128.4 170.7,128.4 170.7,83.2 210.6,128.4 216.8,128.4 
			216.8,58.3 204.5,58.3 		">
   </polygon>
   <rect x="301.6" y="118.2" class="st1" width="61.7" height="10.3">
   </rect>
   <path class="st0" d="M331.8,58c-13.5,0-24.5,10.9-24.5,24.5s10.9,24.5,24.5,24.5s24.5-10.9,24.5-24.5S345.4,58,331.8,58
			 M331.8,96.6c-7.8,0-14.1-6.3-14.1-14.1s6.3-14.1,14.1-14.1s14.1,6.3,14.1,14.1C346.1,90.3,339.6,96.6,331.8,96.6">
   </path>
   <polygon class="st0" points="66.5,12.8 66.5,36.6 59.9,36.6 59.9,1.5 59.9,1.5 59.9,1.5 67.3,1.5 78.1,20.9 88.9,1.5 96.3,1.5 
			96.3,1.5 96.3,36.6 89.7,36.6 89.7,12.8 80.4,29.8 75.8,29.8 		">
   </polygon>
   <polygon class="st0" points="345.7,1.8 345.7,7.8 356.1,7.8 356.1,36.9 362.7,36.9 362.7,7.8 373.1,7.8 373.1,1.8 		">
   </polygon>
   <polygon class="st0" points="307.8,1.8 307.8,7.8 318.2,7.8 318.2,36.9 324.7,36.9 324.7,7.8 335,7.8 335,1.8 		">
   </polygon>
   <rect x="243.1" y="1.6" class="st0" width="6.6" height="35.1">
   </rect>
   <path class="st0" d="M161.5,22.4h5.3l9.8,14.2h7.5l-10-14.4c5.6-0.8,10-5.1,10-10.3l0,0c0-5.7-5.3-10.4-11.8-10.4h-17.5v35.1h6.6
			C161.5,36.8,161.5,22.4,161.5,22.4z M161.5,7.1h10.9c3,0,5.5,2.2,5.5,4.9l0,0c0,2.7-2.5,4.9-5.5,4.9h-10.9V7.1z">
   </path>
   <path class="st0" d="M126.6,13.2l5.1,11.1h-10.3L126.6,13.2z M125.1,1.5l-16.3,35.1h7l3.1-6.7h15.5l3.1,6.7h7L128.3,1.5H125.1z">
   </path>
   <path class="st0" d="M216.8,1.5h-17.5v35.1h6.6V22.4h5.3l9.8,14.2h7.5l-10-14.4c5.6-0.8,10-5.1,10-10.3l0,0
			C228.7,6.1,223.3,1.5,216.8,1.5 M222.4,11.9L222.4,11.9c0,2.7-2.5,4.9-5.5,4.9H206V7.1h10.9C219.9,7.1,222.4,9.3,222.4,11.9
			L222.4,11.9z">
   </path>
   <path class="st0" d="M281.6,0c-10.1,0-18.3,8.2-18.3,18.2c0,10.1,8.2,18.2,18.3,18.2s18.3-8.2,18.3-18.2S291.7,0,281.6,0
			 M281.6,30c-6.4,0-11.8-5.2-11.8-11.8c0-6.4,5.2-11.8,11.8-11.8c6.4,0,11.8,5.2,11.8,11.8S288,30,281.6,30">
   </path>
   <polygon class="st0" points="441.6,59.2 438.7,59.2 438.7,58.1 445.6,58.1 445.6,59.2 442.8,59.2 442.8,67 441.6,67 		">
   </polygon>
   <path class="st0" d="M447.7,67h-1.1v-8.9h1.8l2.2,6.7c0.1,0.3,0.1,0.5,0.3,0.7c0-0.3,0.1-0.5,0.1-0.7l2.3-6.7h1.8V67h-1.2v-7.5
			c0,0.3-0.1,0.5-0.3,0.8l-2.3,6.7h-1.1l-2.2-6.7c-0.1-0.3-0.1-0.5-0.1-0.8V67H447.7z">
   </path>
  </g>
 </g>
</svg>