<svg xmlns="http://www.w3.org/2000/svg" width="139" height="60" viewBox="0 0 139 60">
    <g fill="none" fill-rule="evenodd">
        <path fill="#004288" d="M0 59.277h139V0H0z"/>
        <path fill="#FEFEFE" d="M24.963 49.286h-.458v.634c.916-.024 1.83-.049 2.743-.049.914 0 1.801.05 2.69.05v-.635h-.458c-.71 0-1.267 0-1.267-.807v-7.227c.836-.54 2.131-1.173 2.944-1.173 1.445 0 2.335.682 2.335 2.075v6.325c0 .807-.507.807-1.219.807h-.457v.634c.914-.024 1.828-.049 2.74-.049.915 0 1.804.05 2.692.05v-.635h-.456c-.712 0-1.27 0-1.27-.807v-6.3c0-1.906-.762-3.42-2.92-3.42-1.701 0-2.943.83-4.39 1.833v-1.586c0-.196-.078-.247-.152-.247-1.22.515-2.258.83-3.352 1.174v.462c1.195.468 1.473.709 1.473 1.613v6.471c0 .807-.509.807-1.218.807M42.177 32.604c-.634 0-1.244.563-1.244 1.172 0 .636.585 1.224 1.244 1.224.684 0 1.244-.566 1.244-1.224s-.584-1.172-1.244-1.172m-.354 17.267c.914 0 1.802.049 2.665.049v-.634h-.432c-.71 0-1.27 0-1.27-.807v-9.378c0-.195-.05-.342-.175-.342a.926.926 0 0 0-.458.123c-.1.073-1.523.537-2.715.879v.39c.937.488 1.319.635 1.319 1.709v6.62c0 .806-.506.806-1.217.806h-.482v.634c.938-.024 1.85-.049 2.765-.049M51.023 50.285l3.657-8.765c.457-1.1.836-1.76 2.028-1.76v-.633c-.785 0-1.546.05-2.307.05-.61 0-1.22-.026-1.828-.05v.633c1.067.098 1.37.148 1.345.66-.025.563-.228 1.197-.508 1.88l-2.107 5.033-1.777-4.643c-.43-1.122-.81-1.878-.81-2.27 0-.586.304-.66 1.445-.66v-.633c-.889 0-1.75.05-2.638.05-.838 0-1.7-.026-2.54-.05v.633c.965 0 1.219.026 1.954 1.882l3.452 8.643h.634M62.252 39.54c1.422 0 2.208 1.002 2.208 2.249 0 .29-.076.61-.709.61h-4.416c.303-1.76 1.37-2.858 2.917-2.858m4.365 3.493c.028-.146.028-.295.028-.44-.028-2.591-2.234-3.835-4.292-3.835-1.775 0-5.127 1.419-5.127 6.205 0 1.562.814 5.321 4.85 5.321 2.08 0 3.526-1.267 4.696-2.759l-.356-.34c-.939.902-2.032 1.636-3.426 1.636-2.033 0-3.58-1.903-3.733-4.228-.05-.828-.05-1.194 0-1.414h7.134l.226-.146M71.308 49.871c1.092 0 2.16.025 3.553.049v-.634h-1.42c-.71 0-1.218 0-1.218-.807v-5.74c0-1.465 1.42-2.027 1.852-2.027.889 0 .889.588 1.674.588.712 0 1.195-.588 1.195-1.248 0-.876-.812-1.293-1.447-1.293-1.548 0-2.615 1.563-3.249 2.515h-.051V39.08c0-.249-.076-.321-.228-.321-.228 0-1.245.636-3.095 1.392v.366c.38.195 1.317.343 1.317 1.1v6.862c0 .807-.505.807-1.217.807h-.685v.634c.913-.024 1.98-.049 3.019-.049M78.77 49.455c.892.49 2.085.83 3.098.83 3.023 0 4.366-1.708 4.366-3.318 0-3.836-5.888-2.956-5.888-5.814 0-1.051.964-1.612 1.981-1.612 1.624 0 2.512.88 2.765 2.417h.584l-.178-2.49c-.988-.487-2.079-.71-2.893-.71-2.793 0-3.935 1.758-3.935 3.129 0 3.93 5.533 3.004 5.533 5.884 0 .855-.557 1.734-2.057 1.734-1.85 0-2.865-1.369-3.196-2.979l-.456.12.276 2.809M93.855 30.814c-.636 0-1.244.562-1.244 1.173 0 .634.585 1.222 1.244 1.222.685 0 1.24-.564 1.24-1.222 0-.659-.582-1.173-1.24-1.173m-2.62 19.057c.913 0 1.804.049 2.667.049v-.634h-.43c-.713 0-1.272 0-1.272-.807v-9.378c0-.195-.052-.342-.177-.342a.939.939 0 0 0-.457.123c-.1.073-1.522.537-2.715.878v.39c.937.489 1.318.636 1.318 1.712v6.617c0 .807-.507.807-1.219.807h-.48v.634c.938-.024 1.853-.049 2.766-.049M103.061 40.526v-1.319h-3.783v-2.49h-.303c-1.295 1.98-2.083 2.442-3.403 3.419v.39h1.678v7.473c0 1.442.787 2.27 2.41 2.27 1.372 0 2.488-.78 3.377-1.658l-.381-.368c-.585.491-1.093.71-1.778.71-.686 0-1.6-.44-1.6-2.05v-6.377h3.783M109.708 39.736c1.423 0 2.21 1.001 2.21 2.247 0 .292-.076.61-.712.61h-4.415c.305-1.759 1.37-2.857 2.917-2.857m4.366 3.49c.025-.148.025-.292.025-.438-.025-2.589-2.235-3.834-4.29-3.834-1.777 0-5.127 1.418-5.127 6.202 0 1.563.814 5.326 4.85 5.326 2.08 0 3.526-1.272 4.692-2.759l-.353-.343c-.94.905-2.029 1.636-3.426 1.636-2.028 0-3.581-1.906-3.733-4.226-.048-.827-.048-1.197 0-1.416h7.134l.228-.149M116.46 49.572c.888.491 2.083.832 3.097.832 3.019 0 4.366-1.71 4.366-3.323 0-3.835-5.89-2.953-5.89-5.813 0-1.048.963-1.61 1.979-1.61 1.627 0 2.512.878 2.767 2.417h.586l-.18-2.49c-.989-.49-2.08-.709-2.894-.709-2.792 0-3.935 1.76-3.935 3.127 0 3.932 5.534 3.003 5.534 5.886 0 .853-.556 1.735-2.053 1.735-1.854 0-2.871-1.37-3.201-2.982l-.456.123.28 2.807M130.167 22.798c-.636 0-1.244.564-1.244 1.173 0 .634.584 1.22 1.244 1.22.684 0 1.242-.562 1.242-1.22 0-.66-.583-1.173-1.242-1.173m-1.486 27.15c.91 0 1.802.05 2.665.05v-.635h-.434c-.71 0-1.266 0-1.266-.807v-9.377c0-.194-.054-.341-.179-.341a.932.932 0 0 0-.457.122c-.1.072-1.522.536-2.717.876v.393c.94.49 1.32.636 1.32 1.709v6.618c0 .807-.507.807-1.215.807h-.484v.635c.94-.025 1.852-.05 2.767-.05M8.872 23.014c-.632 0-1.242.561-1.242 1.172 0 .637.585 1.221 1.242 1.221.688 0 1.245-.561 1.245-1.221s-.584-1.172-1.245-1.172M19.558 26.954c-.637 0-1.246.561-1.246 1.171 0 .638.584 1.223 1.246 1.223.683 0 1.24-.561 1.24-1.223 0-.658-.583-1.17-1.24-1.17M20.93 33.222c-1.066 0-2.13-.022-3.199-.05v.637c2.26.07 2.41-.301 2.41 3.705v6.959c0 1.687-.403 4.813-4.618 4.813-3.96 0-4.95-2.81-4.95-5.716v-8.004c0-1.708.966-1.733 2.313-1.757v-.636a169.4 169.4 0 0 1-3.607.05c-1.142 0-2.309-.023-3.503-.05v.636c1.346.024 2.312.05 2.312 1.757v8.615c.075 4.15 2.587 6.104 6.776 6.104 4.467 0 6.624-2.49 6.624-5.812V37.44c0-2.98-.024-3.632 2.006-3.632v-.636c-.863 0-1.702.05-2.564.05M32.186 25.962c2.97 0 5.914-1.766 5.914-4.913 0-5.568-7.75-4.335-7.75-8.836 0-1.77 1.108-3.103 3.02-3.103 1.81 0 2.969.994 3.245 2.688h.58l-.403-3.1c-1.007-.144-2.04-.36-3.068-.36-3.073 0-5.389 1.62-5.389 4.744 0 5.714 7.45 4.385 7.45 8.887 0 1.911-1.508 3.22-3.446 3.22-2.09 0-3.5-1.766-3.927-3.584h-.578l.501 3.536a9.573 9.573 0 0 0 3.85.821M49.83 24.654c-.555 0-.906-.384-.906-1.378v-6.707c0-1.332-1.94-2.035-3.072-2.035-.955 0-1.383.342-2.264.776-1.762.87-2.894 1.476-2.894 2.76 0 .17.075.482.453.482.603 0 1.41-.338 1.41-1.014.048-1.09.804-1.697 1.912-1.697 1.611 0 2.441.728 2.441 2.082v1.6c-5.437 1.792-6.467 2.155-6.567 4.092 0 1.284 1.106 2.347 2.716 2.347 1.564 0 2.695-.749 3.877-1.79.048.873.526 1.79 1.56 1.79 1.005 0 1.786-.676 2.49-1.308l-.225-.408c-.228.265-.604.408-.931.408m-5.688.172c-.983 0-1.785-.799-1.785-1.743 0-1.816 3.269-2.374 4.553-2.856v3.195c-.83.7-1.587 1.404-2.768 1.404M58.114 15.841c1.963 0 4.025 2.18 4.025 4.797 0 2.155-1.132 4.695-3.823 4.695-1.69 0-2.593-1.547-2.593-2.467v-5.884c.68-.559 1.458-1.14 2.391-1.14m-2.594-8.74c-.074 0-.276.12-.552.265-.529.29-1.587.728-2.594 1.04v.389c.957.265 1.334.314 1.334 1.888v10.413a27.2 27.2 0 0 1-.351 4.312l.528.264.755-.557c.654.266 1.635.846 3.497.846 3.6 0 6.015-3.17 6.015-6.342 0-2.638-1.76-5.085-4.68-5.085-1.384 0-2.744.92-3.75 1.744V7.441c0-.195-.048-.339-.202-.339M75.67 24.695c-.555 0-.907-.386-.907-1.38v-6.706c0-1.333-1.94-2.034-3.071-2.034-.954 0-1.384.337-2.264.775-1.762.87-2.893 1.476-2.893 2.76 0 .17.077.485.453.485.605 0 1.407-.341 1.407-1.02.053-1.089.807-1.694 1.913-1.694 1.61 0 2.44.728 2.44 2.082v1.6c-5.433 1.793-6.466 2.154-6.566 4.092 0 1.284 1.106 2.348 2.716 2.348 1.561 0 2.696-.752 3.876-1.792.049.87.528 1.792 1.561 1.792 1.008 0 1.788-.677 2.493-1.308l-.228-.409c-.227.265-.604.409-.93.409m-5.689.17c-.981 0-1.785-.798-1.785-1.743 0-1.815 3.272-2.373 4.553-2.857v3.196c-.83.702-1.583 1.404-2.768 1.404M78.955 24.97H78.5v.63a99.703 99.703 0 0 1 2.72-.047c.904 0 1.784.048 2.664.048v-.632h-.45c-.705 0-1.258 0-1.258-.798v-7.168c.828-.53 2.111-1.162 2.916-1.162 1.437 0 2.318.68 2.318 2.058v6.272c0 .798-.506.798-1.208.798h-.454v.632a99.49 99.49 0 0 1 2.718-.048c.905 0 1.787.048 2.668.048v-.632h-.455c-.705 0-1.258 0-1.258-.798v-6.248c0-1.887-.753-3.388-2.892-3.388-1.686 0-2.92.823-4.353 1.816v-1.574c0-.192-.076-.242-.153-.242-1.207.508-2.24.823-3.32 1.162v.46c1.183.462 1.459.703 1.459 1.598v6.416c0 .798-.506.798-1.207.798M98.855 24.171c-2.741 0-4.402-2.2-4.402-4.697 0-1.84 1.132-4.165 3.296-4.165 2.365 0 2.315 1.962 3.37 1.962.605 0 .958-.508.958-1.067 0-1.282-2.112-1.669-3.395-1.669-3.625 0-6.244 2.905-6.244 6.417 0 2.566 2.39 5.01 5.008 5.01 1.99 0 3.674-1.136 4.909-2.516l-.429-.413c-.956.703-1.787 1.138-3.071 1.138M106.711 25.553c.906 0 1.787.047 2.644.047v-.63h-.427c-.707 0-1.26 0-1.26-.798v-9.296c0-.197-.051-.342-.178-.342a.914.914 0 0 0-.452.12c-.1.074-1.509.536-2.693.873v.389c.931.483 1.309.628 1.309 1.694v6.562c0 .798-.503.798-1.209.798h-.476v.63c.93-.024 1.836-.047 2.742-.047"/>
    </g>
</svg>
