<svg version="1.1" id="Layer_1" xmlns="http://www.w3.org/2000/svg" xmlns:xlink="http://www.w3.org/1999/xlink" x="0px" y="0px" viewBox="0 0 219.5 85.3" style="enable-background:new 0 0 219.5 85.3;" xml:space="preserve">
 <g id="ritz-brand-lock-up">
  <g id="ritz-brand-text">
   <g>
    <g>
     <path d="M217.1,80.8l-7.1-8.2h-4.8v0.6c1.5,0,1.6,0.2,1.6,1.4v6.9c0,2.5-0.5,2.7-1.7,2.7v0.6h4.4v-0.6c-1.4,0-1.9-0.3-1.9-1.7
					v-8l9.6,10.8h0.7V75c0-1.5,0.8-1.7,1.6-1.7v-0.6h-4.4v0.6c1.1,0,2,0.2,2,1.6V80.8">
     </path>
     <path d="M196,72.3c-3.3,0-6.7,2.1-6.7,6.4c0,4.3,3.4,6.4,6.7,6.4c3.3,0,6.7-2.1,6.7-6.4S199.3,72.3,196,72.3 M196,84.7
					c-2.3,0-3.3-2.1-3.3-5.9s1.1-5.9,3.3-5.9c2.3,0,3.3,2.1,3.3,5.9S198.3,84.7,196,84.7z">
     </path>
    </g>
   </g>
   <g>
    <path d="M179.8,83.2c0,0.9-0.3,1-1.6,1v0.6h6.1v-0.6c-1.3,0-1.6-0.1-1.6-1v-9.4c0-0.5,0.2-0.6,0.6-0.6c1.1,0,2.8,1,3.8,2.8
				l0.5-0.2l-0.7-3.6h-0.5c-0.3,0.2-0.8,0.3-1.2,0.3h-8.1c-0.2,0-0.4,0-0.6-0.1c-0.2-0.1-0.4-0.1-0.5-0.2h-0.5l-0.7,3.6l0.5,0.2
				c1-1.9,2.8-2.8,3.8-2.8c0.4,0,0.6,0.2,0.6,0.6L179.8,83.2 M165.1,83.2c0,0.9-0.3,1-1.6,1v0.6h11.6l0.9-3.6h-0.5
				c-1.7,2.5-2.8,2.9-5.7,2.9c-1.4,0-1.6-0.2-1.6-0.9v-9.1c0-0.9,0.3-1,1.6-1v-0.6h-6.1v0.6c1.3,0,1.6,0.1,1.6,1L165.1,83.2">
    </path>
    <path d="M159.8,83l-2-3.2c-0.5-0.8-1-1.1-1.6-1.1v0c2-0.1,3.2-1.1,3.2-2.7c0-1.6-1.4-3.4-5.4-3.4h-6.1v0.6c1.3,0,1.6,0.1,1.6,1v9
				c0,0.9-0.3,1-1.6,1v0.6h6.1v-0.6c-1.3,0-1.6-0.1-1.6-1V79c1.3,0,1.7,0.2,2.1,0.8l2.8,5.1h4.2v-0.6
				C160.9,84.2,160.5,84.2,159.8,83 M153.5,78.4h-1.1v-5.1h0.7c2.5,0,3.2,1.5,3.2,2.6C156.3,77.8,155,78.4,153.5,78.4z">
    </path>
   </g>
   <g>
    <g>
     <path d="M144.5,82.9l-5.2-9.9c-0.2-0.4-0.3-0.5-0.4-0.5c-0.2,0-0.5,1-2.1,2c0.2,0.1,0.4,0.3,0.4,0.5c0,0.1,0,0.3-0.2,0.6
					l-3.1,6.4c-0.8,1.6-1.3,2.2-2.4,2.2v0.6h4.4v-0.6c-1.2,0-1.6-0.3-1.6-0.8c0-0.3,0.1-0.8,0.7-1.7h5.6c0.8,1.1,0.9,1.8,0.9,2
					c0,0.4-0.4,0.5-1.6,0.5v0.6h6.6v-0.6C145.4,84.2,145.1,84,144.5,82.9 M135.3,81l2.4-5.1l2.5,5.1H135.3z M129,80.7
					c-1.1,2.2-2.7,3.9-4.7,3.9c-1.9,0-3.9-1.4-3.9-5.8c0-4,1.6-5.8,4-5.8c2.2,0,3.6,1.5,4.6,3.3h0.5v-3.8H129
					c-0.2,0.3-0.6,0.5-0.9,0.5c-0.7,0-2.2-0.6-4-0.6c-4.3,0-7.1,2.9-7.1,6.7c0,3.4,2.8,6.2,6.7,6.2c2.2,0,3.8-0.8,4.4-0.8
					c0.4,0,0.7,0.3,0.9,0.8h0.4v-4.5L129,80.7">
     </path>
    </g>
   </g>
   <g>
    <path d="M91.2,84.9h10.7l1.3-3.7h-0.5c-1.8,2.4-2.9,3.1-4.6,3.1h-3l7.7-11.3v-0.3H92.3l-1.1,3.4h0.4c1.4-1.9,2.9-2.8,4.5-2.8h2.8
				l-7.7,11.2L91.2,84.9 M81.8,83.2c0,0.9-0.3,1-1.6,1v0.6h6.1v-0.6c-1.3,0-1.6-0.1-1.6-1v-9.4c0-0.5,0.2-0.6,0.6-0.6
				c1.1,0,2.8,1,3.8,2.8l0.5-0.2L89,72.3h-0.5c-0.3,0.2-0.8,0.3-1.2,0.3h-8.1c-0.2,0-0.4,0-0.6-0.1c-0.2-0.1-0.4-0.1-0.5-0.2h-0.5
				l-0.7,3.6l0.5,0.2c1-1.9,2.8-2.8,3.8-2.8c0.4,0,0.6,0.2,0.6,0.6L81.8,83.2 M70.7,83.2c0,0.9-0.3,1-1.6,1v0.6h6.1v-0.6
				c-1.3,0-1.6-0.1-1.6-1v-9c0-0.9,0.3-1,1.6-1v-0.6h-6.1v0.6c1.3,0,1.6,0.1,1.6,1V83.2">
    </path>
    <path d="M65.7,83l-2-3.2c-0.5-0.8-1-1.1-1.6-1.1v0c2-0.1,3.2-1.1,3.2-2.7c0-1.6-1.4-3.4-5.4-3.4h-6.1v0.6c1.3,0,1.6,0.1,1.6,1v9
				c0,0.9-0.3,1-1.6,1v0.6h6.1v-0.6c-1.3,0-1.6-0.1-1.6-1V79c1.3,0,1.7,0.2,2.1,0.8l2.8,5.1h4.2v-0.6C66.8,84.2,66.5,84.2,65.7,83
				 M59.5,78.4h-1.1v-5.1h0.7c2.5,0,3.2,1.5,3.2,2.6C62.2,77.8,60.9,78.4,59.5,78.4z M34.3,83.2c0,0.9-0.3,1-1.6,1v0.6h11.3l1-3.6
				h-0.5c-1.4,2.3-2.7,2.9-5.2,2.9c-1.6,0-1.9-0.2-1.9-0.7v-4.6h0.8c2.2,0,3.2,0.6,3.6,2.3h0.5v-5.4h-0.5c-0.5,1.8-1.3,2.5-3.6,2.5
				h-0.8V74c0-0.7,0.2-0.8,1.1-0.8c2.7,0,4.1,0.8,5.8,2.7h0.5l-1.2-3.3H32.8v0.6c1.3,0,1.6,0.1,1.6,1V83.2 M25.7,83.2
				c0,0.9-0.3,1-1.6,1v0.6h6.1v-0.6c-1.3,0-1.6-0.1-1.6-1v-9c0-0.9,0.3-1,1.6-1v-0.6h-6.1v0.6c1.3,0,1.6,0.1,1.6,1V78h-6.3v-3.8
				c0-0.9,0.3-1,1.6-1v-0.6h-6.1v0.6c1.3,0,1.6,0.1,1.6,1v9c0,0.9-0.3,1-1.6,1v0.6h6.1v-0.6c-1.3,0-1.6-0.1-1.6-1v-4.4h6.2
				L25.7,83.2 M5,83.2c0,0.9-0.3,1-1.6,1v0.6h6.1v-0.6c-1.3,0-1.6-0.1-1.6-1v-9.4c0-0.5,0.2-0.6,0.6-0.6c1.1,0,2.8,1,3.8,2.8
				l0.5-0.2l-0.7-3.6h-0.5c-0.3,0.2-0.8,0.3-1.2,0.3h-8c-0.2,0-0.4,0-0.6-0.1c-0.2-0.1-0.4-0.1-0.5-0.2H0.7L0,75.9l0.5,0.2
				c1-1.9,2.8-2.8,3.8-2.8c0.4,0,0.6,0.2,0.6,0.6L5,83.2 M107.1,79.6h4.1l1.7-2.5h-4.1L107.1,79.6">
    </path>
   </g>
  </g>
  <g id="ritz-brand-mark">
   <path d="M102.5,49.1c0-0.3,0.7-1,0.9-1c0.1,0,0.8,0.7,0.8,1c0,0.1-0.7,0.9-0.8,0.9C103.2,49.9,102.5,49.2,102.5,49.1 M115.9,49.1
			c0-0.3,0.7-1,0.9-1c0.1,0,0.8,0.7,0.8,1c0,0.1-0.7,0.9-0.8,0.9C116.6,49.9,115.9,49.2,115.9,49.1z M109.2,49.1c0-0.3,0.7-1,0.9-1
			c0.1,0,0.8,0.7,0.8,1c0,0.1-0.7,0.9-0.8,0.9C109.9,49.9,109.2,49.2,109.2,49.1z M101.7,50.4h3.4c0.3,0,0.4-0.2,0.4-0.4v-1.9
			c0-0.3-0.2-0.4-0.4-0.4c-0.7,0-2.3,0.1-3.4,0.2c-0.2,0-0.4,0.1-0.4,0.4v1.9C101.3,50.4,101.5,50.4,101.7,50.4z M99.4,49.3
			c0-0.2,0.5-0.7,0.6-0.7c0.1,0,0.6,0.5,0.6,0.7c0,0.1-0.5,0.7-0.6,0.7C99.9,49.9,99.4,49.4,99.4,49.3z M106.1,49.1
			c0-0.2,0.5-0.7,0.6-0.7s0.6,0.5,0.6,0.7c0,0.1-0.5,0.7-0.6,0.7C106.6,49.8,106.1,49.2,106.1,49.1z M111.7,50.5
			c0.3,0,0.4-0.2,0.4-0.4v-2.1c0-0.3-0.2-0.4-0.4-0.4h-3.3c-0.3,0-0.4,0.2-0.4,0.4v2.1c0,0.3,0.2,0.4,0.4,0.4
			C108.4,50.5,111.7,50.5,111.7,50.5z M118.5,50.4c0.2,0,0.4-0.1,0.4-0.4v-1.9c0-0.3-0.2-0.4-0.4-0.4c-1.1-0.1-2.7-0.2-3.4-0.2
			c-0.3,0-0.4,0.2-0.4,0.4v1.9c0,0.3,0.2,0.4,0.4,0.4L118.5,50.4L118.5,50.4z M120.7,49.3c0,0.1-0.5,0.7-0.6,0.7
			c-0.1,0-0.6-0.6-0.6-0.7c0-0.2,0.5-0.7,0.6-0.7C120.2,48.6,120.7,49.1,120.7,49.3z M114,49.1c0,0.1-0.5,0.7-0.6,0.7
			s-0.6-0.6-0.6-0.7c0-0.2,0.5-0.7,0.6-0.7S114,48.9,114,49.1z M105.2,8.9L105.2,8.9c0.5,1.6,2.4,1.8,2.9,3.7l-0.1,0.1
			c-1-1.4-2.2-1.6-2.8-2.2C105,10.2,105,9.7,105.2,8.9z M108.4,31.1c0,2.7-2.2,3.9-4.6,3.9c3-3.3,0.7-8,3.6-11.2
			C107.2,26.6,108.4,29.2,108.4,31.1z M122.8,38.4c3.2,0,4.8-1.6,4.8-4.2c0-0.9-0.3-1.5-0.3-1.5c-0.9,0.7-1.9,0.9-2.5,0.9
			c-1.3,0-3-0.8-3-2.8c0-2.7,2.8-4.1,2.8-7.1c0-0.9-0.4-1.2-0.4-1.2c1.3-1.7,1.7-3.4,1.7-4.7c0-2.4-1.3-4-1.3-4l1.4,0.7
			c-0.6-2.3-1.9-3.9-1.9-3.9s0.7,0.4,1.1,0.2c-0.7-0.4-1.7-1.6-1.7-4s-0.5-3.6-5-4.4c-0.5-1.1-1.7-2.1-2.3-2.5
			c-1.1,0.5-2.6,1.1-3.1,1.6c0,0-1.3,0.1-1.8,0.1c-0.8,0-1.4-0.3-1.7-0.3c-1.1,0-1.7,1.1-1.7,1.1s-2.2,0-3.9,0.4
			c-0.9,0.2-1.4,0.9-2,2.3l-4.3,2.3c-0.8,0.4-1.3,0.7-1.3,1.4c0,0.4,0.3,1,0.8,1.7c0.4,2.6,0.9,3,1.5,3c0.2,0,0.5-0.1,0.5-0.1
			c0.2,0.2,0.6,0.9,0.7,1.1c-0.7,0.4-1.6-0.4-2.6-0.4c-0.6,0-1.6,0.4-1.6,1.4c0,0.4,0.2,0.4,0.4,0.4c0.3,0,0.5-0.1,1.1-0.1
			c0.8,0,1.4,0.7,2.6,0.7c0.4,0,0.7-0.1,0.9,0c-0.6,0.4-1,0.7-0.8,1.3c0.3,1.1,1.3,2.4,1.8,2.4c0.4,0,1.2-0.3,1.2-0.3l-0.5,0.4
			c-3.5,2.9-2.7,6.2-2.7,9.5c0,2.5-0.7,4.1-2.7,4.1c-1.3,0-3.1-0.8-4.5-2.5c-0.2,0.5-0.3,1.3-0.3,2c0,3,2.8,5,5.5,5
			c2.4,0,4.2-0.7,5.9-2.1c4.9-0.1,6.5-3.4,6.5-3.4c2.3,3.4,6.7,3.1,7.4,3.1C118.9,37.8,121.1,38.4,122.8,38.4z M123.1,20.1
			c0,3.6-4.7,4.1-4.7,7.6c0,1.4,0.4,2.3,0.2,3.2c0,0,1-1.1,1.1-1.8c0,2.7,1.4,5.8,4.9,5.8c0.5,0,1.3-0.1,2-0.5c0,0-0.2,2.5-3,2.5
			c-3.6,0-6.9-3-6.9-8.6c0-1.1,0.2-2.2,0.8-3.1c0,0-1.7,1-1.9,4c0,0-0.7-1.1-0.7-2.3C114.8,22.4,120.1,24,123.1,20.1L123.1,20.1z
			 M119.1,3.8c3.2,0.7,2.8,2.8,3.4,4.3c-1.4-1.7-3.2-2.8-3.2-2.8C119.4,4.3,119.1,3.8,119.1,3.8z M99.7,12.4
			c0.2-0.1,0.8-0.2,0.8-0.2c0.2,0.4,0.2,1,0.1,1.5C99.8,13.7,99.5,12.9,99.7,12.4z M101.5,15c-0.4,0.5-0.6,1.2-1.6,1.2
			s-1.9-0.8-2.6-0.8c-0.4,0-0.5,0.1-0.7,0.1c-0.2,0-0.3-0.1-0.3-0.2c0-0.3,0.4-0.5,0.9-0.5c0.5,0,1,0.3,1.7,0.4
			c1.1,0.4,1.8-0.6,2.2-1c0.5-0.4,1-0.5,1.4-0.5c0.9,0,1.5,0.4,1.5,0.4c-0.4,0-1.4,0.4-2.1,0.9C101.7,15,101.6,14.9,101.5,15z
			 M102.5,16.1c-0.4,0.4-0.7,0.4-0.9,0.4c-0.2-0.4,0-1.1,0-1.1C102,15.4,102.5,15.7,102.5,16.1z M96.9,35.2c4.1,0,4-4.7,4-6.2
			c0-7,2.1-8.7,6.9-11c3.6-1.7,6.9-2.4,6.9-5.9c0-1.2-0.4-2.5-1.7-2.5c0,0,0.5,0.5,0.5,1.4c0,0.4-0.1,0.7-0.3,1.1
			c0-0.4-0.1-0.8-0.4-1.1c-0.4,0.7-0.4,1.7-0.6,2.1c0,0-0.2,0.4-1.4,1.1c0,0-0.2,0.2,0.4,0.2c0,0,1.5,0,2-0.6
			c-0.4,1.2-1,1.6-1.7,1.6c-0.4,0-1.1-0.1-1.7-0.1c-1.1,0-3.5,0.5-4.4,2.1c-0.7,1.1-2.7,2.1-3.4,2.1c-0.6,0-1.5-1.4-1.5-2
			c0-0.7,1.2-0.3,2.1-1.2c1.6-1.6,2.1-1.9,3.8-1.9c0,0,1,0,0.1-0.9l-2.7-2.5c-0.4-0.4-0.6-0.5-1-0.5c-0.2,0-0.5,0.1-1.3,0.8
			c-1.6,0.2-2.1,0.4-2.6,0.7c-0.3,0.2-0.4,0.4-0.6,0.4c-0.3,0-0.6-1.4-0.6-1.6c0-0.7,0.8-1.1,0.8-1.6c0-0.3-0.3-0.4-0.3-0.4
			l-1.1,0.5c0,0-0.6-0.7,0.1-1.1c0,0,1.7-1,5-2.5c0.2,1,0.4,1.1,1.2,1.1l-0.4,0.1L103,7.2c0.3,0.1,0.8,0,1.3-0.2
			c0.4-0.2,1-0.2,1.1-0.3c0.1-0.1,0.4-0.4,0.4-0.4c-0.2,0-0.7,0.1-1.1,0.2c0.5-0.4,0.8-0.6,0.8-0.8c0-0.1-0.1-0.2-0.1-0.2
			c-0.3,0-0.4,0.2-0.7,0.1c-0.2-0.1-0.4-0.3-0.4-0.5c0-0.2,0.2-0.4,0.8-0.4h0.4c0-0.4-0.9-0.5-1.2-0.5c-0.4,0-1.1,0.2-1.6,0.4
			c0,0,0.1-0.7,0.9-1.1c0.4-0.2,2.7-0.4,4.8-0.4c3.1,0,5.4,2.7,5.9,2.7c0.2,0,0.4-0.2,0.1-0.4c-1.1-0.8-1.8-1.4-1.8-2.1
			c0-0.3,0-1.9,3.6-2.5c1.6,1.3,2.1,2.2,2.1,3.1c0,1.5-1.6,1.6-1.8,2.2c4.1,0.3,7.1,5.6,7.1,8.3c0,4.8-4.6,6.8-7.5,7.5
			c4.2-3.1,5.7-6.2,5.7-8.4c0-3.6-3.2-5.6-4-6c1.8,2,2.2,4.1,2.2,5.6c0,3-1.9,4.5-1.9,4.5c0.4-0.7,0.4-1.3,0.4-1.8
			c0-0.4-0.1-0.8-0.1-0.8c-1.6,3.9-5.4,6.6-5.7,9.9c-0.3-0.8-0.4-1.6-0.4-2.2c0-2.8,1.7-4.5,1.7-4.5c-3.4,2.3-4.2,5-4.2,7.1
			s0.9,3.6,0.9,3.6c-0.2-0.8-0.1-2.1,0.1-3.1c0.4,2.9,1.8,6.6,5.9,8.9c-7.1,0-10-8.5-7.1-13.9c-4.9,1.3-5.5,6.4-5.6,9.3
			c-0.4-1.6-0.4-2.8-0.4-3.7c0-5.3,4.4-6.7,7.7-8.1c4.8-2.1,6.8-3.9,6.8-7c0-3.3-3.9-5.4-6.8-4.8l1.1,1.1c0.2,0.2,0.4,0.4,0.4,0.4
			c3,1.6,3.5,3.3,3.5,4.3c0,2.8-3.1,4.3-5.4,5.2c-7.3,3.1-8.6,4.5-8.6,9c0,3.3,1,8.5-2.5,8.9c0.3,0.4,1.5,0.6,1.5,0.6
			c-1.1,0.9-2.1,1.1-3.5,1.1c-1.2,0-3.6-0.4-4.3-2.9C94.5,34.6,95.5,35.2,96.9,35.2L96.9,35.2z M115.9,5.3l0.3,0.2
			c0,0,1.6-0.7,1.6-1.8c0,0,0-0.6-0.4-1c-0.2,0-0.2,0.4-0.2,0.5c0,0.4-0.3,0.6-0.7,0.6c-0.4,0-1-0.4-1-1s0.3-0.9,0.3-1.1
			c0,0,0-0.1-0.1-0.1c-1.4,0.5-1.5,1.1-1.5,1.6C114.2,3.9,114.5,4.5,115.9,5.3L115.9,5.3z M99.2,8.8c0.1,0.2,0.4,0.4,0.5,0.4
			c0.4-0.4,0.7-0.8,0.7-1.2C99.9,8,99.2,8.2,99.2,8.8z M127.3,37.6l-0.3-0.1c-0.4,0.5-1.6,1.6-3.4,1.6l-0.1,0.2
			c0.8,0.8,0.6,2.5-0.4,2.5c-0.6,0-0.9-0.5-1-1l-0.2-0.1c-0.3,0.2-1,0.7-1.1,0.9c0,0.5,0.1,1.2,0.2,1.6h0.2c0.2-0.4,0.5-0.4,0.7-0.4
			c0.4,0,0.8,0.4,0.8,0.9c0,0.9-0.6,1.6-1.8,1.6c-1.3,0-2.4-0.6-2.4-2c0-0.7,0.4-1.5,1.3-1.9v-0.2c-0.7-0.5-1.3-1.4-1.5-1.8h-0.2
			c-0.3,0.4-1.1,1.1-1.9,1.3V41c0.7,0.7,0.8,1.4,0.8,1.8c0,1.1-1,1.8-2.9,1.8c-1.5,0-2.9-0.4-2.9-1.9c0-0.8,0.5-1.2,1.1-1.2
			c0.4,0,1,0.2,1.3,0.7h0.2c0.4-0.4,0.5-0.7,1.1-1.2v-0.2c-0.3-0.2-0.7-0.7-1.1-1.3h-0.2c-0.6,0.7-1.1,0.8-1.6,0.8
			c-0.4,0-0.9-0.2-0.9-0.8c0-0.8,1-1.1,1.7-1.4V38c-1.3-0.5-2.5-1.9-2.8-2.8h-0.2c-0.3,0.9-1.5,2.2-2.8,2.8v0.2
			c0.8,0.3,1.7,0.6,1.7,1.4c0,0.6-0.5,0.8-0.9,0.8c-0.5,0-1-0.1-1.6-0.8h-0.2c-0.4,0.6-0.9,1.1-1.1,1.3V41c0.6,0.5,0.8,0.8,1.1,1.2
			h0.2c0.4-0.5,0.9-0.7,1.3-0.7c0.6,0,1.1,0.4,1.1,1.2c0,1.5-1.5,1.9-2.9,1.9c-2,0-2.9-0.7-2.9-1.8c0-0.4,0.1-1.1,0.8-1.8v-0.1
			c-0.8-0.2-1.6-1-1.9-1.3h-0.2c-0.2,0.4-0.8,1.3-1.5,1.8v0.2c1,0.4,1.3,1.2,1.3,1.9c0,1.4-1.1,2-2.4,2c-1.2,0-1.8-0.8-1.8-1.6
			c0-0.5,0.4-0.9,0.8-0.9c0.2,0,0.5,0.1,0.7,0.4h0.2c0.1-0.4,0.2-1.1,0.2-1.6c-0.2-0.2-0.9-0.7-1.1-0.9L97.7,41c-0.1,0.4-0.4,1-1,1
			c-1,0-1.1-1.7-0.4-2.5l-0.1-0.2c-1.8,0-3-1.1-3.4-1.6l0,0l3.6,8.3c0,0-0.8,0.4-0.6,1c0.4,1.2,1.4,2.8,1.4,4.7
			c0,0.8-0.1,0.9-0.1,1.2c0,0.4,0.3,0.5,0.6,0.5h24.6c0.4,0,0.6-0.2,0.6-0.5c0-0.4-0.1-0.4-0.1-1.2c0-1.9,1.1-3.5,1.4-4.7
			c0.2-0.6-0.6-1-0.6-1L127.3,37.6L127.3,37.6z M110,51.3c-6.8,0-11.3-0.1-11.3-0.1l-1-3.6c0,0,6.1-0.9,12.2-0.9
			c6,0,12.2,0.9,12.2,0.9l-1,3.6C121.3,51.2,116.8,51.3,110,51.3z">
   </path>
  </g>
 </g>
</svg>