<?xml version="1.0" encoding="UTF-8"?>
<svg id="Layer_1" data-name="Layer 1" xmlns="http://www.w3.org/2000/svg" xmlns:xlink="http://www.w3.org/1999/xlink" viewBox="0 0 1080.55 301.89">
  <defs>
    <style>
      .cls-1 {
        fill: none;
      }

      .cls-2 {
        fill: url(#linear-gradient-8);
      }

      .cls-3 {
        fill: url(#linear-gradient-7);
      }

      .cls-4 {
        fill: url(#linear-gradient-5);
      }

      .cls-5 {
        fill: url(#linear-gradient-6);
      }

      .cls-6 {
        fill: url(#linear-gradient-9);
      }

      .cls-7 {
        fill: url(#linear-gradient-4);
      }

      .cls-8 {
        fill: url(#linear-gradient-3);
      }

      .cls-9 {
        fill: url(#linear-gradient-2);
      }

      .cls-10 {
        fill: url(#linear-gradient);
      }

      .cls-11 {
        fill: #009247;
      }

      .cls-12 {
        fill-rule: evenodd;
      }

      .cls-12, .cls-13 {
        fill: #005088;
      }

      .cls-14 {
        fill: url(#linear-gradient-10);
      }

      .cls-15 {
        fill: url(#linear-gradient-11);
      }

      .cls-16 {
        fill: url(#linear-gradient-12);
      }

      .cls-17 {
        fill: url(#linear-gradient-13);
      }

      .cls-18 {
        clip-path: url(#clippath);
      }
    </style>
    <clipPath id="clippath">
      <polygon class="cls-1" points="67.08 235.98 181.39 65.91 295.69 235.98 67.08 235.98"/>
    </clipPath>
    <linearGradient id="linear-gradient" x1="731.67" y1="164.27" x2="870.84" y2="164.27" gradientTransform="translate(0 303.28) scale(1 -1)" gradientUnits="userSpaceOnUse">
      <stop offset=".03" stop-color="#009247"/>
      <stop offset=".25" stop-color="#009247"/>
      <stop offset=".37" stop-color="#074"/>
      <stop offset=".66" stop-color="#003d3e"/>
      <stop offset=".87" stop-color="#00193a"/>
      <stop offset=".98" stop-color="#000c39"/>
    </linearGradient>
    <linearGradient id="linear-gradient-2" x1="730.47" y1="203.44" x2="822.59" y2="203.44" gradientTransform="translate(0 303.28) scale(1 -1)" gradientUnits="userSpaceOnUse">
      <stop offset=".03" stop-color="#009247"/>
      <stop offset=".25" stop-color="#009247"/>
    </linearGradient>
    <linearGradient id="linear-gradient-3" x1="718.89" y1="156.01" x2="802.3" y2="71.67" gradientTransform="translate(0 303.28) scale(1 -1)" gradientUnits="userSpaceOnUse">
      <stop offset="0" stop-color="#005088"/>
      <stop offset=".18" stop-color="#005088"/>
      <stop offset=".55" stop-color="#005088"/>
      <stop offset=".98" stop-color="#000c39"/>
    </linearGradient>
    <linearGradient id="linear-gradient-4" x1="863.87" y1="200.62" x2="717.89" y2="54.64" gradientTransform="translate(0 303.28) scale(1 -1)" gradientUnits="userSpaceOnUse">
      <stop offset="0" stop-color="#ed145b"/>
      <stop offset=".18" stop-color="#f48594"/>
      <stop offset=".55" stop-color="#da1d52"/>
      <stop offset=".98" stop-color="#850b2c"/>
    </linearGradient>
    <linearGradient id="linear-gradient-5" x1="801.39" y1="215.21" x2="801.39" y2="154.36" gradientTransform="translate(0 303.28) scale(1 -1)" gradientUnits="userSpaceOnUse">
      <stop offset="0" stop-color="#0095da"/>
      <stop offset=".18" stop-color="#00b9f2"/>
      <stop offset=".55" stop-color="#0066b3"/>
      <stop offset=".98" stop-color="#003565"/>
    </linearGradient>
    <linearGradient id="linear-gradient-6" x1="863" y1="201.48" x2="717.03" y2="55.51" gradientTransform="translate(0 303.28) scale(1 -1)" gradientUnits="userSpaceOnUse">
      <stop offset="0" stop-color="#ed145b"/>
      <stop offset=".18" stop-color="#f48594"/>
      <stop offset=".55" stop-color="#da1d52"/>
      <stop offset=".98" stop-color="#850b2c"/>
    </linearGradient>
    <linearGradient id="linear-gradient-7" x1="802.65" y1="215.21" x2="802.65" y2="154.36" gradientTransform="translate(0 303.28) scale(1 -1)" gradientUnits="userSpaceOnUse">
      <stop offset="0" stop-color="#0095da"/>
      <stop offset=".18" stop-color="#00b9f2"/>
      <stop offset=".55" stop-color="#0066b3"/>
      <stop offset=".98" stop-color="#003565"/>
    </linearGradient>
    <linearGradient id="linear-gradient-8" x1="863" y1="201.48" x2="717.03" y2="55.51" gradientTransform="translate(0 303.28) scale(1 -1)" gradientUnits="userSpaceOnUse">
      <stop offset="0" stop-color="#ed145b"/>
      <stop offset=".18" stop-color="#f48594"/>
      <stop offset=".55" stop-color="#da1d52"/>
      <stop offset=".98" stop-color="#850b2c"/>
    </linearGradient>
    <linearGradient id="linear-gradient-9" x1="802.65" y1="215.21" x2="802.65" y2="154.36" gradientTransform="translate(0 303.28) scale(1 -1)" gradientUnits="userSpaceOnUse">
      <stop offset="0" stop-color="#0095da"/>
      <stop offset=".18" stop-color="#00b9f2"/>
      <stop offset=".55" stop-color="#0066b3"/>
      <stop offset=".98" stop-color="#003565"/>
    </linearGradient>
    <linearGradient id="linear-gradient-10" x1="858.07" y1="206.4" x2="712.09" y2="60.43" gradientTransform="translate(0 303.28) scale(1 -1)" gradientUnits="userSpaceOnUse">
      <stop offset="0" stop-color="#ed145b"/>
      <stop offset=".18" stop-color="#f48594"/>
      <stop offset=".55" stop-color="#da1d52"/>
      <stop offset=".98" stop-color="#850b2c"/>
    </linearGradient>
    <linearGradient id="linear-gradient-11" x1="817.19" y1="215.21" x2="817.19" y2="154.36" gradientTransform="translate(0 303.28) scale(1 -1)" gradientUnits="userSpaceOnUse">
      <stop offset="0" stop-color="#0095da"/>
      <stop offset=".18" stop-color="#00b9f2"/>
      <stop offset=".55" stop-color="#0066b3"/>
      <stop offset=".98" stop-color="#003565"/>
    </linearGradient>
    <linearGradient id="linear-gradient-12" x1="873.64" y1="80.65" x2="873.64" y2="165.76" gradientTransform="translate(0 303.28) scale(1 -1)" gradientUnits="userSpaceOnUse">
      <stop offset="0" stop-color="#005088"/>
      <stop offset=".18" stop-color="#005088"/>
      <stop offset=".55" stop-color="#005088"/>
      <stop offset=".98" stop-color="#000c39"/>
    </linearGradient>
    <linearGradient id="linear-gradient-13" x1="877.41" y1="187.08" x2="731.43" y2="41.1" gradientTransform="translate(0 303.28) scale(1 -1)" gradientUnits="userSpaceOnUse">
      <stop offset="0" stop-color="#005088"/>
      <stop offset=".18" stop-color="#005088"/>
      <stop offset=".55" stop-color="#005088"/>
      <stop offset=".98" stop-color="#000c39"/>
    </linearGradient>
  </defs>
  <g>
    <g>
      <g>
        <path class="cls-11" d="M237.97,201.83c.07,0,.2-.1.15-.16-.1-.11-.27-.12-.42-.14-.02,0,.03.07,0,.07-.05.02-.11.04-.17.06.16.06.33.17.43.16"/>
        <path class="cls-11" d="M238.59,178.85s0-.07-.02-.07c-.14.09-.65.17-.52.7.02.05.11.16.15.21.07.08.09.07.16.16,0,0,.02.52.22.6.14.05.2-.28.19-.44,0-.1-.2-.09-.23-.18-.02-.05.11-.04.14-.09.04-.06-.13-.21-.18-.31-.01-.02,0-.05,0-.08.02-.18.08-.32.1-.5"/>
        <path class="cls-11" d="M225.57,175.05c.21.04.41-.15.61-.22,0,0,.41.03.35-.08-.12-.25-.87-.14-.99-.04-.08.07-.08.32.02.34"/>
        <path class="cls-11" d="M238.84,180.41c-.35.28-.2.57,0,.76.16.16.6.1.9.14.06.01.5.03.27-.14-.1-.07-.24-.04-.35-.08-.14-.05-.28-.12-.4-.19-.15-.09-.33-.27-.39-.44-.01-.03-.01-.04-.04-.04"/>
        <path class="cls-11" d="M220.76,181.28s-.16-.05-.16.02c-.02.13.19.27.11.38-.07.1-.23-.11-.35-.07-.1.03-.16.16-.24.25-.12.13-.26.24-.35.39-.02.03.1-.03.11.01.02.1-.58.58-.58.59-.04.05,0,.13,0,.2v.06c-.08.08-.19.12-.25.21-.02.02.08.05.05.05-.02,0-.18-.14-.15.03,0,.04.07.06.06.1,0,.07-.02.16-.08.22-.03.03-.16-.03-.14,0,.07.1.18.18.3.22.07.03.19-.09.22-.01.09.23-.4.4-.44.43-.11.07.15.31.27.27.22-.08.29-.37.48-.52.03-.02.04.11.07.09.08-.04.09-.16.16-.22.02-.02.02.07.04.05.11-.05.21-.15.31-.23.24-.17.44-.4.7-.52.05-.03.02.2.06.16.08-.08.01-.26.09-.33.06-.05.14.13.19.09.12-.08.1-.3.22-.38.12-.07.27.03.41,0,.04,0,.05-.09.08-.08.06.01.05.16.1.15.15-.04.24-.23.38-.28.04-.02.03.06.04.1.04.07.08.13.11.2,0,0,.27,0,.39-.05.15-.06.26-.19.41-.27.01-.01.04.02.06.01.05-.03.07-.09.12-.11.07-.02.15.05.22.02.11-.08.11-.34.24-.34,1.02.07.4.59,1.11.37.16-.05.29-.18.45-.22.03-.01.05.06.09.06.13-.02.45-.02.36-.11-.24-.23-.66-.18-.91-.41-.11-.1.3.05.43-.02.07-.04-.04-.2.02-.25.12-.07.24-.05.33-.03.04.28.07.57.22.49.06-.03.09-.19.15-.16.06.04-.12.1-.11.18,0,.05.1.07.13.03.08-.1.53-.7.19-.93-.07-.04-.15.1-.23.07-.04-.02.08-.07.09-.11.06-.16,0-.4.12-.49.11-.08.27.11.4.12.05,0,.1-.14.14-.09.03.03-.04.71.34.29.11-.13,0-.4.14-.49.11-.08.29.28.37.16s-.3-.26-.22-.39.33.13.44.03c.12-.1.04-.32.06-.47,0-.05-.02-.16.02-.15.14,0,.26.14.41.17.04,0,.1-.03.09-.07-.03-.14-.23-.24-.19-.37.04-.1.72-.55.92-.68.17-.06.33-.11.49-.17.09-.03.33-.05.26-.09-.21-.11-.46-.11-.69-.13-.06,0-.1.05-.15.06-.04.01-.15.06-.12.04.21-.12.81-.22.22-.52-.1-.06-.27.09-.33,0-.05-.08.16-.12.25-.11.14.01.26.13.4.15.1.01.24.03.32-.05.05-.05.03-.19-.04-.22-.03-.01-.06-.02-.1-.03.04,0,.12.02.11-.02-.2-.4-.46-.17-.82-.14-.11.01-.17-.2-.28-.19-.16.02-.27.22-.42.25-.59.1,0-.37-.29-.5-.12-.05-.2.2-.33.2-.11,0-.15-.21-.26-.23-.88-.2-.39,0-.86.2-.4.17-.11-.23-.64-.21-.38.01-.52.33-.52.33.05.05.15.03.18.09.02.04-.06.08-.1.07-.11-.04-.18-.21-.31-.22-.13,0-.21.13-.31.2-.05.04-.18.05-.16.12.1.38.45.08.17.51-.29.45-.14.1-.41.33-.11.09-.18.22-.29.31-.09.07-.21.1-.31.16-.09.05-.19.09-.27.17-.02.02.04.07.02.08-.22.11-.52.08-.7.27-.11.11.42-.16.45,0,.11.42-.38.37-.53.5-.08.07-.16.14-.21.24h.01c-.1,0-.2-.05-.28.01-.06.05.19.13.14.18-.19.19-.44.32-.7.38-.11.03-.24-.22-.32-.13-.1.1.16.33.06.42-.09.08-.08-.25-.18-.31-.05-.03-.03.13-.08.15-.11.05-.31-.07-.35.04-.04.14.37.29.24.35-.13.07-.18-.31-.33-.31-.14,0-.18.23-.3.33,0,0-.02,0-.03.01M222.9,180.14s.03,0,.02,0h-.02M229.61,177.48c.11.02.2.1.31.13-.18-.05-.39-.01-.56-.08-.09-.03.16-.06.25-.05"/>
        <path class="cls-11" d="M224.9,175.45s-.06.01-.09.02c-.19.04-.38.08-.57.1-.02,0-.09-.01-.07-.02.14-.05.29-.05.43-.09.19-.07.41-.23.57-.34,0,0,.16-.14.14-.22,0-.06-.1.06-.16.08-.12.03-.26,0-.38.04-.13.04-.23.15-.35.21-.12.07-.48.29-.39.17.13-.17.39-.19.53-.34.07-.09-.21.04-.31.08-.14.06-.28.15-.43.2-.08.04-.2,0-.27.06-.14.1-.2.28-.33.39-.11.08-.25.09-.38.15-.08.05-.3.09-.24.18.16.22.59-.1.71-.17.5-.26,1.08-.2,1.57-.49"/>
        <path class="cls-11" d="M218.4,181.05s.12-.01.17-.03c.34-.13.56-.49.8-.77.14-.16.16-.12.34-.28.12-.11.2-.35.34-.32.14.03.18.28.12.42-.06.15-.28.14-.41.23-.06.04-.07.1-.12.15-.04.04-.19.11-.13.11.25.01.69-.3.87-.35.03-.01.02.12.04.09.1-.13.12-.3.22-.44.1-.15.29-.24.36-.42.03-.06-.22.13-.21.06.02-.11.15-.14.23-.21,0,0,.12-.28.25-.34.09-.04.19.18.27.13.09-.06-.02-.25.04-.33.14-.17.72.33.67-.28-.01-.16-.56.15-.45.04.21-.19.54-.18.77-.34.08-.06-.22.06-.3,0-.05-.04.05-.13.1-.18.13-.1.29-.18.44-.23.03-.02.06.06.09.05.1-.05.29-.13.25-.24-.04-.14-.46-.04-.37-.15.13-.18.41-.1.62-.17.1-.03.28-.02.28-.13,0-.12-.17-.17-.29-.19-.36-.05-.51.22-.85.28-.04,0-.06-.1-.03-.11.28-.12.59-.19.89-.24.12-.02.48.07.37.02-.4-.22-.71-.17-1.1-.01-.16.07-.39.08-.47.24-.06.12-.07.28-.15.39-.09.12-.39.13-.34.27,0,.02.02.02.03.03-.04-.02-.14.1-.1.08.04-.01.07-.05.1-.08.1.05.39-.17.4-.03.02.2-.91.46-.99.57-.11.13-.13.32-.25.43-.13.14-.29.22-.46.3-.07.03-.2-.03-.25.04-.07.12.04.33-.06.42-.08.08-.21-.03-.31-.06-.19-.04-.41,0-.56-.14-.07-.07.22-.06.24-.16.01-.08-.12-.19-.19-.15-.11.07-.18.51-.27.64-.14.2-.43.32-.56.54-.06.09-.06.22-.12.31-.05.09-.16.14-.21.23-.07.13-.21.3-.14.43.07.1.23-.07.34-.1"/>
        <path class="cls-11" d="M224.34,185.08s.09.18.16.24c.13.09.27.19.42.18.29-.03.55-.22.84-.29.06-.01.14.09.2.06.11-.06.14-.2.23-.29.07-.07.23-.07.24-.18.04-.75-.58-.27-.88-.34-.1-.03-.07-.24-.16-.29-.05-.02-.05.13-.1.15-.05.03-.12-.03-.18-.02-.04,0-.06.07-.1.07-.03,0-.03-.09-.05-.07-.07.03-.18.26-.15.18.04-.15.21-.26.21-.41,0-.12-.09-.32-.21-.31-.18.02-.27.17-.42.26-.02,0-.08.1-.07.09.09.09.23.11.34.16.04.02.15.02.12.04-.34.15-1.08.09-.42.77"/>
        <path class="cls-11" d="M226.39,193.74c.07.04.12.16.19.13.09-.04.03-.24.13-.26.13-.03.23.17.36.16.16,0,.26-.2.41-.2.19,0,.36.1.54.15.03,0,.07.07.08.04.07-.13.04-.32.13-.44.34-.44.45.08.6-.58.08-.38-.29-.19-.4-.34-.1-.14-.08-.34-.12-.51-.04-.14-.06-.29-.11-.43-.08-.21-.19-.39-.27-.6-.01-.03.04-.09,0-.12-.11-.12-.26-.2-.4-.28-.07-.04-.2,0-.21-.07-.06-.32,1.16-.21.8-.75-.15-.23-.54,0-.77-.13-.25-.13.6-.19.47-.44-.09-.18-.36-.33-.53-.24-.1.06-.05.33-.15.44-.06.06-.18-.1-.23-.04-.05.07.05.17.05.26,0,.06-.02.13-.05.18-.04.12-.2.22-.17.34.02.08.24-.18.23-.09-.02.19-.43.38-.42.57,0,0,.14.02.13-.07.02-.03.04-.09.06-.12.05-.06.16-.19.2-.12.07.14-.03.32-.02.47.02.16.09.3.11.45.05.26.07.52.14.77,0,.06.15.13.1.14-.22.07-.62-.29-.76.19-.08.29.54.13.09.38-.14.08-.39.01-.44.17-.04.13.23.12.33.19.12.07.21.22.34.23s.29-.29.37-.17c.07.11-.16.25-.29.29-.15.05-.3-.1-.45-.05-.63.22-.33.33-.11.5"/>
        <path class="cls-11" d="M225.69,192.55c.06,0,.15.01.19-.04.15-.24.23-.53.31-.81.02-.08-.05-.15-.05-.23,0-.04.05-.06.07-.09,0,0,.27-.24.3-.4.02-.12-.09-.24-.19-.29-.22-.1-.83.48-.83.48-.23.02-.37-.35-.54-.05-.85,1.47.41-.65.24.61-.02.18-.44.11-.46.3-.01.14.42-.12.43.03,0,.15-.27.14-.41.17-.09.02-.34-.04-.26-.01.4.22.82.35,1.22.35"/>
        <path class="cls-11" d="M212.79,188.74s.02.12.05.1c.11-.09.17-.23.25-.34.02-.03.02-.08.05-.1.06-.05.29-.09.22-.14-.09-.05-.26.2-.29.1v-.02c-.03.06-.06.12-.1.17-.05.09-.15.14-.19.23"/>
        <path class="cls-11" d="M231.16,199.75c.15-.15.22-.38.29-.59-.1.07-.27.06-.32.17-.06.13-.06.51.03.42"/>
        <path class="cls-11" d="M230.98,201.51c.07.05.15.12.23.1.46-.12.42-.35.44-.76,0-.08-.09-.03-.05-.12.02-.07.12-.11.11-.18-.04-.18-.18-.32-.27-.47,0,0-.24.74-.37,1.21,0,.02-.1.21-.08.23"/>
        <path class="cls-11" d="M234.15,202.04c-.15.03-.29.06-.43.1-.04.02-.08.07-.12.06-.23-.07-.21-.32-.5-.13-.09.05-.2.17-.16.25.07.13.25.13.37.19.1.06.19.16.29.21.08.03.17,0,.25.05.16.1.09.39.42.25.32-.14-.04-.42-.02-.54.02-.19.16-.34.24-.51,0,0-.23.04-.34.06"/>
        <path class="cls-11" d="M242.57,202.74c.28.66.51,0,.64-.11.05-.04.16,0,.19-.06.08-.15.07-.34.11-.51,0,0-.17.2-.28.26-.12.07-.29.04-.41.12-.04.03.04.12.01.16-.07.07-.29.04-.26.13"/>
        <path class="cls-11" d="M252.49,203.26c-.94.79.95-1.85.24-.46,0,0-.12.07-.15.14-.05.1,0,.26-.09.33"/>
        <path class="cls-11" d="M249.34,221.23c-.17.18-.39.32-.54.52,0,.02.06,0,.05,0-.15.15-.31.29-.48.43-.02.02.07-.09.04-.07-.1.09-.18.19-.28.28-.22.18-.53.33-.75.53-.14.12-.28.25-.4.4-.07.08-.1.21-.17.29-.03.04-.7.54-.73.56l.94-.56c.75-.54,1.38-1.33,2.13-1.87.12-.08.14-.08.2-.14.13-.14.56-.51.35-.84,0-.01-.32.42-.37.47"/>
        <path class="cls-11" d="M209.12,188.49c.06,0,.09-.08.12-.14.06-.11.08-.24.14-.34.02-.04.11-.12.12-.11.04-.08.08-.17.12-.26,0,.02-.02.04-.02.05t0,0s-.02.04-.02.04c0,.13.19-.17.27-.28.06-.09.09-.14.11-.17v.03c.09.14.23-.22.33-.34.02-.03,0-.12.04-.1.06.04.09.13.13.2.02.02.01.1.03.08.06-.04.41-.5.44-.51.16-.02.31.14.47.11.08,0,.08-.22.16-.19.08.02-.03.23.04.26.1.04.25-.23.29-.12.04.11-.2.13-.24.25-.03.09.14.27.04.3-.13.05-.23-.2-.36-.19-.05,0-.34.45-.28.51.12.11.31,0,.46.04.09.02.21.24.26.15.12-.22.03-.52.07-.77.02-.13.08-.25.13-.37.07-.14.13-.3.24-.42.06-.06.2-.03.24-.12.07-.15-.08-.41.05-.51.1-.07.11.27.23.3.08.02.13-.12.16-.19.05-.1.17-.26.08-.32-.23-.14-.53-.06-.8-.11-.03,0-.1-.04-.07-.06.13-.09.32-.08.44-.2.09-.09,0-.35.12-.35.15,0,.16.3.31.34.12.03.28-.3.35-.18.12.2-.04,1.01.2,1.14.08.05.18,0,.27-.02.07-.02.12-.15.21-.13.24.06.16.25.19.31h-.03c-.11.03-.19.14-.29.21-.19.12-.66.46-.84.55-.04.01.09-.06.07-.1s-.1-.02-.11,0c-.02.06.07.13.05.19-.11.25-.48.31-.23.68.04.06.25-.06.23.02-.05.16-.25.22-.35.37-.03.04-.04.14,0,.16.1.03.2-.02.29-.06.02,0,.04-.03.06-.05-.15-.77.39.08.46-.16.03-.07-.16-.07-.18-.14,0-.05.12.03.16-.02.03-.04-.06-.11-.02-.15.06-.07.25,0,.25-.09,0-.12-.23-.12-.26-.24-.05-.15-.02-.35.06-.47.04-.06.7-.48.85-.62-.03-.01-.06-.03-.1-.05.06-.02.15-.07.33-.19.76-.51.16-.22.33-.77.04-.13.13-.23.21-.34-.1-.25.22-.02.24-.1.04-.16-.12-.31-.1-.47.02-.1.17-.13.2-.23,0-.05-.17.07-.14.02.13-.21.32-.35.46-.54.08-.11.11-.24.18-.36.01-.02-.04.07-.01.07.3,0,.3-.28.49-.48.06-.08.2-.08.24-.17.02-.04-.15-.04-.12-.08.11-.14.3-.17.43-.29.03-.03,0-.09.02-.13.09-.21.64.32.4-.41-.05-.15-.27.11-.4.19-.07.03-.13.1-.21.1-.2,0-.42.02-.58-.09-.09-.07.25,0,.34-.08.13-.09.22-.24.32-.37.01-.02-.02-.05,0-.07.09-.07.21-.1.28-.18.04-.05-.01-.17.04-.2.11-.06.28.05.37-.03.09-.07.05-.24.1-.35.04-.08.12-.14.18-.2.02-.02.06,0,.07-.02.09-.17.14-.39.23-.56.01-.02.04.01.06,0,.07-.09.15-.18.18-.29,0-.04-.07-.03-.1-.01-.13.08-.24.19-.37.27-.14.09-.43.27-.62.35-.04.02-.46.14-.57.25-.37.37-.21.35-.64.65-.19.14-.39.3-.61.37-.09.03-.18-.13-.27-.1-.16.05-.22.26-.36.37-.09.07-.2.14-.29.22-.11.1-.2.23-.31.32-.04.03-.11.01-.16.02-.14.03-.37.44-.33.29.09-.29.27-.32.42-.5.34-.43.59-.67,1.02-.99.11-.09.27-.11.34-.24.07-.12.08-.27.15-.4.02-.04.08-.02.11-.06.07-.06.13-.13.19-.2.08-.1.15-.21.24-.3.23-.24.61-.43.77-.73.03-.05.02-.12.05-.16.02-.03.07-.02.11-.04.2-.12.53-.32.7-.51.02-.02-.11.06-.09.04.14-.11.43-.3.6-.35.26-.07.53-.11.8-.15.02,0,.04.04.06.03.13-.08.26-.18.38-.28.07-.06.12-.13.18-.18.04-.03.16-.1.14-.06-.11.21-.4.35-.41.59,0,.14.28-.03.4-.1.02-.01.04-.04.05-.06h0c.02.05.03.07.05.09-.21.09-.42.2-.65.27-.29.1-.16-.31-.48.3-.06.12-.15.33-.04.4.1.07.18-.16.28-.24.15-.1.3-.19.45-.29,0,0,.13-.18.22-.25.07-.06.16-.1.24-.15h0s-.05.03-.05.06c0,.04.03.01.08-.02.18.22.08-.32.49-.24.11.02-.14.23-.1.34.03.07.14-.04.21-.07.13-.06.23-.15.35-.23.05-.03.09-.08.15-.08.03,0,.02.08.05.08.11,0,.43-.18.5-.26.08-.09.32-.25.22-.31-.14-.08-.3.11-.44.18-.04.02-.07.07-.11.06-.03,0,.06-.08.04-.07-.19,0-.37.08-.55.12-.02,0-.08.02-.06,0,.17-.1.35-.21.53-.29,0,0,.02.05.02.03.03-.06,0-.14.05-.19.08-.07.2-.07.29-.11.12-.05.24-.11.35-.18v-.02s.09-.1.15-.11c.05,0,.09.06.14.05.14-.04.31-.08.4-.2.04-.06-.05-.17-.11-.18-.08-.02-.15.07-.23.1-.17.07-.35.12-.51.21-.02.02.11.02.09.03-.31.07-.61.14-.92.16-.12,0,.2-.09.31-.13.18-.06.29-.06.46-.14.07-.04.29-.15.21-.15-.16.02-.29.16-.44.17-.07,0,.12-.1.18-.15.09-.09.18-.19.28-.26.18-.13.84-.36.87-.43.09-.16-.36-.04-.33-.06.13-.05.26-.08.38-.14.02-.01.02-.05.04-.06.1-.08.39-.24.48-.27.11-.04.24-.03.35-.06.09-.03.17-.1.26-.14,1.06-.46.14.2,1.12-.19.12-.05.21-.19.33-.23.11-.03.22.05.33.02.95-.25-.2.04.62-.25.25-.09.63-.23.89-.25.97-.07,2.07-.54,3.19-.66-2.22.14-3.76.44-5.89,1.16l-.4.14c-.4.14-.85.28-1.24.43-.06.02-.15.2-.21.23-.44.18-.62,0-1.03.18-.07.03-.15.07-.22.11-.32.15-.64.31-.96.47-.07.04-.14.07-.21.11-.32.17-.64.35-.96.54-.06.03-.11.07-.17.1-.32.2-.65.4-.96.61-.04.03-.09.06-.13.09-.32.22-.65.44-.96.68-.03.03-.07.05-.1.08-.32.24-.63.48-.94.74-.03.03-.07.06-.1.08-.3.25-.6.51-.89.77-.04.04-.08.07-.12.11-.28.25-.55.51-.81.78l-.17.17c-.24.24-.47.49-.7.75-.08.09-.16.17-.24.26-.19.22-.39.45-.57.67-.11.13-.22.26-.32.39-.15.18-.29.37-.43.55-.14.18-.28.37-.41.55l-.27.39c-.17.25-.35.5-.51.76-.03.05-.06.11-.1.16-.61.96-1.16,1.96-1.65,3,.04-.07.09-.13.14-.19.03-.03,0,.13.05.12M220.08,177.71c.07-.07.17-.11.25-.17.06-.05.09-.18.17-.18.07.01-.07.13-.12.18-.2.18-.31.24-.37.27.02-.04.04-.08.07-.1M209.73,187.4h0s.01-.03,0,0"/>
        <path class="cls-11" d="M252.1,212.27c-.05-.13,0-.29.03-.43,0-.09.1-.19.06-.28-.03-.06-.13.01-.18.06-.11.12-.15.28-.24.41-.09.12-.2.22-.31.33-.35.36.29-.3-.26.18-.06.05-.09.13-.15.18-.08.07-.2.09-.28.16-.14.14-.22.34-.37.47-.07.06-.18.05-.27.08-.34.11-.69.2-1.02.32-.11.04-.34.28-.32.16.04-.19.3-.25.37-.44.08-.21-.9-.72-.99-.75-.15-.04-.3.09-.46.05-.07-.02-.06-.22-.14-.21-.08.01,0,.27-.06.24-.28-.12-.32-1.01-.61-1.28-.11-.1-.27-.14-.41-.19-.05-.02-.14.03-.16-.02-.08-.15-.08-.33-.12-.5-.05-.2-.14-.4-.17-.61,0-.04.1-.02.09-.05-.03-.1-.16-.14-.2-.24-.03-.07.02-.17-.02-.23-.09-.11-.23-.15-.35-.22-.1-.06-.27-.06-.32-.18-.06-.14.1-.33.04-.48-.06-.13-.26-.12-.36-.23-.35-.37-.16-.32-.36-.59-.17-.24-.17-.05-.36-.45-.02-.05.03-.11.01-.16-.09-.17-.24-.3-.33-.47,0-.02.07-.01.05-.03-.32-.37-.59-.3-.74-.87-.02-.07.13-.07.18-.04.36.19.32,1.02.85.86.1-.03.12-.14.14-.26v.02c.08.07.2-.12.3-.08.15.07.39.47.51.63.08.1.14.2.23.28.03.03.08-.01.1.02.03.04,0,.12.03.16.08.1.19.15.29.24.14.14.27.31.42.44.08.06.2.07.27.15.16.19.32.4.41.64.03.1-.07.2-.06.31.02.14.08.28.16.4.36.54.24.1.77.4.29.17.21.54.54.8.07.05.2,0,.24.09.13.33.11.71.21,1.05.02.05.12.02.14.07.09.16.14.34.18.52,0,.01-.08.5.12.44.74-.22.41-.22.69-.72.05-.09.07.01.1-.02s-.26.29.97-1c.07-.08.19-.09.26-.17.1-.13.13-.32.23-.46.13-.18.28-.34.41-.51.19-.24.44-.4.56-.71.04-.11-.03-.23,0-.33.05-.15.47-.77.55-.85.1-.09.24-.14.3-.26.07-.15,0-.34.07-.49.05-.12.21-.18.27-.3.08-.16.04-.35.09-.52.21-.76.49-1.71.54-2.52.02-.26-.34.15-.89-.16-.23-.13-.27-.84-.47-.66-.07.07-.16.13-.2.22-.04.08,0,.17-.02.26-.05.24-.1.47-.17.71-.04.16-.76.72-.83.74-.44.15-.13-.42-.15-.44-.07-.1-.27-.14-.34-.04-.08.1.23.35.11.38-.34.06-.32-.75-.45-.87-.12-.12-.27-.22-.43-.28-.05-.02-.11.08-.16.05-.12-.11-.15-.3-.26-.43-.11-.12-.31-.15-.38-.3-.03-.08.15-.11.15-.2s-.16-.13-.14-.22c.01-.08.15-.05.21-.09.23-.19.19-.36.5-.44.09-.02.43.41.53.57.06.1.08.26.18.3.14.06.3-.05.45-.03.34.06.5.37.81.08.16-.15.37-.93.55-.87.2.07.17.41.32.57.03.03.37-.14.52-.25.15-.12.23-.3.38-.41.09-.07.21-.09.29-.16.03-.02.68-.79.69-.8.02-.03,0-.07,0-.1.06-.12.15-.22.21-.35.04-.07,0-.21.07-.24.06-.02.08.11.13.15.14.09.29.15.44.23.1.05.2.22.28.15.14-.1.04-.39.17-.49.09-.06.03.24.01.36-.01.07-.03.13-.05.19.13-.31.25-.63.48-.85.12-.11.01.34.04.5.06.35.14.69.23,1.04.01.05,0-.21,0-.16.07.2.1.42.14.63.03.15.03.29.07.44.17.6.21.36.28.8.08.46.13.92.2,1.38,0,.03.02.1.03.08.46-3.15.27-4.43.1-8.13,0-.09-.06-.17-.06-.26-.03-.38-.04-.77-.07-1.15,0-.05.01-.11.02-.18v-.03c.14.17.13.07.12.03-.02-.1-.03-.35-.06-.44-.37-1.76-.75-3.37-1.41-5.04-1.16-2.9-3.19-5.96-5.36-8.33-3.55-3.86-8.32-6.6-13.33-7.7-1.18-.26-2.14-.38-3.17-.46.86.09,1.71.21,2.54.5.15.05.81.2.93.27.1.05.17.17.26.25.26.23.63.28.96.38.03.01.06-.03.09-.02.14.06.26.14.38.23.07.05.11.13.18.17,0,0,.62.15.63.17.03.16-.17.28-.2.44-.01.08.12.13.09.2-.03.06-.2-.08-.17-.04.14.15.4.18.48.37.04.12-.24-.08-.35-.05-.05.01.04.09.08.12.06.06.16.07.22.12.1.08.17.21.27.3.01,0,.03.02.05.03-.4-.25-1.11-.69-1.36-.74-.02,0-1.07,0-.92.32.17.38.52.41.85.44-.02,0-.03.04-.05.06-.08.1.11.18.17.3.05.12.07.26.15.36.11.13.3.18.41.32.02.03-.12.03-.09.05.14.06.28.1.42.14-.08.14-.09.32-.03.47.04.11.2.1.31.12.25.05.52.04.78.12.09.02.15.11.23.16.16.1.37.12.51.26.07.07-.19,0-.28-.03-.04-.01-.91-.52-1.06-.2-.24.5.73.4.74.4.07.12-.25.11-.38.12-.07,0-.54-.34-.58-.36-.06-.04-.25-.09-.2-.04.1.1.26.11.37.22.09.09.1.26.21.34.12.09.29.06.44.11.04.02.08.06.11.09.09.08.42.44.58.41.15-.02.22-.24.37-.26.48-.09.21.25.53.35.06.02.06-.04.01.01-.06.05.04.04-.04.02-.04-.01-.46-.41-.6-.32-.07.05-.06.19-.01.26.1.17.36.16.5.3.55.52.07.07.32.56.03.05.16.07.13.11-.23.31-.53.21-.54.15,0-.11.16-.16.15-.27-.02-.26-.31-.6-.51-.71-.1-.05-.22-.01-.32-.06-.22-.11-.41-.25-.61-.39-.09-.06-.16-.16-.25-.21-.11-.06-.25-.03-.36-.1-.17-.1-.37-.48-.51-.43-.68.24.06.43.14.62.05.1.05.23.13.32.05.06.14.02.2.04.3.15.58.34.88.48-.15.07-.29.15-.45.19-.39.09-.33-.18-.71.11-.18.13.15.16.24.25.07.07.08.18.13.26.04.05.17.1.13.14-.1.09-.27.05-.4.1-.41.15-.16.1-.42.42-.03.03.03-.07.02-.11-.03-.1-.05-.24-.15-.28-.06-.03-.1.09-.14.14-.03.06-.02.13-.04.19-.1.24-.24.47-.33.72-.05.14.04.36-.08.44-.11.07-.3-.02-.35-.15-.05-.11.26-.26.16-.32-.14-.09-.39-.03-.49.11-.19.26.46.49.48.54.1.24-.39.2-.4.21-.05.04.02.14,0,.2-.05.13-.16.23-.2.37-.06.16.42.19.37.36-.06.17-.32.19-.49.22-.05,0,.05-.11.02-.14-.13-.06-.29-.12-.42-.06-.07.03-.02.18.04.23.12.09.32.03.44.13.06.06.09.25.01.27-.2.05-.4-.08-.6-.13-.07-.02-.15-.02-.2-.07-.12-.11-.23-.23-.29-.38-.02-.07.1-.13.07-.2-.06-.1-.36-.11-.28-.2.15-.16.4-.14.61-.18.04,0,.08.02.13.03.03,0,.07.03.08,0,.28-.44.61-.67.15-.93-.1-.05-.2-.05-.3-.08-.34-.1-.66-.31-1.01-.32-.14,0-.28-.02-.41.01-.04.01-.02.11-.06.11-.15-.02-.27-.14-.41-.18-.07-.02-.15.04-.21,0-.13-.1-.18-.29-.3-.4-.05-.05-.14-.02-.21-.03-.1-.02-.2-.08-.3-.07-.92.08.15.15-.64.65-.04.03-.09.03-.14.02,0,.03,0,.06-.08.1-.07.04-.17-.07-.25-.06-.07,0-.15.04-.22.07-.61.31.03.15-.38.82-.04.08-.18-.05-.26,0-.03.02.08.06.08.11-.07.73-.05.22-.43.43-.06.03-.03.14-.08.18-.05.05-.16,0-.18.06-.02.08.12.14.11.22,0,.17-.07.33-.15.49-.54,1.14.19-.68-.38.32-.02.04.11.1.07.12-.36.17-.02-.31-.3.02-.1.11-.36.26-.25.35.13.11.3-.18.46-.18.06,0,.09.14.04.18-.14.08-.32,0-.46.08-.1.04-.13.17-.22.23-.06.04-.15.01-.21.04-.03.01-.02.07-.05.08-.1.03-.23-.05-.3.02-.12.11-.06.37-.19.46-.1.07-.23-.11-.35-.09-.04,0-.04.14,0,.15.15.06.41-.11.47.05.1.31-.47.22-.56.31-.03.02.03.08.06.09.43.04.29-.08.62-.08.04,0,.15.02.11.03-.25.08-.51.12-.77.18-.05,0-.08,0-.06.02.08.11.22.17.35.21.08.03.27-.1.27,0,0,.44-1.11.47-.58.97.21.2.53.21.79.34.03,0,.04.08.06.06.14-.12.24-.28.36-.43.03-.04.04-.1.08-.14.09-.09.21-.13.29-.23.04-.05,0-.27.04-.21.05.11,0,.27.05.38.09.19.29.31.36.5.04.12-.08.25-.06.37.34,1.66.06-.2.4.62.03.08.03.18-.02.24-.02.04-.13-.08-.12-.04,0,.05.01.1.02.15-.03.01-.26.13-.39.18-.05.02-.16-.04-.17.02-.01.11.03.36.13.32.2-.07.28-.34.42-.51.02.14.06.27.12.39.03.06.46,0,.47,0,.11-.12.04-.35.15-.48.15-.18.43-.2.57-.38.06-.08-.04-.2-.03-.3,0-.04.07-.06.06-.11-.01-.09-.11-.16-.11-.25,0-.04.1.04.11,0,.03-.08.02-.17-.02-.25-.04-.08-.26-.09-.21-.17.07-.11.25-.03.36-.09s.24-.12.3-.24c.02-.06-.14.01-.18-.04-.04-.04-.06-.1-.07-.15.01.03.03.06.05.08.07.04.35-.23.36-.24.06-.09-.36-.4-.4-.46-.03-.07-.33-.87-.3-1.02.02-.1.17-.12.23-.2.11-.13.14-.31.26-.42.08-.08.22-.07.3-.16.51-.57.06-.19-.01-.55-.01-.07.11-.1.11-.18,0-.05-.1-.04-.11-.08-.03-.36.46-.35.64-.33.15.02.48.13.42.4-.02.08-.16.04-.2.1-.08.13-.07.3-.13.44-.04.09-.1.16-.17.23-.03.04-.1.03-.11.08-.01.04.06.09.04.13-.06.12-.26.16-.27.3-.01.32.15.62.23.93.02.09.01.2.08.26,0,0,.35.08.46.21.04.05,0,.19.06.18.16-.06.29-.18.44-.26.05-.02.11,0,.15-.02.13-.08.22-.24.36-.31.03-.02.03.1.06.09.11-.01.2-.14.3-.13.27.02.54.06.77.2.1.06-.23.03-.33.07-.09.03-.16.11-.25.14-.44.16-.67.12-1.04.37-.03.02-.02.08-.05.1-.06.04-.16,0-.18.05-.01.05.1.45.19.49.08.04.2-.09.26-.02.07.08-.04.2-.02.29.01.12.17.24.11.33-.42.6-.42-.62-.89-.09-.05.05-.05.15-.06.22-.03.16-.08.34-.06.5.02.24.12.46.18.69.01.05.09.12.05.14-.14.07-.32-.03-.44.05-.09.05,0,.25-.09.3-.23.14-.29-.2-.46-.18-.17.02-.32.12-.48.17-.04.02-.1.01-.13.04-.05.04-.06.14-.12.18-.09.05-.2.05-.29.09-.13.05-.27.1-.39.19-.02.02.05.09.02.08-.22-.13-.39-.38-.64-.44-.09-.02-.07.19-.15.24-.34.19-.58.12-.8-.21-.03-.06.08-.14.04-.19-.04-.06-.17.03-.18-.03-.04-.17-.02-.36.04-.53.02-.05.13.05.16,0,.07-.09.04-.25.11-.33.03-.03.08.09.13.07.2-.1,0-.83-.05-.94-.04-.07-.14.05-.2.1-.07.06-.18.14-.19.24,0,.07.22,0,.18.06-.06.1-.22.06-.3.14-.08.08-.42.49-.36.73.07.26.21.49.28.75.02.07-.07.16-.03.22.08.12.46.22.33.27-.15.05-.26-.27-.42-.24-.1.03.03.29-.07.34-.09.04-.09-.24-.18-.23-.14.02-.16.26-.29.29-.15.03-.29-.15-.44-.12-.12.02-.19.14-.29.21-.02,0-.04.02-.05.03-.04.02-.1-.05-.13,0-.09.13-.09.3-.15.44-.04.09-.13.14-.15.24-.02.07.12.18.05.22-.09.06-.21-.08-.31-.06-.14.04-.23.19-.36.25-.12.05-.3,0-.39.1-.08.11.06.32-.02.43-.1.12-.29.08-.43.16-.09.05-.17.12-.24.19-.03.03-.01.11-.05.11-.15.02-.31.03-.44-.05-.06-.04.05-.18,0-.24-.06-.07-.21-.13-.26-.06-.37.63.67.07-.11.64-.09.07-.21.12-.31.08s-.08-.22-.17-.27c-.02,0-.65.08-.65.12.06.3.3.55.52.76.05.06.27-.24.31.02,0,.05-.12.09-.09.12.08.07.27,0,.31.1.03.1-.18.12-.2.22-.02.08.07.16.1.24.07.21.17.41.2.63.08.62-.04.42-.21.8-.06.15-.08.32-.16.46-.09.16-.36-.03-.54-.04-.05,0-.08.08-.13.06-.09-.02-.13-.14-.22-.16-.13-.03-.26.04-.39.02-.35-.08-.69-.22-1.04-.31,0,0,0,.05-.02.04-.11-.08-.18-.26-.31-.26-1.21.04-.4.35-.49.83-.06.32-.16.63-.22.95,0,.02.03.04.02.06-.08.23-.29.61-.45.77-.02.02-.08-.02-.1,0-.06.12-.13.26-.12.4.05.57.27.91.73,1.19.08.05.2-.07.26,0,.1.09.06.28.13.39.12.18.29.31.43.47h0c.49-.06.98-.14,1.47-.17.04,0,.07.11.1.08.12-.1.15-.29.28-.38s.34.02.46-.09c.09-.06,0-.24.06-.34.08-.12.26-.14.35-.26,0,0-.1-.57-.09-.59.02-.11.12-.18.19-.27.26-.34.38-.57.78-.71.36-.13.3.19.69-.29.1-.12.13-.29.16-.44.02-.14-.13-.36-.01-.44.24-.19.58-.18.88-.21.04,0-.03.09,0,.13.03.05.09.07.14.09.12.05.24.17.35.13.22-.07.38-.28.56-.42.09-.06.23-.04.31-.09.12-.09.17-.32.32-.34.5-.04.68.42.78.79.01.06-.04.14-.01.2.06.13.15.26.27.35.06.05.17.01.24.06.06.04.06.13.1.17.15.16.36.25.51.42.02.03.02.1.06.11.1.02.22-.08.31-.03.1.05.08.23.17.29.1.07.25,0,.34.08.12.09.13.3.25.4.04.04.15-.06.19,0,.15.21.25.45.3.71.03.14-.39.49-.25.61.23.21.37-.15.43-.31.03-.07-.04-.18,0-.24.06-.09.22-.07.28-.16.26-.43-.55-.11-.32-.68.13-.34.26-.39.58-.16.06.05.05.16.1.22.08.09.33.15.21-.15-.2-.53-.84-.51-1.23-.76-.29-.19-.64-.41-.88-.68-.15-.17-.11-.54-.26-.65-.18-.14-.73-.38-.62-.75.08-.29.33-.5.55-.7.04-.03.04.09.08.12.11.08.28.08.37.18.11.12.11.32.21.46.06.09.22.09.25.19.02.06-.19,0-.17.06.36.82,1,.12,1.21.8v.03c.15.05.31.1.45.17.02,0-.05.04-.04.06.15.42.38.8.52,1.23,0,.03-.11,0-.09.02.08.09.21.13.29.22.05.06.05.15.09.22.05.09.13.16.2.23.07.1.11.22.19.3.11.11.23.21.37.26-.07.04-.12.14-.14.34,0,.12.23.11.29.22.07.12-.03.32.07.4.06.06.13-.19.2-.15.1.05.04.29.15.33.08.03.06-.22.14-.23.11,0,.15.21.25.21.07,0-.04-.14-.07-.21-.08-.16-.21-.31-.25-.49-.03-.16.26-.38.36-.37.11.02.16.28.25.22.1-.06.04-.26-.03-.35-.05-.08-.37-.25-.52-.28-.08-.02-.28.05-.25-.03.05-.14.34-.12.36-.27.05-.41-.32-.26-.41-.49-.04-.09-.13-.25-.04-.29.21-.08.53.37.68.24.07-.06-.16-.2-.1-.26.07-.06.31.19.27.1-.07-.15-.29-.17-.36-.31-.03-.05.12,0,.18-.03.1-.03.2-.08.3-.13.05-.03.07-.13.14-.13.14,0,.31,0,.43.11.1.1,0,.37.14.42v.06c.02.26.05.37.09.41.02.08.05.18.12.19.06.01,0-.09-.02-.18.1-.04.23-.16.32.18.02.07-.16.1-.13.17.03.08.27.02.23.09-.08.13-.46.05-.41.2.05.17.37,0,.5.11.06.05-.14.16-.09.21.15.16.37.21.57.29.03.01.13-.05.1-.02-.13.12-.36.15-.41.32-.03.1.23.05.32.01.09-.05.07-.25.16-.25,1.81.02-.82.42.64.36.69-.03,0-.63.53-.61.16,0,.32.01.46.08.13.05.2.33.41.23,1.29-.58-.33,0,.7-.72.1-.07.22.12.32.07.12-.06.1-.38.23-.34.12.04-.02.27-.01.41.02.15.03.31.08.46.01.04.08.04.1.07.29.71.03,1.1-.07,1.98-.02.17.02.65-.17.75-.33.18-.72.14-1.08.2-.14.03-.29,0-.42.07s-.2.23-.32.32c-.05.03-.11,0-.15.03-.03.03-.25.37-.37.37-.47,0-.94-.09-1.4-.14-.07,0-.15-.04-.23-.02-.1.02-.19.14-.29.13-.25-.02-.47-.14-.7-.23-.01,0,0-.02,0-.03-.11-.04-.25.09-.34.02-.08-.06-.04-.23-.13-.29-.15-.09-.33-.11-.5-.12-.14-.02-.74.23-.78.35-.31.94.14.94-.54,1.51-.2.17-.53-.22-.61-.25-.14-.08-.29-.12-.44-.15-.31-.06-.78.05-.99-.29-.09-.14-.04-.38-.18-.47-1.39-.89-.55-.08-1.49-.23-.38-.06-.52-.37-.84-.55-.06-.03-.14.05-.2,0-.56-.46.44-.51.42-.99,0-.11-.38-.5-.36-.57.19-.6.84-.5-.29-.79-.34-.09-.33.18-.61.24-.14.04-.28,0-.42-.01-.1,0-.2.02-.3,0-.12-.03-.22-.12-.34-.12-.05,0-.07.08-.12.1-.15.07-.3.17-.45.16-.26-.02-.51-.18-.77-.22-.36-.06-1.4.06-1.69.26-.08.05-.1.18-.2.21-.13.04-.28-.06-.4-.01-.19.07-.32.26-.52.34-.24.11-.38-.25-.54-.3-.07-.02-.12.12-.19.13-.03,0-.53-.03-.65-.14-.08-.08-.16-.18-.22-.28-.04-.09,0-.5-.29-.19-.18.19-.37.95-.65,1.05-.26.1-.58.06-.8.23-.08.06-.14.14-.21.2-.07.06-.16.07-.22.15-.04.06,0,.16-.04.22-.06.11-.21.17-.24.29-.27.87.16.65-.39,1.23-.21.21-.8.51-1.06.57-.33.07-.36-.2-.55.07-.09.13-.1.3-.21.4-.15.13-.42.09-.52.26-.08.14-.17.28-.23.43-.04.11,0,.25-.08.35-.1.12-.25.17-.38.25-.07.03-.32.04-.2.12.04.02.14-.11.12-.07-.06.16-.17.3-.27.45-.02.03-.06.04-.07.07-.04.07-.05.15-.1.21-.06.06-.16.07-.22.12-.03.03-.02.07-.03.11-.04.17-.12.34-.11.51,0,.07.12.06.16.12.08.1.2.21.19.34,0,.15-.19.24-.2.39,0,.33.28.66.16.97-.07.17-.18.32-.24.49-.11.3.07.36-.23.62-.08.07-.24.01-.31.1-.03.05.11.07.16.12.13.13.26.25.36.4.02.03-.04.05-.05.09-.02.05-.05.11-.05.16s.04.11.07.15.12.03.11.08c-.04.27-.16-.21-.26-.2-.06,0-.05.15,0,.2.14.19.35.3.51.47.05.05-.12-.09-.18-.13-.03-.02-.45-.27-.33,0,.06.13.15.25.27.32.06.04.16-.03.2.03.03.04-.17.06-.13.08.14.07.35-.03.45.09.06.08-.23.08-.23.18,0,.13.15.19.22.3.06.09.09.2.17.29.09.1.23.15.32.26.14.16.25.34.34.52.02.04-.01.1,0,.14.06.18.16.33.21.5,0,.03-.05.05-.03.07.11.11.39.17.39.28,0,.06-.18,0-.15.04.08.11.22.14.33.23.53.4-.03-.02.24.27.91.99-.14-.17.53.42.31.27.83,1.01,1.26,1.07.87.12,1.82.1,2.68.42.04.01.63.13.29.07.33.08.24.1.58.13.16.01.31-.07.48-.08.83-.04,1.66-.05,2.49-.05.29,0,.25.19.55.34.04.02.1-.09.13-.05.17.29-.04.68.47.72.13,0,.22-.2.35-.21.19-.01.35.13.54.16.12.02.26.06.36,0,.06-.03-.12-.15-.07-.18.21-.12.3.31.53.41.11.05.27-.12.36-.04.3.24.07.47.04.71-.02.17.05.35,0,.51-.81,2.35.31-1.93-.6.58-.03.08.1.15.16.21.05.07.08.16.14.22.01,0,.03.01.04.02-.02-.01-.04-.02-.02-.01.16.08.34.11.48.22.07.06-.3-.08-.24-.02.21.2.87.48,1.14.67.28.2-.01.14.25.46.1.11.57.53.6.7.01.08-.23.02-.22.1.02.15.6.4.4.63-.12.14-.3.19-.46.27-.07.03-.16.03-.21.09-.09.09-.11.24-.2.34-.05.07-.17.05-.21.12-.04.07,0,.16.01.24,0,.04-.02.1,0,.12.11.07.25.09.37.14.27.11.55.23.82.35.03.01.06.01.07.04,0,.02-.07.04-.05.05.42.12.86.2,1.3.29.45-.04.91-.1,1.36-.18,1.48-.27,2.68-.61,3.67-.94h.05c.7-.25,1.35-.58,2.03-.88.11-.05.52-.19.6-.29.1-.13.1-.32.21-.43.07-.08.19-.08.28-.12.39-.2.54-.35.87-.57.6-.42,1.54-.74,1.95-1.41.08-.13.17-.26.24-.4.04-.09.01-.2.05-.28.04-.1.15-.14.19-.23.01-.02-.05.02-.06,0-.08-.14-.21-.29-.22-.45,0-.12.22-.18.21-.3,0-.09-.25-.02-.24-.11.03-.29.42-.61.58-.82.06-.08.09-.19.15-.28.02-.03.06-.03.08-.06.04-.06.03-.15.07-.21.1-.12.26-.19.36-.3.02-.02-.03-.07,0-.09.05-.05.13-.05.19-.1.16-.13.22-.35.34-.51.36-.48.77-.95,1.15-1.41.23-.29.5-.53.73-.82.31-.38.6-.85.84-1.3.17-.31.35-.65.48-.98.12-.32.21-.65.34-.96.13-.29.32-.6.38-.92.03-.14-.02-.29.03-.42M239.91,177.17c-.15-.02-.15-.14-.27-.18.16.01.31.03.44.08.06.03-.11.1-.17.09M240.85,178.42s-.1-.13-.13-.17c.15.04.26.08.36.12.08.03-.14.09-.23.05M230.55,187.88s.12-.02.1,0h-.1M236.42,186.84c.05.23.19.44.18.67,0,.08-.15.04-.22.02-.05-.02-.06-.1-.07-.16-.07-.31-.33-.76-.08-.96.04-.03.1.04.15.05.07.02.21-.03.22.05,0,.09-.15.1-.2.18-.02.05,0,.11.01.16M237.71,201.57s-.02-.08,0-.08c.15.02.32.02.41.14.05.06-.08.16-.15.16-.1,0-.27-.11-.43-.16.06-.02.12-.04.17-.06M238.28,187.8c-.06.09-.19-.1-.28-.2l-.15-.15c-.08-.07-.19-.11-.21-.22-.02-.13.03-.33.12-.33.36,0,.95.23.52.9M233.88,217.19c-.18-.24-.42-.56-.19-.63.27-.09.11.11.17.2.04.05.11.04.15.07s.05.11.1.12c.06.02.1-.06.16-.06.13.01.25.06.38.09-.24.11-.61.42-.77.22M244.13,220.58c.26-.07.52-.12.78-.16.02,0,.06.02.05.03-.12.1-.28.13-.39.24-.08.07-.03.23-.1.3-.09.1-.25.14-.3.26-.03.07.25,0,.2.06-.07.07-.16.11-.23.17-.11.1-.2.24-.34.29-.04.02.04-.14,0-.15-.16-.04-.33.02-.49.03.24-.62.24-.89.83-1.06M244.42,206.34s0-.02.01-.03c.02-.03,0,0-.01.03M240.88,195.67s-.11.08-.08.11c.17.12.49.05.66-.02.03,0,.01-.09.04-.08.05.01.12.07.1.12-.04.09-.52.28-.4.46.09.14.34-.03.46.08.07.06-.09.51.14.4.1-.06.17-.19.26-.26.06-.05.17-.05.23-.11s.03-.2.1-.25c.09-.06.4.04.33-.05-.11-.12-.33-.04-.47-.11-.07-.04-.34-.35-.31-.42.28-.64.2-.17.62-.48.05-.03.01-.12.05-.17.11-.12.24-.21.38-.29.12-.07.29-.24.39-.14.3.33-.46.44-.48.46-.2.25.32.03.42.28.03.08-.2,0-.22.08-.04.16.14.33.07.47s-.48.08-.39.21c.16.22.48.21.74.28.08.02.15-.02.23,0,.2.08.35.25.55.31.5.16.81.14,1.02.72.03.08,0,.17-.03.24-.1.19-.21.41-.38.55-.09.06-.21-.02-.31-.02-.47.02-.93.05-1.39.1-.1,0-.2.1-.3.08-.09-.03-.11-.2-.2-.2-.16,0-.29.15-.45.21-.06.02-.13,0-.19.03-.31.15-.4.46-.69.65-.17.1-.35.19-.53.25-.06.02-.15-.04-.2.01-.13.14-.14.37-.27.5-.14.13-.33.2-.51.25-.11.03-.29-.02-.42.02,0-.01,0-.03.02-.04.07-.08.18-.12.24-.21.04-.05,0-.17.05-.2.18-.08.39-.05.58-.1.02,0,.09-.03.06-.05-.12-.11-.29-.15-.4-.26-.07-.07-.07-.19-.14-.27-.09-.11-.27-.13-.31-.27-.04-.16.08-.32.11-.49.06-.31.12-.62.16-.93.01-.08-.04-.18,0-.25.06-.11.19-.16.28-.24,0,0,.1-.3.14-.46.04-.15.03-.32.1-.47.04-.09.13-.18.22-.21.06-.03.18.12.19.04M249.97,198.3c-.34.67-1.21.03-1.53-.23-.35-.29.11-1.13.08-1.29-.02-.13-.25-.04-.36-.09-.29-.13-.09-.11-.26-.27-.23-.21-.51-.35-.75-.54-.34-.26-.07-.3-.3-.7-.09-.15-.42-.04-.47-.21-.11-.33.22-.78.29-1.05.04-.12-.01-.25,0-.37,0-.05.05-.1.07-.14.09-.19.12-.45.28-.59.08-.08.72.09.75.14.1.12.01.33.09.47.03.07.25-.01.2.03-.23.21-.57.12-.5.32.06.15.3.25.26.41-.03.15-.34.06-.39.2-.04.09.19.04.27.1.12.09.23.21.33.33.04.05,0,.16.06.18.17.06.41-.06.55.06.13.11.04.36.13.51.02.05.1,0,.13-.04.06-.12,0-.32.12-.4.07-.05.13.12.21.18.12.08.28.1.37.22.04.06-.08.12-.1.18-.03.07-.03.17-.07.24-.07.11-.25.16-.25.28,0,.13.15.21.23.31-.03-.04-.1-.13-.08-.11.07.07.12.17.2.22.11.08.27.07.37.17.08.08.05.23.09.34.07.18.23.39.23.54,0,.22-.13.41-.22.6M249.75,193.39c-.1.01-.11-.17-.17-.25-.06-.1-.13-.19-.17-.3-.2-.49-.03-.89.21-1.4.04-.09.02.2.05.29.14.37.09.02.33.28.08.08.16.3.16.3.11.47.35.98-.4,1.08"/>
        <path class="cls-11" d="M228.78,176.06c0-.66,1.55-1.19,3.46-1.19s3.47.53,3.47,1.19-1.55,1.19-3.47,1.19-3.46-.53-3.46-1.19"/>
        <path class="cls-11" d="M211.49,217.55s.34.67.34-.03c0-.17-.42-.94-.54-1.1-.74-1.04,0,.15-.51-.62-.33-.5-.58-1.08-.94-1.56-.17-.23-.35-.45-.51-.7-.09-.17-.16-.36-.28-.51-.04-.06-.09-.12-.12-.19-.05-.15-.06-.28-.12-.43-.11-.25-.13-.56-.25-.8-.05-.1-.02-.4-.21-.48-.11-.05-.05-.39-.16-.28-.04-.07-.11-.18-.14-.25-.04-.1-.31-.47-.43-.78.44,1.32.18,1.16,1.58,4.06.11.23.24.44.36.67.05.1.1.19.16.29.75,1.32,1.38,2.21,1.76,2.73h0"/>
        <path class="cls-11" d="M232.28,228.29c-14.48,0-26.27-12.32-26.27-27.47s11.78-27.47,26.27-27.47,26.27,12.32,26.27,27.47-11.78,27.47-26.27,27.47ZM232.28,173.51c-14.39,0-26.1,12.25-26.1,27.31s11.71,27.31,26.1,27.31,26.1-12.25,26.1-27.31-11.71-27.31-26.1-27.31Z"/>
        <g>
          <path class="cls-11" d="M232.27,176.07l-.06-.03s.1-.22.15-.32c.14-.3.28-.58.42-.83l.03-.06c.19-.33.47-.84.74-1.01.15-.09.31-.16.47-.22.08-.03.16-.07.24-.1l.03.06c-.08.04-.16.07-.24.1-.16.06-.32.13-.46.22-.26.17-.55.68-.72.99l-.03.06c-.14.25-.28.52-.42.83-.05.1-.15.32-.15.32h0Z"/>
          <path class="cls-11" d="M232.21,176.06c-.02-.13-.04-.27-.06-.42-.07-.54-.15-1.15-.33-1.55-.06-.14-.14-.27-.21-.4-.04-.08-.09-.15-.13-.23l.06-.03c.04.08.08.15.13.23.07.13.15.26.21.4.18.41.26,1.03.33,1.57.02.15.04.29.06.42h-.07.01Z"/>
          <path class="cls-11" d="M232.22,176.07s-.16-.21-.24-.31c-.24-.29-.47-.55-.71-.79-.46-.47-1.13-1.05-1.7-1.16-.18-.04-.46-.04-.71-.05-.16,0-.31,0-.43-.02v-.07c.12,0,.27.01.43.02.27,0,.54.01.73.05.58.12,1.26.7,1.73,1.18.24.24.48.5.72.8.08.1.24.31.24.31l-.05.04h-.01Z"/>
          <path class="cls-11" d="M232.22,176.08s-.28-.18-.41-.27c-.13-.08-.27-.17-.42-.25-.44-.25-.83-.45-1.21-.61-1.15-.51-2.12-.71-3.57-.74h0c-.09,0-.29.06-.52.13-.46.14-1.03.32-1.27.17l.03-.06c.22.13.79-.05,1.22-.18.24-.08.44-.14.54-.14h0c1.46.03,2.44.23,3.6.75.38.16.77.37,1.21.62.15.09.3.18.42.25.14.08.41.27.42.27l-.04.06h0Z"/>
          <path class="cls-11" d="M232.23,176.08s-.19-.07-.28-.1c-.29-.11-.48-.18-.8-.28l-.05-.02c-.76-.25-1.53-.43-2.18-.56-2.5-.52-4.83-.3-7.15.66l-.03-.06c2.33-.97,4.68-1.19,7.19-.67.65.14,1.43.31,2.19.57l.05.02c.32.11.51.17.8.28.09.04.28.1.28.1l-.02.06h0Z"/>
          <path class="cls-11" d="M217.09,178.58l-.04-.05c2.17-1.56,4.69-2.59,6.92-2.84.22-.02.45-.06.67-.08.54-.07,1.11-.15,1.66-.15h.06c2.08.02,2.46.04,4.53.3.45.06,1.34.26,1.35.26v.06s-.91-.2-1.36-.26c-2.06-.26-2.45-.28-4.52-.3h-.06c-.55,0-1.11.08-1.65.15-.22.03-.45.06-.67.09-2.22.24-4.73,1.27-6.89,2.83h0Z"/>
          <path class="cls-11" d="M211.63,184.13l-.05-.04c1.52-2.02,3.44-3.72,5.71-5.05,2.16-1.27,4.54-2.15,7.06-2.61.13-.02.26-.05.39-.07,1.01-.19,2.06-.38,3.07-.38h.04c1.45,0,4.36.05,4.39.05v.07s-2.94-.04-4.39-.05h-.04c-1.01,0-2.05.19-3.06.38-.13.02-.26.05-.39.07-2.51.47-4.88,1.34-7.04,2.61-2.26,1.33-4.18,3.02-5.69,5.03h0Z"/>
          <path class="cls-11" d="M207.09,193.54l-.06-.02c1.11-4.16,3.5-7.78,7.1-10.78,3.16-2.64,7.1-4.62,11.39-5.75,2.12-.56,4.22-.79,6.72-.96v.07c-2.49.17-4.59.4-6.71.96-4.28,1.13-8.2,3.11-11.36,5.74-3.59,2.99-5.97,6.61-7.08,10.75h0Z"/>
          <path class="cls-11" d="M215.25,221.65c-1.56-1.47-2.15-2.9-2.66-4.87-.15-.59-.29-1.22-.36-1.83-.06-.65-.13-1.33-.18-2.02,0-.1-.02-.2-.01-.31v-.76c0-.7,0-1.43.06-2.15.14-1.43.29-2.82.58-4.26,1.4-6.89,4.44-13.65,8.78-19.55,2.07-2.82,4.31-5.23,6.67-7.15.9-.73,1.74-1.34,2.59-1.87.3-.18.65-.4,1.01-.6.17-.09.5-.27.5-.27l.03.06s-.33.18-.5.27c-.36.2-.71.41-1.01.6-.84.53-1.69,1.14-2.58,1.86-2.35,1.92-4.59,4.32-6.66,7.14-4.33,5.89-7.36,12.64-8.77,19.52-.29,1.43-.44,2.83-.58,4.25-.07.71-.07,1.44-.06,2.14v.76c0,.1,0,.2.01.3.06.69.12,1.37.18,2.02.06.61.21,1.23.36,1.82.5,1.96,1.1,3.38,2.64,4.84l-.05.05h0Z"/>
          <path class="cls-11" d="M221.6,225.91c-.12-.07-.21-.11-.3-.15-.16-.07-.3-.14-.48-.3-.45-.41-1.96-2.06-2.37-5.75-.03-.22-.06-.45-.09-.67-.07-.51-.14-1.04-.14-1.57,0-1.59.02-3.28.04-4.99,0-.69.09-1.39.17-2.06.04-.32.08-.64.11-.96.16-1.59.45-3.16.78-4.89,1.16-6.13,3.09-12.1,5.73-17.72,1.42-3.02,2.87-5.53,4.43-7.65.58-.8,1.17-1.52,1.75-2.15.27-.28.43-.45.68-.7.11-.11.33-.32.33-.32l.05.05s-.22.21-.33.32c-.25.25-.42.42-.68.7-.58.62-1.16,1.34-1.74,2.14-1.56,2.12-3,4.62-4.42,7.64-2.64,5.62-4.56,11.58-5.72,17.71-.33,1.73-.62,3.29-.78,4.88-.03.32-.07.65-.11.97-.08.67-.17,1.37-.17,2.06-.02,1.71-.03,3.4-.04,4.99,0,.52.07,1.05.14,1.56.03.22.06.44.09.67.1.93.58,4.09,2.35,5.71.18.16.3.22.47.29.09.04.19.08.31.15l-.03.06-.03-.02Z"/>
          <path class="cls-11" d="M227.63,227.82s-.07-.05-.1-.06c-.09-.05-.15-.09-.25-.18,0,0-.02-.01-.02-.02-.09-.07-.18-.14-.51-1.01-.22-.6-.38-1.32-.48-2.2-.03-.21-.06-.42-.09-.62-.08-.53-.16-1.08-.15-1.63,0-2.91.03-5.88.05-8.74,0-.95.01-1.9.02-2.85,0-.89.09-1.78.17-2.65.04-.39.07-.8.1-1.2.09-1.14.2-2.26.28-3.11.56-5.42,1.23-10.15,2.03-14.48.48-2.59,1.09-5.65,1.95-8.66.26-.9.57-1.95.93-2.97.12-.33.27-.75.45-1.18.04-.11.14-.34.14-.35l.06.03s-.1.23-.14.34c-.18.42-.33.85-.45,1.17-.36,1.02-.67,2.07-.93,2.97-.85,3-1.46,6.06-1.94,8.65-.81,4.33-1.47,9.07-2.03,14.48-.09.85-.2,1.97-.28,3.11-.03.4-.07.81-.1,1.2-.08.87-.16,1.76-.17,2.64,0,.95-.01,1.9-.02,2.85-.02,2.86-.04,5.83-.05,8.74,0,.54.08,1.09.15,1.62.03.2.06.41.09.62.1.87.26,1.58.48,2.18.32.85.41.92.48.98,0,0,.02.01.03.02.1.09.16.12.24.17.03.02.06.04.1.06l-.04.06v.02Z"/>
          <path class="cls-11" d="M233.93,228.08l-.06-.03c.04-.09.09-.12.12-.14.03-.02.06-.04.09-.12.04-.1.05-.21.06-.32.02-.18.05-.36.07-.54.07-.54.15-1.1.15-1.65,0-6.32-.02-12.72-.04-19.03,0-1.45-.08-2.92-.15-4.34-.03-.66-.07-1.35-.09-2.02-.07-1.94-.18-3.83-.27-5.43l-.02-.26c-.21-3.55-.42-7.21-.75-10.81l-.02-.22c-.22-2.34-.44-4.76-.8-7.12h.07c.36,2.35.58,4.77.8,7.12l.02.22c.33,3.59.54,7.26.75,10.81v.26c.11,1.6.21,3.49.29,5.43.03.67.06,1.36.1,2.02.07,1.42.14,2.89.15,4.34.02,6.31.04,12.72.04,19.03,0,.56-.08,1.12-.15,1.66-.02.18-.05.36-.07.54,0,.11-.02.23-.07.33-.04.1-.07.13-.11.15-.03.02-.06.04-.1.11h-.01Z"/>
          <path class="cls-11" d="M240,226.99l-.03-.06c1.38-.58,2.27-2.56,2.58-5.71.02-.2.04-.39.07-.59.06-.53.12-1.07.12-1.61,0-1.74-.01-3.62-.03-5.73,0-.8-.09-1.61-.17-2.4-.04-.37-.07-.75-.1-1.12-.15-1.82-.43-3.64-.71-5.5-.96-6.1-2.39-11.93-4.27-17.35-1.04-3-2.05-5.4-3.19-7.55-.4-.78-.84-1.53-1.29-2.23-.2-.3-.36-.52-.51-.73-.08-.11-.25-.33-.25-.33l.05-.04s.17.22.25.34c.15.21.31.43.51.73.46.71.89,1.46,1.3,2.24,1.14,2.16,2.15,4.56,3.19,7.56,1.88,5.42,3.32,11.26,4.27,17.36.29,1.86.56,3.68.71,5.5.03.37.07.75.1,1.12.08.79.16,1.6.17,2.41.02,2.12.03,3.99.03,5.73,0,.54-.06,1.09-.12,1.62-.02.19-.05.39-.07.59-.31,3.18-1.21,5.17-2.62,5.76h.01Z"/>
          <path class="cls-11" d="M246.09,224.14l-.04-.05c2.11-1.57,2.88-3.62,3.38-6.22h0c.13-.63.26-1.28.25-1.92,0-1.95-.02-3.76-.05-5.53,0-.52-.09-1.04-.17-1.55-.03-.21-.07-.43-.09-.65-.19-1.47-.51-3.08-1.01-5.08-1.52-6.03-3.9-11.72-7.09-16.89-1.77-2.87-3.59-5.24-5.55-7.24-.74-.75-1.49-1.42-2.21-2-.3-.24-.59-.45-.87-.65-.14-.1-.42-.29-.42-.29l.04-.06s.29.19.43.29c.28.2.56.41.87.65.73.58,1.47,1.25,2.22,2.01,1.97,2,3.79,4.37,5.56,7.25,3.19,5.18,5.58,10.87,7.1,16.91.5,2,.82,3.62,1.01,5.08.03.22.06.44.09.65.08.51.16,1.03.17,1.55.03,1.77.04,3.58.05,5.53,0,.64-.13,1.29-.25,1.92h0c-.3,1.52-.63,2.6-1.1,3.52-.55,1.1-1.31,1.99-2.31,2.74v.03Z"/>
          <path class="cls-11" d="M252.04,218.85l-.05-.04c2.09-2.64,4.1-7.64,1.84-16.46-.7-2.75-1.81-5.58-3.3-8.4-2.06-3.92-4.72-7.59-7.71-10.61-3.31-3.34-6.87-5.78-10.58-7.26l.02-.06c3.72,1.48,7.29,3.93,10.6,7.27,3,3.02,5.67,6.7,7.73,10.62,1.49,2.83,2.6,5.66,3.31,8.41,1.25,4.88,1.94,11.71-1.86,16.51v.02Z"/>
          <path class="cls-11" d="M256.8,210.28l-.06-.02c2.04-6.4.02-12.51-2.03-16.51-4.51-8.78-13.11-15.55-22.46-17.67v-.06c9.38,2.12,18,8.9,22.52,17.7,2.06,4.01,4.09,10.14,2.04,16.56h-.01Z"/>
          <path class="cls-11" d="M258.33,198.97c-.21-1.85-.58-3.47-1.17-5.09-1.42-3.95-4-7.58-7.45-10.52-3.18-2.71-7.05-4.8-11.18-6.04-1.83-.55-3.83-.94-6.3-1.22v-.07c2.48.28,4.48.67,6.32,1.22,4.14,1.25,8.01,3.34,11.2,6.06,3.46,2.95,6.05,6.59,7.47,10.55.59,1.63.96,3.25,1.17,5.11h-.07,0Z"/>
          <path class="cls-11" d="M255.26,188.05c-1.54-2.94-3.77-5.44-6.62-7.43-2.64-1.84-5.76-3.18-9.02-3.86-.14-.03-.29-.06-.44-.09-.81-.17-1.64-.36-2.45-.39-.88-.04-1.77-.08-2.64-.11-.62-.02-1.23-.05-1.85-.08v-.07c.62.03,1.24.05,1.85.08.86.03,1.76.07,2.64.11.81.04,1.65.22,2.46.4.15.03.29.06.43.09,3.27.68,6.4,2.02,9.05,3.87,2.86,2,5.1,4.5,6.64,7.45l-.06.03h.01Z"/>
          <path class="cls-11" d="M249.9,180.73c-2.55-2.42-5.85-3.99-9.83-4.68-.58-.1-1.67-.2-2.27-.24-.19-.02-.34-.02-.49-.02h-.74c-.72,0-1.47-.02-2.2.06-.71.08-2.13.24-2.13.24v-.07s1.41-.16,2.12-.24c.73-.08,1.48-.07,2.21-.06h.89c.1,0,.21,0,.34.02.61.05,1.7.15,2.28.25,3.99.69,7.3,2.27,9.86,4.7l-.05.05h0Z"/>
          <path class="cls-11" d="M244.77,176.85c-.99-.52-2.31-1.16-3.72-1.39-.14-.02-.29-.05-.43-.08-.35-.07-.71-.14-1.07-.14h-.01c-1.34.02-2.53.04-3.64.07-.79.02-1.59.23-2.38.43-.11.03-.23.06-.34.09-.31.08-.93.26-.94.26l-.02-.06s.63-.18.94-.26c.11-.03.22-.06.34-.09.78-.2,1.6-.41,2.39-.43,1.11-.03,2.3-.05,3.63-.07h.02c.37,0,.73.07,1.09.14.14.03.29.06.43.08,1.41.23,2.74.87,3.74,1.39l-.03.06h0Z"/>
          <path class="cls-11" d="M232.26,176.08l-.03-.06s.17-.08.25-.13c.22-.11.48-.23.74-.34.72-.31,1.32-.53,1.89-.69,1.83-.52,3.45-.49,5.41.11l-.02.06c-1.95-.6-3.56-.63-5.37-.11-.57.16-1.17.38-1.88.69-.26.11-.51.24-.73.34-.08.04-.25.13-.25.13h-.01Z"/>
          <path class="cls-11" d="M232.26,176.08l-.04-.05s.22-.2.33-.29c.1-.09.22-.19.33-.27.3-.25.62-.48.95-.69.36-.23,1.24-.76,1.76-.8.38-.03.77-.04,1.15-.05.16,0,.32-.01.49-.02v.07c-.16,0-.32.01-.48.02-.38.01-.77.02-1.15.05-.51.04-1.38.57-1.73.79-.32.2-.64.43-.94.68-.12.09-.23.18-.33.27-.11.1-.33.29-.33.29h0Z"/>
          <path class="cls-11" d="M232.78,226.85h-.52c-1.9-.09-3.27-.14-5.07-.41-2.99-.44-5.94-1.4-8.54-2.78-2.87-1.52-5.21-3.48-6.98-5.81l.05-.04c1.76,2.33,4.1,4.28,6.96,5.79,2.59,1.38,5.54,2.33,8.52,2.77,1.8.27,3.17.33,5.06.41h.11c1.02.04,2.22-.08,3.27-.2.34-.04.67-.07.96-.1,1.39-.13,3-.5,4.94-1.12,3.36-1.07,8.03-3.25,11.22-7.55l.05.04c-3.2,4.31-7.89,6.5-11.25,7.57-1.94.62-3.56.99-4.95,1.13-.29.03-.62.06-.96.1-.92.1-1.94.21-2.87.21h0Z"/>
          <path class="cls-11" d="M228.62,215.95c-.49,0-.99-.08-1.47-.16-.21-.03-.43-.07-.64-.1-1.34-.17-2.69-.48-3.83-.76-2.46-.61-6.11-1.82-9.45-4.12-3.24-2.23-5.42-4.94-6.48-8.07-.43-1.27-.46-2.21-.52-3.52,0-.26-.02-.54-.04-.83h.07c.01.29.03.57.04.83.05,1.3.09,2.24.51,3.5,1.05,3.11,3.23,5.82,6.46,8.04,3.34,2.29,6.97,3.5,9.43,4.11,1.14.28,2.48.59,3.82.76.21.03.43.06.64.09.48.08.97.15,1.46.15h.01c2.91-.01,5.45-.03,7.78-.05.07,0,.15-.01.22-.02h.04c3.53-.47,6.37-1.15,8.93-2.14,2.9-1.12,5.39-2.5,7.39-4.11,2.51-2.01,4.17-4.31,4.96-6.86.36-1.16.36-2.07.37-3.22,0-.35,0-.72.01-1.12h.07c-.01.4-.01.77-.02,1.12,0,1.15,0,2.07-.37,3.24-.79,2.56-2.47,4.87-4.98,6.89-2.01,1.61-4.5,3-7.41,4.12-2.56.99-5.4,1.67-8.94,2.14h-.04c-.07.02-.15.03-.23.03-2.33.02-4.87.04-7.78.05h-.01Z"/>
          <path class="cls-11" d="M230.33,207.33c-1.71,0-3.58-.3-4.84-.52-1.53-.27-2.88-.58-4.13-.94-1.15-.34-2.27-.73-3.34-1.18-.9-.38-1.78-.8-2.59-1.26-2.92-1.63-5.06-3.6-6.36-5.85-.37-.65-1.01-1.9-1.13-2.97-.01-.1-.02-.2-.04-.31-.08-.64-.17-1.44-.09-2.13.12-.97.36-1.88.75-2.86l.06.02c-.4.98-.64,1.88-.75,2.85-.08.67.02,1.47.09,2.11.01.11.03.21.04.31.12,1.06.75,2.3,1.12,2.95,1.29,2.25,3.42,4.21,6.34,5.83.81.45,1.68.87,2.58,1.25,1.07.45,2.19.85,3.33,1.18,1.25.37,2.6.67,4.13.94,1.26.22,3.13.52,4.83.52h.69c2.54,0,4.74,0,7.27-.4,3.47-.55,6.46-1.42,9.13-2.67,2.99-1.4,8.15-4.53,9.09-9.74.17-.95.11-1.75.04-2.76v-.13c-.06-.74-.36-1.48-.68-2.25l.06-.03c.33.77.62,1.52.68,2.27v.13c.09,1.01.15,1.81-.03,2.77-.95,5.24-6.13,8.38-9.13,9.79-2.68,1.25-5.67,2.13-9.15,2.67-2.53.4-4.73.4-7.28.4h-.69,0Z"/>
          <path class="cls-11" d="M232.64,197.7c-.23,0-.47,0-.69-.02-1.13-.06-2.28-.12-3.39-.19l-.27-.02c-.68-.04-1.35-.15-1.98-.27-3.32-.57-5.94-1.38-8.26-2.55-3.49-1.75-5.62-3.93-6.33-6.47-.17-.63-.18-.96-.19-1.61,0-.18,0-.38-.01-.63-.01-.57.22-1.23.45-1.8.4-.98.99-1.76,1.76-2.64l.05.04c-.76.87-1.35,1.65-1.74,2.62-.23.56-.46,1.21-.45,1.78,0,.24,0,.45.01.63,0,.67.01.97.18,1.6.71,2.52,2.82,4.68,6.29,6.43,2.31,1.17,4.94,1.97,8.25,2.54.63.11,1.31.22,1.98.27h.27c1.11.08,2.26.14,3.39.2,1.26.06,2.68-.07,3.92-.19.32-.03.64-.06.95-.09.79-.07,1.59-.21,2.34-.36,2.51-.49,4.65-1.16,6.55-2.03,1.83-.84,6.18-3.18,7.03-6.88.23-.99.2-1.54.11-2.58-.05-.61-.34-1.25-.58-1.75-.37-.76-.89-1.49-1.55-2.19l.05-.05c.66.7,1.18,1.44,1.56,2.21.25.5.53,1.15.59,1.77.09,1.05.12,1.6-.11,2.6-.86,3.73-5.23,6.08-7.07,6.92-1.91.87-4.05,1.54-6.57,2.03-.75.15-1.56.29-2.35.36-.31.03-.62.06-.95.09-1.02.1-2.16.2-3.24.2v.03Z"/>
          <path class="cls-11" d="M229.5,188.35c-.68,0-1.36-.13-2.03-.26l-.15-.03c-2.1-.38-3.76-.86-5.24-1.52-1.63-.73-5.36-2.76-4.91-6,.26-1.94,1.89-3.58,4.97-5.01l.03.06c-3.06,1.42-4.67,3.04-4.93,4.96-.44,3.19,3.26,5.21,4.87,5.93,1.47.65,3.13,1.13,5.22,1.51l.15.03c.66.13,1.34.26,2.02.26h0c2.05-.01,4.13-.04,6.17-.07.45-.01.89-.1,1.33-.18.18-.04.37-.07.55-.1,1.15-.18,2.37-.51,3.65-.98,4.27-1.56,5.6-3.58,5.96-5.01.35-1.39-.08-2.72-1.27-3.97-1.16-1.21-2.74-2.01-3.59-2.38l.03-.06c.85.37,2.45,1.18,3.61,2.4,1.21,1.26,1.64,2.62,1.28,4.03-.36,1.44-1.7,3.49-6,5.05-1.28.47-2.52.8-3.67.98-.18.03-.37.07-.55.1-.43.08-.88.17-1.34.18-2.04.03-4.12.05-6.17.07h.01Z"/>
          <path class="cls-11" d="M232.62,181.04h-.91c-1.93,0-4.74-.56-6.32-1.8-.69-.54-1.06-1.16-1.09-1.81-.03-.59.25-1.17.8-1.69.97-.92,3.14-1.74,4.28-1.81,1.08-.06,2.18-.11,3.24-.15.34-.01.69-.03,1.03-.04.19.02.33.04.46.05.34.04.53.06.95.13.47.08.92.18,1.31.29.25.07.51.15.81.26.82.3,3.47,1.44,2.97,3.34-.42,1.59-2.69,2.4-3.64,2.67-.08.02-.17.05-.25.07-.24.07-.48.14-.72.17-.78.11-1.48.21-2.13.29-.22.03-.46.04-.78.04h0ZM231.82,180.96h.8c.31,0,.55-.01.77-.04.65-.08,1.35-.17,2.13-.29.24-.04.48-.1.71-.17.08-.02.17-.05.25-.07.94-.27,3.18-1.06,3.6-2.62.49-1.84-2.12-2.96-2.93-3.26-.3-.11-.56-.19-.8-.26-.4-.11-.84-.21-1.31-.29-.42-.07-.6-.09-.94-.13-.12-.01-.27-.03-.45-.05-.34.01-.68.03-1.02.04-1.06.04-2.16.08-3.24.15-1.12.07-3.3.9-4.24,1.79-.54.5-.81,1.07-.78,1.64.03.63.4,1.24,1.07,1.76,1.57,1.22,4.36,1.78,6.28,1.78h.11v.02Z"/>
          <path class="cls-11" d="M209.98,215.27c-1.31-2.34-1.97-5.09-1.93-8.16.03-2.66.55-5.47,1.57-8.36,1.79-5.1,4.86-9.96,8.9-14.05,4.1-4.16,8.85-7.16,13.73-8.68l.02.06c-4.87,1.51-9.6,4.51-13.7,8.66-4.03,4.08-7.1,8.93-8.88,14.02-2.97,8.47-1.05,13.95.36,16.47l-.06.03h0Z"/>
          <path class="cls-11" d="M233.33,222.71h-3.39c-1.6,0-3.93-.41-5.6-.8-2.8-.65-6.89-1.97-10.5-4.54-3.49-2.49-5.78-5.6-6.81-9.26l.06-.02c1.02,3.64,3.31,6.74,6.78,9.22,3.6,2.57,7.68,3.88,10.47,4.53,1.66.39,3.99.8,5.59.8h2.55c2.2,0,2.29,0,5.11-.33,2.41-.29,5.08-1.02,7.71-2.1,2.86-1.19,5.43-2.79,7.43-4.64,2.4-2.21,3.97-4.73,4.69-7.48l.06.02c-.71,2.76-2.3,5.29-4.7,7.51-2.01,1.85-4.59,3.46-7.45,4.65-2.64,1.09-5.31,1.82-7.73,2.11-2.42.29-2.84.33-4.29.33h.02Z"/>
          <path class="cls-11" d="M207.04,208.1l-.59-2.89c-.63-4.92.61-10,3.59-14.68,2.59-4.08,6.45-7.77,10.85-10.38,1.57-.93,3.21-1.73,4.87-2.38,2.02-.79,4.2-1.38,6.47-1.76v.07c-2.26.38-4.44.97-6.45,1.76-1.66.65-3.29,1.45-4.86,2.37-4.4,2.6-8.24,6.28-10.83,10.35-2.97,4.67-4.21,9.74-3.58,14.64l.59,2.89h-.07,0Z"/>
        </g>
      </g>
      <g>
        <g class="cls-18">
          <g>
            <polygon class="cls-12" points="181.39 65.91 187.13 74.45 77.69 236.07 66.57 236.07 181.39 65.91"/>
            <polygon class="cls-12" points="191 76.63 196.76 85.22 87.79 246.17 76.67 246.17 191 76.63"/>
            <polygon class="cls-12" points="201.1 86.74 206.86 95.32 97.89 256.27 86.77 256.27 201.1 86.74"/>
            <polygon class="cls-12" points="211.2 96.84 216.96 105.42 107.99 266.37 96.87 266.37 211.2 96.84"/>
            <polygon class="cls-12" points="221.3 106.94 227.06 115.52 118.1 276.47 106.97 276.47 221.3 106.94"/>
            <polygon class="cls-12" points="231.4 117.04 237.17 125.62 128.2 286.58 117.08 286.58 231.4 117.04"/>
          </g>
        </g>
        <path class="cls-12" d="M232,141.08l-63.79,94.9h127.58l-63.79-94.9h0ZM232.18,229.96c-15.47,0-28.02-13.07-28.02-29.18s12.54-29.18,28.02-29.18,28.02,13.07,28.02,29.18-12.54,29.18-28.02,29.18Z"/>
      </g>
    </g>
    <g>
      <g>
        <path class="cls-13" d="M340.58,111.14c.36-.57.94-1.51.94-2.24,0-1.14-1.09-1.72-2.29-1.87-1.2-.16-2.34.05-2.34-.88,0-.88.94-1.14,1.61-1.14,1.56,0,3.12.21,4.78.21,1.87,0,3.85-.21,5.77-.21.73,0,1.66.31,1.66,1.25,0,.78-.62.73-1.25.78-.99.1-1.98.47-2.81,1.04-1.4,1.04-2.91,3.33-3.85,4.73l-6.5,9.31v8.47c0,3.07-.21,4.31,3.07,4.83.68.1,1.66.26,1.66,1.2,0,.78-.57.99-1.25.99-2.7,0-5.3-.21-8.01-.21-2.5,0-4.99.21-7.49.21-.73,0-1.25-.21-1.25-.99,0-.83.78-1.09,1.4-1.2,3.43-.57,3.27-1.46,3.27-4.83v-6.91l-9.15-13.1c-.57-.83-1.3-1.92-2.08-2.6-.62-.57-.99-.88-1.82-.94-.83-.05-1.82.1-1.82-1.04,0-.99,1.09-.99,1.82-.99,2.29,0,4.47.21,6.76.21,2.81,0,5.51-.21,8.26-.21.78,0,1.98,0,1.98,1.09s-1.4.94-2.18.94c-.57,0-1.72.36-1.72,1.14s.99,2.13,1.4,2.75l6.03,8.68,5.35-8.47h.05Z"/>
        <path class="cls-13" d="M366.99,116.75c0,1.56-.1,2.44,1.72,2.44,1.09,0,3.38,0,4.37-.21,1.46-.26,2.08-1.4,2.5-2.75.21-.68.57-1.72,1.51-1.72.83,0,1.04.62,1.04,1.35-.1,1.46-.1,3.01-.21,4.47,0,1.46.1,3.01.21,4.47,0,.68-.21,1.46-1.09,1.46-2.5,0-.68-4.99-6.19-4.99l-2.24.1c-1.72.1-1.61.83-1.61,2.24v6.08c0,1.3.05,3.22.88,4.31.88,1.14,2.6,1.51,4,1.51,3.64,0,6.71-1.46,8.37-4.73.31-.73.83-1.82,1.77-1.82.83,0,1.14.36,1.14,1.2,0,.47-.31,1.82-.42,2.34l-.57,4.16c-.05.62-.16.94-.83.94-3.85,0-7.69-.21-11.54-.21-4.99,0-9.98.21-14.97.21-.73,0-1.25-.16-1.25-.94,0-.83.78-1.14,1.4-1.25,3.54-.57,3.43-1.61,3.43-4.73v-18.45c0-3.07.16-4.68-3.17-5.2-.68-.1-1.66-.36-1.66-.78,0-.83.52-1.25,1.25-1.25,3.12,0,6.13.21,9.25.21,5.41,0,10.81-.21,16.27-.21,1.14,0,.88.88.88,1.82v4.21c0,.78.16,1.61-1.04,1.61-.78,0-1.25-.83-1.61-1.4-.62-.99-1.51-1.92-2.39-2.7-1.09-.99-2.7-1.04-4.11-1.04-.88,0-3.74,0-4.52.47-.62.36-.57,1.77-.57,2.39v6.39h0Z"/>
        <path class="cls-13" d="M389.5,112.18c0-2.65.16-4.47-2.81-4.26-.78.05-1.92.36-1.92-.83,0-2.39,14.09-2.91,16.38-2.91,4.99,0,9.62.73,13.93,3.43,4.52,2.86,7.33,7.38,7.33,12.79,0,10.71-10.35,17.21-20.17,17.21-4.37,0-8.73-.21-13.1-.21-.94,0-1.98.21-2.96.21-.68,0-1.25-.31-1.25-1.14s.78-.88,1.46-1.04c3.33-.78,3.12-1.61,3.12-5.09v-18.16ZM398.07,129.07c0,3.48-.21,6.55,4.11,6.55,3.43,0,6.6-2.08,8.47-4.89,1.92-2.75,2.7-6.65,2.7-9.98,0-6.91-3.79-14.3-11.49-14.3-3.74,0-3.79.83-3.79,4.37v18.25Z"/>
        <path class="cls-13" d="M437.58,130.58c0,3.07-.21,4.31,3.07,4.83.68.1,1.66.26,1.66,1.2,0,.78-.57.99-1.25.99-2.7,0-5.3-.21-8-.21-2.5,0-4.99.21-7.49.21-.73,0-1.25-.21-1.25-.99,0-.83.78-1.09,1.4-1.2,3.43-.57,3.27-1.46,3.27-4.83v-18.45c0-3.17.31-4.52-3.01-5.09-.62-.1-1.66-.16-1.66-1.04,0-.83.52-.99,1.25-.99,2.7,0,5.3.21,8.01.21,2.5,0,4.99-.21,7.43-.21.73,0,1.3.16,1.3.99s-.83.94-1.46,1.04c-3.53.57-3.27,1.61-3.27,5.09v18.45Z"/>
        <path class="cls-13" d="M462.22,130.58c0,3.07-.21,4.31,3.07,4.83.68.1,1.66.26,1.66,1.2,0,.78-.57.99-1.25.99-2.7,0-5.3-.21-8.01-.21-2.5,0-4.99.21-7.49.21-.73,0-1.25-.21-1.25-.99,0-.83.78-1.09,1.4-1.2,3.43-.57,3.27-1.46,3.27-4.83v-21.94c-.05-1.46,0-1.51-1.46-1.51-3.53,0-4.94,1.4-6.86,4.21-.42.62-1.3,1.82-2.13,1.82-.68,0-.94-.52-.94-1.14,0-.36.16-.78.26-1.14l1.66-6.08c.21-.78.42-1.77,1.4-1.77.57,0,.88.26,1.04.78.47,1.46.83,1.2,2.29,1.2h18.66c1.61,0,2.91.16,3.85-1.35.26-.47.62-.99,1.25-.99,1.2,0,.99.99.88,1.87l-.68,6.65c-.1.83-.05,2.13-1.14,2.13-.88,0-1.35-.83-1.61-1.56-1.51-3.74-2.18-4.68-6.5-4.68-1.35,0-1.4.16-1.4,1.51v21.99h.03Z"/>
        <path class="cls-13" d="M487.59,116.75c0,1.56-.1,2.44,1.72,2.44,1.09,0,3.38,0,4.37-.21,1.46-.26,2.08-1.4,2.5-2.75.21-.68.57-1.72,1.51-1.72.83,0,1.04.62,1.04,1.35-.1,1.46-.1,3.01-.21,4.47,0,1.46.1,3.01.21,4.47,0,.68-.21,1.46-1.09,1.46-2.5,0-.68-4.99-6.19-4.99l-2.24.1c-1.72.1-1.61.83-1.61,2.24v6.08c0,1.3.05,3.22.88,4.31.88,1.14,2.6,1.51,4,1.51,3.64,0,6.71-1.46,8.37-4.73.31-.73.83-1.82,1.77-1.82.83,0,1.14.36,1.14,1.2,0,.47-.31,1.82-.42,2.34l-.57,4.16c-.05.62-.16.94-.83.94-3.85,0-7.69-.21-11.54-.21-4.99,0-9.98.21-14.97.21-.73,0-1.25-.16-1.25-.94,0-.83.78-1.14,1.4-1.25,3.54-.57,3.43-1.61,3.43-4.73v-18.45c0-3.07.16-4.68-3.17-5.2-.68-.1-1.66-.36-1.66-.78,0-.83.52-1.25,1.25-1.25,3.12,0,6.13.21,9.25.21,5.41,0,10.81-.21,16.27-.21,1.14,0,.88.88.88,1.82v4.21c0,.78.16,1.61-1.04,1.61-.78,0-1.25-.83-1.61-1.4-.62-.99-1.51-1.92-2.39-2.7-1.09-.99-2.7-1.04-4.11-1.04-.88,0-3.74,0-4.52.47-.62.36-.57,1.77-.57,2.39v6.39h0Z"/>
        <path class="cls-13" d="M509.99,112.08c0-3.07.36-4.52-2.96-5.04-.68-.1-1.66-.05-1.66-.94,0-.83.52-1.09,1.25-1.09,2.18,0,4.47.21,6.65.21,3.74,0,7.49-.21,11.18-.21,2.7,0,5.51.16,7.85,1.72,2.65,1.66,4.05,4.26,4.05,7.38,0,2.5-1.09,5.04-2.75,6.91-1.98,2.18-4.63,3.12-7.54,3.12-1.56,0-2.55-.26-4-.68-.57-.21-2.29-.73-2.86-.73-.94,0-.62.73-.62,1.4v6.45c0,3.07-.21,4.31,3.07,4.83.68.1,1.66.26,1.66,1.2,0,.78-.57.99-1.25.99-2.7,0-5.3-.21-8.01-.21-2.5,0-4.99.21-7.49.21-.73,0-1.25-.21-1.25-.99,0-.83.78-1.09,1.4-1.2,3.43-.57,3.27-1.46,3.27-4.83v-18.51h0ZM518.57,118.57c0,.62-.05,1.61.31,1.87.68.52,1.98.73,2.86.73,4.11,0,5.87-3.48,5.87-7.17,0-3.43-2.34-6.97-6.13-6.97-1.25,0-2.39.36-2.7,1.56-.36,1.4-.21,3.01-.21,4.47v5.51h0Z"/>
        <path class="cls-13" d="M549.97,116.75c0,1.56-.1,2.44,1.72,2.44,1.09,0,3.38,0,4.37-.21,1.46-.26,2.08-1.4,2.5-2.75.21-.68.57-1.72,1.51-1.72.83,0,1.04.62,1.04,1.35-.1,1.46-.1,3.01-.21,4.47,0,1.46.1,3.01.21,4.47,0,.68-.21,1.46-1.09,1.46-2.5,0-.68-4.99-6.19-4.99l-2.24.1c-1.72.1-1.61.83-1.61,2.24v6.08c0,1.3.05,3.22.88,4.31.88,1.14,2.6,1.51,4,1.51,3.64,0,6.71-1.46,8.37-4.73.31-.73.83-1.82,1.77-1.82.83,0,1.14.36,1.14,1.2,0,.47-.31,1.82-.42,2.34l-.57,4.16c-.05.62-.16.94-.83.94-3.85,0-7.69-.21-11.54-.21-4.99,0-9.98.21-14.97.21-.73,0-1.25-.16-1.25-.94,0-.83.78-1.14,1.4-1.25,3.54-.57,3.43-1.61,3.43-4.73v-18.45c0-3.07.16-4.68-3.17-5.2-.68-.1-1.66-.36-1.66-.78,0-.83.52-1.25,1.25-1.25,3.12,0,6.13.21,9.25.21,5.41,0,10.81-.21,16.27-.21,1.14,0,.88.88.88,1.82v4.21c0,.78.16,1.61-1.04,1.61-.78,0-1.25-.83-1.61-1.4-.62-.99-1.51-1.92-2.39-2.7-1.09-.99-2.7-1.04-4.11-1.04-.88,0-3.74,0-4.52.47-.62.36-.57,1.77-.57,2.39v6.39h0Z"/>
      </g>
      <circle class="cls-13" cx="432.8" cy="98.58" r="4.79"/>
    </g>
    <g>
      <ellipse class="cls-13" cx="336.15" cy="157.01" rx="5.05" ry="4.01"/>
      <ellipse class="cls-13" cx="321.67" cy="157.01" rx="5.05" ry="4.01"/>
      <g>
        <g>
          <path class="cls-13" d="M342.47,185.46c0,3.59.05,6.71-3.07,9.25-2.91,2.34-6.65,3.01-10.34,3.01-3.43,0-7.49-.57-10.4-2.34-3.74-2.29-4.26-5.51-4.26-9.51v-14.19c0-3.17.31-4.52-3.01-5.09-.62-.1-1.66-.16-1.66-1.04,0-.83.52-.99,1.25-.99,2.7,0,5.3.21,8.01.21,2.5,0,4.99-.21,7.43-.21.73,0,1.3.16,1.3.99s-.83.94-1.46,1.04c-3.54.57-3.28,1.61-3.28,5.09v11.44c0,2.13-.05,6.34.73,8.16,1.2,3.07,4.26,4.21,7.33,4.21,2.7,0,5.61-.68,7.33-2.91,1.72-2.13,1.61-4.57,1.61-7.12v-13.2c0-1.14.05-3.07-.47-4.16-.57-1.09-1.61-1.35-2.75-1.51-.83-.1-2.03.21-2.03-.99,0-1.04.99-1.04,1.77-1.04,1.56,0,3.12.1,4.68.1s3.07-.1,4.63-.1c.62,0,1.2.31,1.2,1.04,0,1.04-1.09.88-1.87.99-1.2.16-1.92.36-2.34,1.66-.26.94-.31,2.75-.31,3.69v13.52h-.02Z"/>
          <path class="cls-13" d="M378.91,172.05c0-1.04,0-2.75-.42-3.69-.57-1.25-1.61-1.61-2.81-1.77-.88-.1-1.98.21-1.98-.94s1.14-1.09,1.92-1.09c1.56,0,3.07.1,4.63.1s3.07-.1,4.57-.1c.78,0,1.46.16,1.46,1.04,0,1.25-1.77.88-2.65.99-2.44.31-2.13,2.81-2.13,4.83v24.64c0,1.46.26,2.39-1.51,2.39-1.3,0-1.98-1.09-2.7-2.03l-20.53-25.63v17.16c0,1.25,0,3.95.36,5.04.52,1.56,1.61,1.87,3.02,1.98.73.05,2.18-.05,2.18,1.09,0,.88-.83,1.09-1.56,1.09-1.66,0-3.22-.21-4.89-.21s-3.33.21-4.94.21c-.73,0-1.4-.26-1.4-1.09,0-1.14,1.3-1.04,2.13-1.09,1.14-.05,1.77-.42,2.18-1.56.57-1.61.47-4.37.47-6.13v-16.17c0-2.03.21-4.37-2.39-4.52-.83-.05-2.03.05-2.03-1.09,0-.94,1.04-.94,1.77-.94h9.15c2.08,0,1.92.1,3.22,1.72l14.87,18.4v-12.63h.01Z"/>
          <path class="cls-13" d="M402.87,190.14c0,3.07-.21,4.31,3.07,4.83.68.1,1.66.26,1.66,1.2,0,.78-.57.99-1.25.99-2.7,0-5.3-.21-8-.21-2.5,0-4.99.21-7.49.21-.73,0-1.25-.21-1.25-.99,0-.83.78-1.09,1.4-1.2,3.43-.57,3.27-1.46,3.27-4.83v-18.46c0-3.17.31-4.52-3.01-5.09-.62-.1-1.66-.16-1.66-1.04,0-.83.52-.99,1.25-.99,2.7,0,5.3.21,8.01.21,2.5,0,4.99-.21,7.43-.21.73,0,1.3.16,1.3.99s-.83.94-1.46,1.04c-3.53.57-3.27,1.61-3.27,5.09v18.46Z"/>
          <path class="cls-13" d="M436.3,171.74c.42-.94.99-2.44.99-3.33,0-1.2-.94-1.72-1.92-1.82-.88-.1-2.29.21-2.29-1.04,0-.94.94-.99,1.66-.99,1.51,0,2.96.1,4.47.1s2.96-.1,4.42-.1c.73,0,1.46.21,1.46,1.09,0,.99-1.35.83-2.08.94-2.29.31-2.75,2.39-3.64,4.31l-10.76,25.42c-.31.88-.57,1.4-1.61,1.4-1.51,0-1.56-.73-2.08-1.98l-10.92-25.21c-.36-.88-1.04-2.39-1.61-3.12-.57-.68-1.25-.73-2.13-.83-.73-.05-1.25-.26-1.25-1.14,0-1.04,1.25-.88,1.98-.88,2.5,0,4.89.21,7.38.21,1.98,0,4.05-.21,6.03-.21.73,0,2.08-.1,2.08.94,0,1.35-1.77.99-2.7,1.09-.57.05-1.25.52-1.25,1.25,0,.62.42,1.56.68,2.18l6.97,16.64,6.13-14.92h0Z"/>
          <path class="cls-13" d="M459.95,176.31c0,1.56-.1,2.44,1.72,2.44,1.09,0,3.38,0,4.37-.21,1.46-.26,2.08-1.4,2.5-2.75.21-.68.57-1.72,1.51-1.72.83,0,1.04.62,1.04,1.35-.1,1.46-.1,3.01-.21,4.47,0,1.46.1,3.01.21,4.47,0,.68-.21,1.46-1.09,1.46-2.5,0-.68-4.99-6.19-4.99l-2.24.1c-1.72.1-1.61.83-1.61,2.24v6.08c0,1.3.05,3.22.88,4.31.88,1.14,2.6,1.51,4,1.51,3.64,0,6.71-1.46,8.37-4.73.31-.73.83-1.82,1.77-1.82.83,0,1.14.36,1.14,1.2,0,.47-.31,1.82-.42,2.34l-.57,4.16c-.05.62-.16.94-.83.94-3.85,0-7.69-.21-11.54-.21-4.99,0-9.98.21-14.97.21-.73,0-1.25-.16-1.25-.94,0-.83.78-1.14,1.4-1.25,3.54-.57,3.43-1.61,3.43-4.73v-18.46c0-3.07.16-4.68-3.17-5.2-.68-.1-1.66-.36-1.66-.78,0-.83.52-1.25,1.25-1.25,3.12,0,6.13.21,9.25.21,5.41,0,10.81-.21,16.27-.21,1.14,0,.88.88.88,1.82v4.21c0,.78.16,1.61-1.04,1.61-.78,0-1.25-.83-1.61-1.4-.62-.99-1.51-1.92-2.39-2.7-1.09-.99-2.7-1.04-4.11-1.04-.88,0-3.74,0-4.52.47-.62.36-.57,1.77-.57,2.39v6.39h0Z"/>
          <path class="cls-13" d="M508.81,191.44c.99,1.98,1.25,3.07,3.54,3.53.62.16,1.09.36,1.09,1.09,0,.88-.88.99-1.56.99-1.46,0-2.86-.1-4.31-.1s-2.86.1-4.31.1c-1.2,0-1.3-.62-1.77-1.66l-4.78-9.51c-.52-1.04-1.56-3.12-2.39-3.85-.47-.47-1.14-.52-1.77-.52-.99,0-.73.68-.73,1.72v6.91c0,3.07-.21,4.31,3.07,4.83.68.1,1.66.26,1.66,1.2,0,.78-.57.99-1.25.99-2.7,0-5.3-.21-8.01-.21-2.5,0-4.99.21-7.49.21-.73,0-1.25-.21-1.25-.99,0-.83.78-1.09,1.4-1.2,3.43-.57,3.27-1.46,3.27-4.83v-18.51c0-3.07.31-4.52-2.86-5.04-.68-.1-1.66-.05-1.66-.94,0-.83.57-1.09,1.35-1.09,2.39,0,4.78.21,7.17.21,4.05,0,8-.21,12.01-.21,2.24,0,4.68.26,6.5,1.61,1.98,1.51,3.07,3.79,3.07,6.34,0,4.99-4.37,7.23-8.84,7.64,2.96.26,4.16,2.18,5.41,4.57l3.43,6.71h.01ZM491.82,177.09c0,1.3-.31,2.34,1.09,2.34,1.56,0,3.22-.26,4.52-1.25,1.61-1.14,2.44-3.17,2.44-5.09,0-3.33-2.08-6.5-5.72-6.5-.78,0-2.18.31-2.34,1.04-.1.57,0,1.82,0,2.44v7.02h0Z"/>
          <path class="cls-13" d="M536.62,170.96c0,.83.1,1.98-1.04,1.98-.88,0-1.2-.73-1.4-1.4-.99-2.91-2.55-5.67-5.98-5.67-2.7,0-5.88,1.66-5.88,4.68,0,2.75,2.55,3.79,4.78,4.52l2.65.88c5.2,1.66,9.31,4.31,9.31,10.35,0,3.27-1.72,6.24-4.16,8.32-2.7,2.24-6.08,3.12-9.56,3.12-2.5,0-6.55-.62-8.79-1.72-1.66-.83-1.51-1.51-1.51-3.22v-2.86c0-.83-.21-2.81,1.04-2.81s1.51,1.56,1.77,2.44c.47,1.66.83,3.07,2.08,4.31,1.46,1.4,3.48,1.87,5.41,1.87,3.27,0,7.07-1.77,7.07-5.51,0-4.21-4.52-5.46-7.75-6.76-4.11-1.72-9.15-4.06-9.15-9.25,0-6.86,7.54-10.5,13.52-10.5,1.82,0,5.15.52,6.76,1.35.99.52.83,1.35.83,2.34v3.54h0Z"/>
          <path class="cls-13" d="M552.53,190.14c0,3.07-.21,4.31,3.07,4.83.68.1,1.66.26,1.66,1.2,0,.78-.57.99-1.25.99-2.7,0-5.3-.21-8-.21-2.5,0-4.99.21-7.49.21-.73,0-1.25-.21-1.25-.99,0-.83.78-1.09,1.4-1.2,3.43-.57,3.27-1.46,3.27-4.83v-18.46c0-3.17.31-4.52-3.01-5.09-.62-.1-1.66-.16-1.66-1.04,0-.83.52-.99,1.25-.99,2.7,0,5.3.21,8.01.21,2.5,0,4.99-.21,7.43-.21.73,0,1.3.16,1.3.99s-.83.94-1.46,1.04c-3.53.57-3.27,1.61-3.27,5.09v18.46Z"/>
          <path class="cls-13" d="M577.69,190.14c0,3.07-.21,4.31,3.07,4.83.68.1,1.66.26,1.66,1.2,0,.78-.57.99-1.25.99-2.7,0-5.3-.21-8.01-.21-2.5,0-4.99.21-7.49.21-.73,0-1.25-.21-1.25-.99,0-.83.78-1.09,1.4-1.2,3.43-.57,3.27-1.46,3.27-4.83v-21.94c-.05-1.46,0-1.51-1.46-1.51-3.53,0-4.94,1.4-6.86,4.21-.42.62-1.3,1.82-2.13,1.82-.68,0-.94-.52-.94-1.14,0-.36.16-.78.26-1.14l1.66-6.08c.21-.78.42-1.77,1.4-1.77.57,0,.88.26,1.04.78.47,1.46.83,1.2,2.29,1.2h18.66c1.61,0,2.91.16,3.85-1.35.26-.47.62-.99,1.25-.99,1.2,0,.99.99.88,1.87l-.68,6.65c-.1.83-.05,2.13-1.14,2.13-.88,0-1.35-.83-1.61-1.56-1.51-3.74-2.18-4.68-6.5-4.68-1.35,0-1.4.16-1.4,1.51v21.99h.03Z"/>
          <path class="cls-13" d="M604.88,176.31c0,1.56-.1,2.44,1.72,2.44,1.09,0,3.38,0,4.37-.21,1.46-.26,2.08-1.4,2.5-2.75.21-.68.57-1.72,1.51-1.72.83,0,1.04.62,1.04,1.35-.1,1.46-.1,3.01-.21,4.47,0,1.46.1,3.01.21,4.47,0,.68-.21,1.46-1.09,1.46-2.5,0-.68-4.99-6.19-4.99l-2.24.1c-1.72.1-1.61.83-1.61,2.24v6.08c0,1.3.05,3.22.88,4.31.88,1.14,2.6,1.51,4,1.51,3.64,0,6.71-1.46,8.37-4.73.31-.73.83-1.82,1.77-1.82.83,0,1.14.36,1.14,1.2,0,.47-.31,1.82-.42,2.34l-.57,4.16c-.05.62-.16.94-.83.94-3.85,0-7.69-.21-11.54-.21-4.99,0-9.98.21-14.97.21-.73,0-1.25-.16-1.25-.94,0-.83.78-1.14,1.4-1.25,3.54-.57,3.43-1.61,3.43-4.73v-18.46c0-3.07.16-4.68-3.17-5.2-.68-.1-1.66-.36-1.66-.78,0-.83.52-1.25,1.25-1.25,3.12,0,6.13.21,9.25.21,5.41,0,10.81-.21,16.27-.21,1.14,0,.88.88.88,1.82v4.21c0,.78.16,1.61-1.04,1.61-.78,0-1.25-.83-1.61-1.4-.62-.99-1.51-1.92-2.39-2.7-1.09-.99-2.7-1.04-4.11-1.04-.88,0-3.74,0-4.52.47-.62.36-.57,1.77-.57,2.39v6.39h0Z"/>
          <path class="cls-13" d="M644.69,170.96c0,.83.1,1.98-1.04,1.98-.88,0-1.2-.73-1.4-1.4-.99-2.91-2.55-5.67-5.98-5.67-2.7,0-5.88,1.66-5.88,4.68,0,2.75,2.55,3.79,4.78,4.52l2.65.88c5.2,1.66,9.31,4.31,9.31,10.35,0,3.27-1.72,6.24-4.16,8.32-2.7,2.24-6.08,3.12-9.56,3.12-2.5,0-6.55-.62-8.79-1.72-1.66-.83-1.51-1.51-1.51-3.22v-2.86c0-.83-.21-2.81,1.04-2.81s1.51,1.56,1.77,2.44c.47,1.66.83,3.07,2.08,4.31,1.46,1.4,3.48,1.87,5.41,1.87,3.27,0,7.07-1.77,7.07-5.51,0-4.21-4.52-5.46-7.75-6.76-4.11-1.72-9.15-4.06-9.15-9.25,0-6.86,7.54-10.5,13.52-10.5,1.82,0,5.15.52,6.76,1.35.99.52.83,1.35.83,2.34v3.54h0Z"/>
          <path class="cls-13" d="M660.6,190.14c0,3.07-.21,4.31,3.07,4.83.68.1,1.66.26,1.66,1.2,0,.78-.57.99-1.25.99-2.7,0-5.3-.21-8-.21-2.5,0-4.99.21-7.49.21-.73,0-1.25-.21-1.25-.99,0-.83.78-1.09,1.4-1.2,3.43-.57,3.27-1.46,3.27-4.83v-18.46c0-3.17.31-4.52-3.01-5.09-.62-.1-1.66-.16-1.66-1.04,0-.83.52-.99,1.25-.99,2.7,0,5.3.21,8.01.21,2.5,0,4.99-.21,7.43-.21.73,0,1.3.16,1.3.99s-.83.94-1.46,1.04c-3.53.57-3.27,1.61-3.27,5.09v18.46Z"/>
        </g>
        <circle class="cls-13" cx="397.34" cy="158.21" r="4.79"/>
        <circle class="cls-13" cx="547.95" cy="158.38" r="4.79"/>
        <circle class="cls-13" cx="655.85" cy="158.38" r="4.79"/>
      </g>
    </g>
  </g>
  <g>
    <path class="cls-13" d="M930.37,199.53c0-.98.18-1.9.54-2.76.36-.86.86-1.62,1.48-2.26.63-.64,1.37-1.15,2.24-1.53.86-.38,1.78-.56,2.76-.56s1.9.19,2.76.56,1.62.88,2.26,1.53,1.15,1.4,1.53,2.26c.38.86.56,1.78.56,2.76s-.19,1.93-.56,2.78-.88,1.59-1.53,2.22-1.4,1.12-2.26,1.48c-.86.36-1.78.54-2.76.54s-1.9-.18-2.76-.54c-.86-.36-1.61-.86-2.24-1.48-.63-.63-1.12-1.37-1.48-2.22s-.54-1.78-.54-2.78Z"/>
    <path class="cls-13" d="M982.88,186.14c0,3.42-.33,6.73-1,9.91-.66,3.19-1.58,6.18-2.75,8.98-1.17,2.79-2.56,5.35-4.17,7.66s-3.36,4.29-5.24,5.93c-1.89,1.64-3.88,2.93-5.99,3.84-2.1.92-4.23,1.37-6.38,1.37-1.64,0-2.92-.28-3.81-.83-.9-.55-1.35-1.29-1.35-2.23,0-.35.06-.7.17-1.04s.26-.64.45-.9.41-.47.67-.63.54-.24.84-.24c.35,0,.65.18.88.53s.48.74.74,1.16.58.81.95,1.16.89.53,1.54.53c.84,0,1.72-.14,2.64-.43.92-.29,1.84-.71,2.76-1.25s1.85-1.2,2.78-1.98c.93-.78,1.84-1.64,2.73-2.59-.52-1.89-1.13-3.95-1.81-6.18-.68-2.23-1.4-4.48-2.16-6.75-.76-2.26-1.53-4.45-2.33-6.55-.8-2.1-1.57-3.97-2.33-5.6s-1.49-2.93-2.19-3.91-1.32-1.47-1.87-1.47c-.35,0-.63.06-.83.17s-.42.27-.69.48l-.56-.7c.37-.32.77-.65,1.18-.98s.9-.65,1.46-.93,1.22-.51,1.96-.69c.75-.18,1.64-.27,2.69-.27,1.14,0,2.2.26,3.18.77.98.51,1.88,1.46,2.68,2.85.58,1.03,1.18,2.26,1.81,3.7.63,1.44,1.26,3.05,1.89,4.82s1.28,3.7,1.92,5.76c.65,2.07,1.29,4.23,1.95,6.49,1.16-2.43,2.09-5.01,2.8-7.73.71-2.72,1.07-5.52,1.07-8.4,0-1.03-.07-1.91-.2-2.64s-.28-1.35-.45-1.87-.32-.95-.45-1.32-.2-.69-.2-.97.11-.52.34-.72.49-.35.81-.46.64-.19.97-.24.6-.07.83-.07c.5,0,.89.1,1.16.31s.47.5.6.88.21.85.22,1.39c.02.54.03,1.15.03,1.82l.06.06Z"/>
    <path class="cls-13" d="M997.39,208.49c0,.24-.04.53-.13.86-.08.33-.28.64-.59.93s-.75.53-1.33.73-1.36.29-2.36.29-1.77-.12-2.33-.35-.98-.51-1.26-.83c-.28-.32-.45-.65-.52-.98s-.1-.61-.1-.81v-21.65c0-.54-.13-1.01-.38-1.42s-.68-.6-1.28-.6c-.32,0-.59.06-.81.17s-.47.27-.73.48l-.59-.7c.43-.35.91-.71,1.44-1.05s1.11-.65,1.72-.91,1.28-.48,1.99-.65,1.46-.25,2.24-.25c1.22,0,2.16.16,2.83.49.67.33,1.17.73,1.49,1.21.32.48.51.99.57,1.53s.1,1.02.1,1.43v22.1l.03-.02Z"/>
    <path class="cls-13" d="M1013.47,208.38c0,.24-.04.53-.13.87-.08.34-.28.66-.59.95s-.76.56-1.35.77-1.38.32-2.37.32-1.77-.12-2.33-.35c-.56-.23-.98-.51-1.25-.83-.27-.32-.44-.65-.5-.98s-.1-.61-.1-.81v-36.18c0-.54-.13-1.01-.38-1.42-.25-.4-.68-.6-1.28-.6-.32,0-.59.05-.83.15-.23.1-.48.26-.74.46l-.56-.67c.43-.35.91-.71,1.43-1.05s1.1-.65,1.72-.91,1.29-.48,2.01-.65,1.46-.25,2.24-.25c1.22,0,2.16.16,2.83.49s1.17.73,1.49,1.21c.32.48.51.98.57,1.51s.1,1.01.1,1.42v36.55h.02Z"/>
    <g>
      <g>
        <path class="cls-10" d="M800.03,121.63c7.81-11.27-14.89-12.49-30.7-12.49l-5.02-.12-12.11,13.58c-10.74,10.78-7.26,25.97,2.89,25.57,7.24-.28,20.12-3.28,30.26,3.48-.22-.17-.42-.35-.6-.53.18.18.38.36.6.53,2.78,1.96,5.43,4.48,8.02,7.6,2.84,3.43,5.01,6.94,6.54,9.75v-.02c.11-.19.21-.39.31-.57.01-.03.03-.05.04-.08.09-.17.18-.33.26-.5.02-.03.03-.06.05-.09.08-.16.16-.31.24-.46.01-.03.03-.06.04-.08.08-.15.15-.31.23-.45,0-.02.02-.04.03-.06.08-.16.15-.31.23-.46v-.02c.19-.4.36-.77.51-1.09s.28-.62.38-.86c0,0,0-.02.01-.03.04-.08.07-.16.1-.24,0,0,.01-.03.02-.04.03-.07.05-.13.08-.19,0,0,.01-.03.02-.04.02-.05.04-.1.06-.15,0,0,0-.02.01-.03.02-.04.03-.08.04-.11v-.02s.02-.05.03-.07h0s.01-.04.01-.04c.03-.08.07-.2.13-.35s.13-.35.22-.58c.04-.11.09-.24.15-.37.16-.39.35-.86.58-1.4,1.84-4.29,6.01-12.89,12.98-21.58.49-.61.99-1.21,1.5-1.81-5.5-6.48-11.59-11.69-18.16-15.58h.02Z"/>
        <path class="cls-9" d="M800.03,121.63l14.42-14.47c5.17-5.18,8.14-9.71,8.14-15.99,0-8.75-8.13-13.09-23.94-13.09h-65.26c-1.03,0-2,0-2.92-.03v32.86c.91.26,1.88.4,2.92.4h34.48c15.8,0,39.97-.95,32.16,10.31h0Z"/>
      </g>
      <path class="cls-8" d="M750.76,206.96c17.8,0,30.49-13.38,42.42-28.65-7.06,9.06-14.82,13.46-23.7,13.46-9.86,0-18.26-6.82-21.22-16.26h-34.34c.54,1.83,1.11,3.89,1.7,6.23,4.46,15.51,17.42,25.22,35.14,25.22Z"/>
      <path class="cls-1" d="M802.02,163.73c-.11.24-.23.53-.38.86.15-.33.28-.61.38-.86Z"/>
      <path class="cls-7" d="M801.64,164.59c-.15.33-.32.69-.51,1.09.19-.4.36-.76.51-1.09Z"/>
      <path class="cls-4" d="M801.64,164.59c-.15.33-.32.69-.51,1.09.19-.4.36-.76.51-1.09Z"/>
      <path class="cls-5" d="M802.76,161.86c-.09.23-.16.42-.22.57.06-.16.13-.35.22-.57Z"/>
      <path class="cls-3" d="M802.76,161.86c-.09.23-.16.42-.22.57.06-.16.13-.35.22-.57Z"/>
      <path class="cls-2" d="M802.76,161.86c-.09.23-.16.42-.22.57.06-.16.13-.35.22-.57Z"/>
      <path class="cls-6" d="M802.76,161.86c-.09.23-.16.42-.22.57.06-.16.13-.35.22-.57Z"/>
      <path class="cls-14" d="M817.93,136.86h0c-.5.59-1,1.19-1.49,1.8.49-.61.99-1.21,1.49-1.8Z"/>
      <path class="cls-15" d="M817.93,136.86h0c-.5.59-1,1.19-1.49,1.8.49-.61.99-1.21,1.49-1.8Z"/>
      <path class="cls-16" d="M885.1,130.86c-15.07,0-26.48,9.04-36.87,20.53,5.54-4.75,11.51-7.04,18.15-7.04,12.32,0,22.35,10.13,22.35,22.58,0,24.01-17.73,43.98-39.6,43.98-10.62,0-16.84-3.61-23.62-6.69l.88.78c12.07,11.49,23.75,17.89,40,17.89,30.42,0,55.18-24.91,55.38-55.6-.1-20.67-14.47-36.43-36.65-36.43h-.02Z"/>
      <path class="cls-17" d="M885.09,131.81c22.26,0,36.66,15.86,36.66,36.64,0-30.54-24.85-55.39-55.39-55.39-18.48,0-35.18,8.22-48.44,23.79h0c-.5.59-1,1.19-1.49,1.8-6.96,8.64-11.11,17.19-12.95,21.45-.23.53-.42,1-.58,1.39-.05.13-.1.25-.15.37-.09.23-.16.42-.22.57-.06.16-.1.27-.13.35,0,0,0,0-.01.03h0s-.02.05-.03.08v.02s-.03.07-.04.11c0,0,0,.02-.01.03-.02.04-.04.09-.06.14,0,0-.01.03-.02.04-.02.06-.05.12-.08.18,0,0-.01.02-.02.04-.03.07-.06.15-.1.24,0,0,0,.02-.01.03-.11.24-.23.53-.38.86s-.32.69-.51,1.09v.02c-.07.15-.15.3-.23.46,0,.02-.02.04-.03.06-.07.15-.15.3-.22.45-.01.03-.03.06-.04.08-.08.15-.16.3-.24.46-.02.03-.03.06-.04.09-.08.16-.17.33-.26.49-.01.03-.03.05-.04.08-.1.19-.2.38-.31.57v.02h0c-1.43,2.62-3.43,5.86-6.01,9.07l-.51.62c-11.93,14.36-24.63,26.95-42.42,26.95s-30.68-9.13-35.14-23.72c5.84,24.33,27.77,42.47,53.87,42.47,19.18,0,36.45-8.85,49.93-25.59,9.28-11.52,13.57-22.88,14.03-24.13.03-.07,2.87-7.47,8.72-14.73l.51-.62c11.93-14.36,24.63-26.95,42.42-26.95h-.03Z"/>
    </g>
  </g>
</svg>