<svg xmlns="http://www.w3.org/2000/svg" width="302.514" height="57.727" viewBox="0 0 302.514 57.727">
  <g id="Group_44170" data-name="Group 44170" transform="translate(-6.326 -6.355)">
    <path id="Path_43684" data-name="Path 43684" d="M48.513,34.875l12.905-8.457-15.46.153,4.857-14.64L38.3,21.118,33.811,6.355,29.339,21.216,16.822,11.941l4.943,14.692-15.439-.2,12.565,8.8L6.419,44.2l15.5-.255L16.933,58.588l12.537-9.521L33.8,64.082,38.46,49.134l12.292,9.54-5.27-14.8,15.8.394Zm7.01-6.608L47.037,33.79l-2.792-2.053L45.352,28.4Zm-7.88-11.95L44.2,26.588l-4.227.042-1.127-3.7Zm-13.85-3.774,2.957,9.713-3.018,2.216-2.885-2.138ZM20.371,16.822l8.422,6.209-1.107,3.677-4.079-.052ZM12.473,28.4h9.887l1.174,3.49-3.007,2.162ZM11.98,42.37,20.4,36.287l3.334,2.334-1.188,3.49Zm8.542,11.244,3.421-9.7,4.019-.066.974,3.375Zm13.371,4.164-2.863-9.9,2.939-2.231,2.839,2.2Zm3.472-11.822L34,43.376l-3.5,2.659-1.183-4.089-4.72.115,1.455-4.128-4.023-2.824,3.523-2.546L24.182,28.4h4.84l1.281-4.26,3.5,2.577,3.508-2.637,1.341,4.4,4.942-.065-1.346,4.019,3.207,2.382-4,2.606,1.407,4.245-4.163-.231Zm9.256,7.087-7.574-5.8,1.093-3.508,3.425.085ZM44.737,41.779l-1.278-3.591,3.464-2.271,8.7,6.465Z" fill="#00194a"/>
    <g id="Group_44168" data-name="Group 44168" transform="translate(66.398 17.56)">
      <path id="Path_43685" data-name="Path 43685" d="M104.195,20,96.809,31.091,89.425,20H79.471L92.661,39.807l.016-.011v14.6h8.274V39.8l.007.005,8.467-12.716h9.187v27.3h8.274v-27.3h9.678V20Z" transform="translate(-79.471 -19.998)" fill="#00194a"/>
      <path id="Path_43686" data-name="Path 43686" d="M174.269,20v7.093h6.171l-6.171,6.2v7.455a10.273,10.273,0,0,1-.339,2.672,6.31,6.31,0,0,1-1.113,2.259,5.428,5.428,0,0,1-2.008,1.578,7.885,7.885,0,0,1-5.952,0,5.214,5.214,0,0,1-1.983-1.578,6.867,6.867,0,0,1-1.113-2.259,9.618,9.618,0,0,1-.363-2.672V20h-8.226v7.093h6.123l-6.123,6.147v8.183a15.161,15.161,0,0,0,1.016,5.659,12.336,12.336,0,0,0,2.9,4.372,13.236,13.236,0,0,0,4.6,2.842,18.645,18.645,0,0,0,12.17,0,13.7,13.7,0,0,0,4.669-2.842,12.317,12.317,0,0,0,2.976-4.372,14.859,14.859,0,0,0,1.041-5.659V20Z" transform="translate(-92.644 -19.998)" fill="#00194a"/>
    </g>
    <g id="Group_44169" data-name="Group 44169" transform="translate(165.101 18.424)">
      <path id="Path_43687" data-name="Path 43687" d="M207.571,28.931v5.221h-2.883V28.986l-5.034-7.935h3.369l3.125,5.259,3.182-5.259H212.6Z" transform="translate(-199.654 -21.051)" fill="#00194a"/>
      <path id="Path_43688" data-name="Path 43688" d="M217.771,34.152v-13.1h2.882v13.1Z" transform="translate(-202.892 -21.051)" fill="#00194a"/>
      <path id="Path_43689" data-name="Path 43689" d="M225.269,34.152v-13.1h2.882v10.5h6.532v2.6Z" transform="translate(-204.232 -21.051)" fill="#00194a"/>
      <path id="Path_43690" data-name="Path 43690" d="M250.941,30.184a6.1,6.1,0,0,1-1.431,2.078,6.773,6.773,0,0,1-2.209,1.385,7.614,7.614,0,0,1-2.816.505h-5.11v-13.1h5.11a7.749,7.749,0,0,1,2.816.5,6.658,6.658,0,0,1,2.209,1.376,6.128,6.128,0,0,1,1.431,2.068,6.5,6.5,0,0,1,.506,2.574V27.6A6.562,6.562,0,0,1,250.941,30.184ZM248.433,27.6a4.258,4.258,0,0,0-.291-1.591,3.738,3.738,0,0,0-.8-1.254,3.582,3.582,0,0,0-1.245-.814,4.315,4.315,0,0,0-1.61-.29h-2.227v7.9h2.227a4.45,4.45,0,0,0,1.61-.281,3.472,3.472,0,0,0,1.245-.8,3.78,3.78,0,0,0,.8-1.235,4.169,4.169,0,0,0,.291-1.592Z" transform="translate(-206.753 -21.051)" fill="#00194a"/>
      <path id="Path_43691" data-name="Path 43691" d="M257.356,34.152v-13.1h2.882v13.1Z" transform="translate(-209.967 -21.051)" fill="#00194a"/>
      <path id="Path_43692" data-name="Path 43692" d="M264.374,34.152v-2.19l7.206-8.385H264.6V21.051h10.687v2.19l-7.206,8.385h7.206v2.526Z" transform="translate(-211.221 -21.051)" fill="#00194a"/>
      <path id="Path_43693" data-name="Path 43693" d="M293.553,23.709V34.152h-2.882V23.709h-3.987V21.051H297.54v2.658Z" transform="translate(-215.209 -21.051)" fill="#00194a"/>
      <path id="Path_43694" data-name="Path 43694" d="M302.592,34.152v-13.1h9.863v2.564h-7.019v2.658h6.177v2.564h-6.177v2.751h7.113v2.564Z" transform="translate(-218.052 -21.051)" fill="#00194a"/>
      <path id="Path_43695" data-name="Path 43695" d="M326.32,34.152l-4.061-5.577-1.516,1.572v4.005H317.86v-13.1h2.883v5.727l5.315-5.727h3.481l-5.334,5.558,5.577,7.543Z" transform="translate(-220.781 -21.051)" fill="#00194a"/>
      <path id="Path_43696" data-name="Path 43696" d="M343.686,34.152l-6.344-8.329v8.329H334.5v-13.1h2.658l6.139,8.067V21.051h2.845v13.1Z" transform="translate(-223.754 -21.051)" fill="#00194a"/>
      <path id="Path_43697" data-name="Path 43697" d="M368.617,34.152l-4.061-5.577-1.516,1.572v4.005h-2.883v-13.1h2.883v5.727l5.315-5.727h3.481L366.5,26.609l5.577,7.543Z" transform="translate(-228.34 -21.051)" fill="#00194a"/>
      <path id="Path_43698" data-name="Path 43698" d="M228.8,58.848l-6.385-8.329v8.329h-2.863v-13.1h2.675l6.178,8.067V45.746h2.863v13.1Z" transform="translate(-203.21 -25.464)" fill="#00194a"/>
      <path id="Path_43699" data-name="Path 43699" d="M253.725,58.941h-2.562l-5.33-13.195h3.2l3.447,9.228,3.446-9.228h3.127Z" transform="translate(-207.907 -25.464)" fill="#00194a"/>
      <path id="Path_43700" data-name="Path 43700" d="M265.327,58.848v-13.1h9.926v2.565h-7.064v2.658h6.216v2.563h-6.216v2.751h7.158v2.565Z" transform="translate(-211.392 -25.464)" fill="#00194a"/>
      <path id="Path_43701" data-name="Path 43701" d="M289.614,58.848l-2.825-4.193h-2.278v4.193h-2.9v-13.1h6.027a5.4,5.4,0,0,1,3.664,1.142,4,4,0,0,1,1.309,3.182v.039a4.093,4.093,0,0,1-.782,2.592,4.529,4.529,0,0,1-2.043,1.468L293,58.848Zm.057-8.629a1.667,1.667,0,0,0-.6-1.4,2.676,2.676,0,0,0-1.676-.467h-2.881V52.11h2.938A2.413,2.413,0,0,0,289.1,51.6a1.7,1.7,0,0,0,.575-1.347Z" transform="translate(-214.302 -25.464)" fill="#00194a"/>
      <path id="Path_43702" data-name="Path 43702" d="M308.091,56.664a3.572,3.572,0,0,1-.992,1.272,4.477,4.477,0,0,1-1.519.787,6.645,6.645,0,0,1-1.956.271,8.774,8.774,0,0,1-2.957-.515A7.833,7.833,0,0,1,298.03,56.9l1.714-2.04a8.608,8.608,0,0,0,1.855,1.161,4.991,4.991,0,0,0,2.081.43,2.556,2.556,0,0,0,1.4-.328,1.03,1.03,0,0,0,.5-.908v-.037a1.125,1.125,0,0,0-.1-.5,1.061,1.061,0,0,0-.4-.4,4.194,4.194,0,0,0-.812-.374q-.519-.186-1.35-.393a16.328,16.328,0,0,1-1.813-.542,5.16,5.16,0,0,1-1.379-.739,3,3,0,0,1-.879-1.1,3.775,3.775,0,0,1-.311-1.628v-.038a3.768,3.768,0,0,1,.337-1.619,3.7,3.7,0,0,1,.945-1.245,4.253,4.253,0,0,1,1.452-.8,5.873,5.873,0,0,1,1.862-.28,7.926,7.926,0,0,1,2.666.43,7.721,7.721,0,0,1,2.231,1.235l-1.507,2.171a9.639,9.639,0,0,0-1.733-.945,4.453,4.453,0,0,0-1.7-.346,2.063,2.063,0,0,0-1.271.327.992.992,0,0,0-.425.814v.039a1.179,1.179,0,0,0,.122.552,1.113,1.113,0,0,0,.444.421,4.244,4.244,0,0,0,.878.355q.558.169,1.407.393a13.581,13.581,0,0,1,1.785.59,5.008,5.008,0,0,1,1.321.786,2.992,2.992,0,0,1,.812,1.077,3.635,3.635,0,0,1,.273,1.478v.038A4.043,4.043,0,0,1,308.091,56.664Z" transform="translate(-217.237 -25.424)" fill="#00194a"/>
      <path id="Path_43703" data-name="Path 43703" d="M329.092,48.4V58.848h-2.9V48.4h-4.013V45.746H333.1V48.4Z" transform="translate(-221.553 -25.464)" fill="#00194a"/>
      <path id="Path_43704" data-name="Path 43704" d="M339.105,58.848v-13.1h9.926v2.565h-7.064v2.658h6.215v2.563h-6.215v2.751h7.157v2.565Z" transform="translate(-224.578 -25.464)" fill="#00194a"/>
      <path id="Path_43705" data-name="Path 43705" d="M364.37,56.664a3.573,3.573,0,0,1-.992,1.272,4.463,4.463,0,0,1-1.519.787,6.642,6.642,0,0,1-1.956.271,8.774,8.774,0,0,1-2.957-.515,7.849,7.849,0,0,1-2.637-1.582l1.715-2.04a8.586,8.586,0,0,0,1.855,1.161,4.988,4.988,0,0,0,2.08.43,2.554,2.554,0,0,0,1.4-.328,1.03,1.03,0,0,0,.5-.908v-.037a1.125,1.125,0,0,0-.1-.5,1.052,1.052,0,0,0-.4-.4,4.182,4.182,0,0,0-.813-.374q-.519-.186-1.349-.393a16.293,16.293,0,0,1-1.813-.542,5.173,5.173,0,0,1-1.379-.739,2.994,2.994,0,0,1-.878-1.1,3.775,3.775,0,0,1-.311-1.628v-.038a3.78,3.78,0,0,1,.336-1.619A3.7,3.7,0,0,1,356.1,46.6a4.257,4.257,0,0,1,1.453-.8,5.868,5.868,0,0,1,1.861-.28,7.923,7.923,0,0,1,2.666.43,7.725,7.725,0,0,1,2.232,1.235L362.8,49.355a9.634,9.634,0,0,0-1.732-.945,4.457,4.457,0,0,0-1.7-.346,2.063,2.063,0,0,0-1.271.327.994.994,0,0,0-.425.814v.039a1.169,1.169,0,0,0,.123.552,1.115,1.115,0,0,0,.444.421,4.263,4.263,0,0,0,.878.355q.558.169,1.408.393a13.609,13.609,0,0,1,1.785.59,5.007,5.007,0,0,1,1.321.786,2.992,2.992,0,0,1,.812,1.077,3.62,3.62,0,0,1,.274,1.478v.038A4.044,4.044,0,0,1,364.37,56.664Z" transform="translate(-227.295 -25.424)" fill="#00194a"/>
      <path id="Path_43706" data-name="Path 43706" d="M352.66,21.051v2.962H354.9l-2.244,2.27v7.87h2.882v-13.1Z" transform="translate(-227 -21.051)" fill="#00194a"/>
      <path id="Path_43707" data-name="Path 43707" d="M370.311,45.8v2.962h2.244l-2.244,2.27V58.9h2.882V45.8Z" transform="translate(-230.155 -25.475)" fill="#00194a"/>
      <path id="Path_43708" data-name="Path 43708" d="M314.691,45.8v2.962h2.244l-2.244,2.27V58.9h2.882V45.8Z" transform="translate(-220.214 -25.475)" fill="#00194a"/>
      <path id="Path_43709" data-name="Path 43709" d="M238.758,45.8v2.962H241l-2.244,2.27V58.9h2.882V45.8Z" transform="translate(-206.643 -25.475)" fill="#00194a"/>
      <path id="Path_43710" data-name="Path 43710" d="M209.632,45.746v2.878h2.246l-2.246,2.127v2.5a3.291,3.291,0,0,1-.753,2.359,2.76,2.76,0,0,1-2.091.786,2.706,2.706,0,0,1-2.09-.814,3.453,3.453,0,0,1-.754-2.424V45.746h-2.9v2.878h2.4l-2.4,2.272v2.337a5.209,5.209,0,0,0,5.707,5.82,7.405,7.405,0,0,0,2.392-.365,4.739,4.739,0,0,0,1.827-1.1,4.887,4.887,0,0,0,1.159-1.844,7.559,7.559,0,0,0,.4-2.6V45.746Z" transform="translate(-199.902 -25.464)" fill="#00194a"/>
    </g>
  </g>
</svg>
